  0
SECTION
  2
HEADER
  9
$ACADVER
  1
AC1014
  9
$HANDSEED
  5
FFFF
  9
$MEASUREMENT
 70
     1
  0
ENDSEC
  0
SECTION
  2
TABLES
  0
TABLE
  2
VPORT
  5
8
330
0
100
AcDbSymbolTable
 70
     4
  0
VPORT
  5
2E
330
8
100
AcDbSymbolTableRecord
100
AcDbViewportTableRecord
  2
*ACTIVE
 70
     0
 10
0.0
 20
0.0
 11
1.0
 21
1.0
 12
210.0
 22
148.5
 13
0.0
 23
0.0
 14
10.0
 24
10.0
 15
10.0
 25
10.0
 16
0.0
 26
0.0
 36
1.0
 17
0.0
 27
0.0
 37
0.0
 40
341.0
 41
1.24
 42
50.0
 43
0.0
 44
0.0
 50
0.0
 51
0.0
 71
     0
 72
   100
 73
     1
 74
     3
 75
     0
 76
     0
 77
     0
 78
     0
  0
ENDTAB
  0
TABLE
  2
LTYPE
  5
5
330
0
100
AcDbSymbolTable
 70
     1
  0
LTYPE
  5
14
330
5
100
AcDbSymbolTableRecord
100
AcDbLinetypeTableRecord
  2
BYBLOCK
 70
     0
  3

 72
    65
 73
     0
 40
0.0
  0
LTYPE
  5
15
330
5
100
AcDbSymbolTableRecord
100
AcDbLinetypeTableRecord
  2
BYLAYER
 70
     0
  3

 72
    65
 73
     0
 40
0.0
  0
LTYPE
  5
16
330
5
100
AcDbSymbolTableRecord
100
AcDbLinetypeTableRecord
  2
CONTINUOUS
 70
     0
  3
Solid line
 72
    65
 73
     0
 40
0.0
  0
ENDTAB
  0
TABLE
  2
LAYER
  5
2
100
AcDbSymbolTable
 70
1
  0
LAYER
  5
50
100
AcDbSymbolTableRecord
100
AcDbLayerTableRecord
  2
0
 70
0
  6
CONTINUOUS
  0
ENDTAB
  0
TABLE
  2
STYLE
  5
3
330
0
100
AcDbSymbolTable
 70
     1
  0
STYLE
  5
11
330
3
100
AcDbSymbolTableRecord
100
AcDbTextStyleTableRecord
  2
STANDARD
 70
     0
 40
0.0
 41
1.0
 50
0.0
 71
     0
 42
2.5
  3
txt
  4

  0
ENDTAB
  0
TABLE
  2
VIEW
  5
6
330
0
100
AcDbSymbolTable
 70
     0
  0
ENDTAB
  0
TABLE
  2
UCS
  5
7
330
0
100
AcDbSymbolTable
 70
     0
  0
ENDTAB
  0
TABLE
  2
APPID
  5
9
330
0
100
AcDbSymbolTable
 70
     2
  0
APPID
  5
12
330
9
100
AcDbSymbolTableRecord
100
AcDbRegAppTableRecord
  2
ACAD
 70
     0
  0
ENDTAB
  0
TABLE
  2
DIMSTYLE
  5
A
330
0
100
AcDbSymbolTable
 70
     1
  0
DIMSTYLE
105
27
330
A
100
AcDbSymbolTableRecord
100
AcDbDimStyleTableRecord
  2
ISO-25
 70
     0
  3

  4

  5

  6

  7

 40
1.0
 41
2.5
 42
0.625
 43
3.75
 44
1.25
 45
0.0
 46
0.0
 47
0.0
 48
0.0
140
2.5
141
2.5
142
0.0
143
0.03937007874016
144
1.0
145
0.0
146
1.0
147
0.625
 71
     0
 72
     0
 73
     0
 74
     0
 75
     0
 76
     0
 77
     1
 78
     8
170
     0
171
     3
172
     1
173
     0
174
     0
175
     0
176
     0
177
     0
178
     0
270
     2
271
     2
272
     2
273
     2
274
     3
340
11
275
     0
280
     0
281
     0
282
     0
283
     0
284
     8
285
     0
286
     0
287
     3
288
     0
  0
ENDTAB
  0
TABLE
  2
BLOCK_RECORD
  5
1
330
0
100
AcDbSymbolTable
 70
     1
  0
BLOCK_RECORD
  5
1F
330
1
100
AcDbSymbolTableRecord
100
AcDbBlockTableRecord
  2
*MODEL_SPACE
  0
BLOCK_RECORD
  5
1B
330
1
100
AcDbSymbolTableRecord
100
AcDbBlockTableRecord
  2
*PAPER_SPACE
  0
ENDTAB
  0
ENDSEC
  0
SECTION
  2
BLOCKS
  0
BLOCK
  5
20
330
1F
100
AcDbEntity
  8
0
100
AcDbBlockBegin
  2
*MODEL_SPACE
 70
     0
 10
0.0
 20
0.0
 30
0.0
  3
*MODEL_SPACE
  1

  0
ENDBLK
  5
21
330
1F
100
AcDbEntity
  8
0
100
AcDbBlockEnd
  0
BLOCK
  5
1C
330
1B
100
AcDbEntity
 67
     1
  8
0
100
AcDbBlockBegin
  2
*PAPER_SPACE
  1

  0
ENDBLK
  5
1D
330
1B
100
AcDbEntity
 67
     1
  8
0
100
AcDbBlockEnd
  0
ENDSEC
  0
SECTION
  2
ENTITIES
  0
SPLINE
  5
100
100
AcDbEntity
  8
0
 62
7
100
AcDbSpline
 70
8
 71
3
 72
8
 73
4
 74
0
 40
0
 40
0
 40
0
 40
0
 40
1
 40
1
 40
1
 40
1
 10
200.236770
 20
685.179182
 30
0.0
 10
200.238333
 20
687.458847
 30
0.0
 10
199.023045
 20
689.566013
 30
0.0
 10
197.049058
 20
690.706296
 30
0.0
  0
SPLINE
  5
101
100
AcDbEntity
  8
0
 62
7
100
AcDbSpline
 70
8
 71
3
 72
8
 73
4
 74
0
 40
0
 40
0
 40
0
 40
0
 40
1
 40
1
 40
1
 40
1
 10
197.049058
 20
690.706296
 30
0.0
 10
195.075071
 20
691.846580
 30
0.0
 10
192.642567
 20
691.846580
 30
0.0
 10
190.668580
 20
690.706296
 30
0.0
  0
SPLINE
  5
102
100
AcDbEntity
  8
0
 62
7
100
AcDbSpline
 70
8
 71
3
 72
8
 73
4
 74
0
 40
0
 40
0
 40
0
 40
0
 40
1
 40
1
 40
1
 40
1
 10
190.668580
 20
690.706296
 30
0.0
 10
188.694593
 20
689.566013
 30
0.0
 10
187.479304
 20
687.458847
 30
0.0
 10
187.480868
 20
685.179182
 30
0.0
  0
SPLINE
  5
103
100
AcDbEntity
  8
0
 62
7
100
AcDbSpline
 70
8
 71
3
 72
8
 73
4
 74
0
 40
0
 40
0
 40
0
 40
0
 40
1
 40
1
 40
1
 40
1
 10
187.480868
 20
685.179182
 30
0.0
 10
187.479304
 20
682.899518
 30
0.0
 10
188.694593
 20
680.792352
 30
0.0
 10
190.668580
 20
679.652068
 30
0.0
  0
SPLINE
  5
104
100
AcDbEntity
  8
0
 62
7
100
AcDbSpline
 70
8
 71
3
 72
8
 73
4
 74
0
 40
0
 40
0
 40
0
 40
0
 40
1
 40
1
 40
1
 40
1
 10
190.668580
 20
679.652068
 30
0.0
 10
192.642567
 20
678.511784
 30
0.0
 10
195.075071
 20
678.511784
 30
0.0
 10
197.049058
 20
679.652068
 30
0.0
  0
SPLINE
  5
105
100
AcDbEntity
  8
0
 62
7
100
AcDbSpline
 70
8
 71
3
 72
8
 73
4
 74
0
 40
0
 40
0
 40
0
 40
0
 40
1
 40
1
 40
1
 40
1
 10
197.049058
 20
679.652068
 30
0.0
 10
199.023045
 20
680.792352
 30
0.0
 10
200.238333
 20
682.899518
 30
0.0
 10
200.236770
 20
685.179182
 30
0.0
  0
SPLINE
  5
106
100
AcDbEntity
  8
0
 62
7
100
AcDbSpline
 70
8
 71
3
 72
8
 73
4
 74
0
 40
0
 40
0
 40
0
 40
0
 40
1
 40
1
 40
1
 40
1
 10
200.236770
 20
784.391779
 30
0.0
 10
200.238333
 20
786.671443
 30
0.0
 10
199.023045
 20
788.778609
 30
0.0
 10
197.049058
 20
789.918893
 30
0.0
  0
SPLINE
  5
107
100
AcDbEntity
  8
0
 62
7
100
AcDbSpline
 70
8
 71
3
 72
8
 73
4
 74
0
 40
0
 40
0
 40
0
 40
0
 40
1
 40
1
 40
1
 40
1
 10
197.049058
 20
789.918893
 30
0.0
 10
195.075071
 20
791.059177
 30
0.0
 10
192.642567
 20
791.059177
 30
0.0
 10
190.668580
 20
789.918893
 30
0.0
  0
SPLINE
  5
108
100
AcDbEntity
  8
0
 62
7
100
AcDbSpline
 70
8
 71
3
 72
8
 73
4
 74
0
 40
0
 40
0
 40
0
 40
0
 40
1
 40
1
 40
1
 40
1
 10
190.668580
 20
789.918893
 30
0.0
 10
188.694593
 20
788.778609
 30
0.0
 10
187.479304
 20
786.671443
 30
0.0
 10
187.480868
 20
784.391779
 30
0.0
  0
SPLINE
  5
109
100
AcDbEntity
  8
0
 62
7
100
AcDbSpline
 70
8
 71
3
 72
8
 73
4
 74
0
 40
0
 40
0
 40
0
 40
0
 40
1
 40
1
 40
1
 40
1
 10
187.480868
 20
784.391779
 30
0.0
 10
187.479304
 20
782.112114
 30
0.0
 10
188.694593
 20
780.004948
 30
0.0
 10
190.668580
 20
778.864665
 30
0.0
  0
SPLINE
  5
10a
100
AcDbEntity
  8
0
 62
7
100
AcDbSpline
 70
8
 71
3
 72
8
 73
4
 74
0
 40
0
 40
0
 40
0
 40
0
 40
1
 40
1
 40
1
 40
1
 10
190.668580
 20
778.864665
 30
0.0
 10
192.642567
 20
777.724381
 30
0.0
 10
195.075071
 20
777.724381
 30
0.0
 10
197.049058
 20
778.864665
 30
0.0
  0
SPLINE
  5
10b
100
AcDbEntity
  8
0
 62
7
100
AcDbSpline
 70
8
 71
3
 72
8
 73
4
 74
0
 40
0
 40
0
 40
0
 40
0
 40
1
 40
1
 40
1
 40
1
 10
197.049058
 20
778.864665
 30
0.0
 10
199.023045
 20
780.004948
 30
0.0
 10
200.238333
 20
782.112114
 30
0.0
 10
200.236770
 20
784.391779
 30
0.0
  0
LWPOLYLINE
  5
10c
100
AcDbEntity
  8
0
 62
7
100
AcDbPolyline
 90
1
 70
1
 10
200.236770
 20
685.179182
 30
0.0
  0
SPLINE
  5
10d
100
AcDbEntity
  8
0
 62
7
100
AcDbSpline
 70
8
 71
3
 72
8
 73
4
 74
0
 40
0
 40
0
 40
0
 40
0
 40
1
 40
1
 40
1
 40
1
 10
293.354880
 20
688.013822
 30
0.0
 10
293.355986
 20
689.533641
 30
0.0
 10
292.545807
 20
690.938484
 30
0.0
 10
291.229790
 20
691.698713
 30
0.0
  0
SPLINE
  5
10e
100
AcDbEntity
  8
0
 62
7
100
AcDbSpline
 70
8
 71
3
 72
8
 73
4
 74
0
 40
0
 40
0
 40
0
 40
0
 40
1
 40
1
 40
1
 40
1
 10
291.229790
 20
691.698713
 30
0.0
 10
289.913772
 20
692.458941
 30
0.0
 10
288.292053
 20
692.458941
 30
0.0
 10
286.976035
 20
691.698713
 30
0.0
  0
SPLINE
  5
10f
100
AcDbEntity
  8
0
 62
7
100
AcDbSpline
 70
8
 71
3
 72
8
 73
4
 74
0
 40
0
 40
0
 40
0
 40
0
 40
1
 40
1
 40
1
 40
1
 10
286.976035
 20
691.698713
 30
0.0
 10
285.660018
 20
690.938484
 30
0.0
 10
284.849839
 20
689.533641
 30
0.0
 10
284.850945
 20
688.013822
 30
0.0
  0
SPLINE
  5
110
100
AcDbEntity
  8
0
 62
7
100
AcDbSpline
 70
8
 71
3
 72
8
 73
4
 74
0
 40
0
 40
0
 40
0
 40
0
 40
1
 40
1
 40
1
 40
1
 10
284.850945
 20
688.013822
 30
0.0
 10
284.849839
 20
686.494004
 30
0.0
 10
285.660018
 20
685.089161
 30
0.0
 10
286.976035
 20
684.328932
 30
0.0
  0
SPLINE
  5
111
100
AcDbEntity
  8
0
 62
7
100
AcDbSpline
 70
8
 71
3
 72
8
 73
4
 74
0
 40
0
 40
0
 40
0
 40
0
 40
1
 40
1
 40
1
 40
1
 10
286.976035
 20
684.328932
 30
0.0
 10
288.292053
 20
683.568703
 30
0.0
 10
289.913772
 20
683.568703
 30
0.0
 10
291.229790
 20
684.328932
 30
0.0
  0
SPLINE
  5
112
100
AcDbEntity
  8
0
 62
7
100
AcDbSpline
 70
8
 71
3
 72
8
 73
4
 74
0
 40
0
 40
0
 40
0
 40
0
 40
1
 40
1
 40
1
 40
1
 10
291.229790
 20
684.328932
 30
0.0
 10
292.545807
 20
685.089161
 30
0.0
 10
293.355986
 20
686.494004
 30
0.0
 10
293.354880
 20
688.013822
 30
0.0
  0
LWPOLYLINE
  5
113
100
AcDbEntity
  8
0
 62
7
100
AcDbPolyline
 90
1
 70
1
 10
200.236770
 20
784.391779
 30
0.0
  0
SPLINE
  5
114
100
AcDbEntity
  8
0
 62
7
100
AcDbSpline
 70
8
 71
3
 72
8
 73
4
 74
0
 40
0
 40
0
 40
0
 40
0
 40
1
 40
1
 40
1
 40
1
 10
327.370628
 20
688.013822
 30
0.0
 10
327.371733
 20
689.533641
 30
0.0
 10
326.561555
 20
690.938484
 30
0.0
 10
325.245537
 20
691.698713
 30
0.0
  0
SPLINE
  5
115
100
AcDbEntity
  8
0
 62
7
100
AcDbSpline
 70
8
 71
3
 72
8
 73
4
 74
0
 40
0
 40
0
 40
0
 40
0
 40
1
 40
1
 40
1
 40
1
 10
325.245537
 20
691.698713
 30
0.0
 10
323.929520
 20
692.458941
 30
0.0
 10
322.307800
 20
692.458941
 30
0.0
 10
320.991783
 20
691.698713
 30
0.0
  0
SPLINE
  5
116
100
AcDbEntity
  8
0
 62
7
100
AcDbSpline
 70
8
 71
3
 72
8
 73
4
 74
0
 40
0
 40
0
 40
0
 40
0
 40
1
 40
1
 40
1
 40
1
 10
320.991783
 20
691.698713
 30
0.0
 10
319.675765
 20
690.938484
 30
0.0
 10
318.865587
 20
689.533641
 30
0.0
 10
318.866692
 20
688.013822
 30
0.0
  0
SPLINE
  5
117
100
AcDbEntity
  8
0
 62
7
100
AcDbSpline
 70
8
 71
3
 72
8
 73
4
 74
0
 40
0
 40
0
 40
0
 40
0
 40
1
 40
1
 40
1
 40
1
 10
318.866692
 20
688.013822
 30
0.0
 10
318.865587
 20
686.494004
 30
0.0
 10
319.675765
 20
685.089161
 30
0.0
 10
320.991783
 20
684.328932
 30
0.0
  0
SPLINE
  5
118
100
AcDbEntity
  8
0
 62
7
100
AcDbSpline
 70
8
 71
3
 72
8
 73
4
 74
0
 40
0
 40
0
 40
0
 40
0
 40
1
 40
1
 40
1
 40
1
 10
320.991783
 20
684.328932
 30
0.0
 10
322.307800
 20
683.568703
 30
0.0
 10
323.929520
 20
683.568703
 30
0.0
 10
325.245537
 20
684.328932
 30
0.0
  0
SPLINE
  5
119
100
AcDbEntity
  8
0
 62
7
100
AcDbSpline
 70
8
 71
3
 72
8
 73
4
 74
0
 40
0
 40
0
 40
0
 40
0
 40
1
 40
1
 40
1
 40
1
 10
325.245537
 20
684.328932
 30
0.0
 10
326.561555
 20
685.089161
 30
0.0
 10
327.371733
 20
686.494004
 30
0.0
 10
327.370628
 20
688.013822
 30
0.0
  0
LWPOLYLINE
  5
11a
100
AcDbEntity
  8
0
 62
7
100
AcDbPolyline
 90
1
 70
1
 10
293.354880
 20
688.013822
 30
0.0
  0
SPLINE
  5
11b
100
AcDbEntity
  8
0
 62
7
100
AcDbSpline
 70
8
 71
3
 72
8
 73
4
 74
0
 40
0
 40
0
 40
0
 40
0
 40
1
 40
1
 40
1
 40
1
 10
293.354880
 20
826.911464
 30
0.0
 10
293.355986
 20
828.431283
 30
0.0
 10
292.545807
 20
829.836126
 30
0.0
 10
291.229790
 20
830.596355
 30
0.0
  0
SPLINE
  5
11c
100
AcDbEntity
  8
0
 62
7
100
AcDbSpline
 70
8
 71
3
 72
8
 73
4
 74
0
 40
0
 40
0
 40
0
 40
0
 40
1
 40
1
 40
1
 40
1
 10
291.229790
 20
830.596355
 30
0.0
 10
289.913772
 20
831.356583
 30
0.0
 10
288.292053
 20
831.356583
 30
0.0
 10
286.976035
 20
830.596355
 30
0.0
  0
SPLINE
  5
11d
100
AcDbEntity
  8
0
 62
7
100
AcDbSpline
 70
8
 71
3
 72
8
 73
4
 74
0
 40
0
 40
0
 40
0
 40
0
 40
1
 40
1
 40
1
 40
1
 10
286.976035
 20
830.596355
 30
0.0
 10
285.660018
 20
829.836126
 30
0.0
 10
284.849839
 20
828.431283
 30
0.0
 10
284.850945
 20
826.911464
 30
0.0
  0
SPLINE
  5
11e
100
AcDbEntity
  8
0
 62
7
100
AcDbSpline
 70
8
 71
3
 72
8
 73
4
 74
0
 40
0
 40
0
 40
0
 40
0
 40
1
 40
1
 40
1
 40
1
 10
284.850945
 20
826.911464
 30
0.0
 10
284.849839
 20
825.391646
 30
0.0
 10
285.660018
 20
823.986803
 30
0.0
 10
286.976035
 20
823.226574
 30
0.0
  0
SPLINE
  5
11f
100
AcDbEntity
  8
0
 62
7
100
AcDbSpline
 70
8
 71
3
 72
8
 73
4
 74
0
 40
0
 40
0
 40
0
 40
0
 40
1
 40
1
 40
1
 40
1
 10
286.976035
 20
823.226574
 30
0.0
 10
288.292053
 20
822.466345
 30
0.0
 10
289.913772
 20
822.466345
 30
0.0
 10
291.229790
 20
823.226574
 30
0.0
  0
SPLINE
  5
120
100
AcDbEntity
  8
0
 62
7
100
AcDbSpline
 70
8
 71
3
 72
8
 73
4
 74
0
 40
0
 40
0
 40
0
 40
0
 40
1
 40
1
 40
1
 40
1
 10
291.229790
 20
823.226574
 30
0.0
 10
292.545807
 20
823.986803
 30
0.0
 10
293.355986
 20
825.391646
 30
0.0
 10
293.354880
 20
826.911464
 30
0.0
  0
LWPOLYLINE
  5
121
100
AcDbEntity
  8
0
 62
7
100
AcDbPolyline
 90
1
 70
1
 10
327.370628
 20
688.013822
 30
0.0
  0
SPLINE
  5
122
100
AcDbEntity
  8
0
 62
7
100
AcDbSpline
 70
8
 71
3
 72
8
 73
4
 74
0
 40
0
 40
0
 40
0
 40
0
 40
1
 40
1
 40
1
 40
1
 10
327.370628
 20
826.911464
 30
0.0
 10
327.371733
 20
828.431283
 30
0.0
 10
326.561555
 20
829.836126
 30
0.0
 10
325.245537
 20
830.596355
 30
0.0
  0
SPLINE
  5
123
100
AcDbEntity
  8
0
 62
7
100
AcDbSpline
 70
8
 71
3
 72
8
 73
4
 74
0
 40
0
 40
0
 40
0
 40
0
 40
1
 40
1
 40
1
 40
1
 10
325.245537
 20
830.596355
 30
0.0
 10
323.929520
 20
831.356583
 30
0.0
 10
322.307800
 20
831.356583
 30
0.0
 10
320.991783
 20
830.596355
 30
0.0
  0
SPLINE
  5
124
100
AcDbEntity
  8
0
 62
7
100
AcDbSpline
 70
8
 71
3
 72
8
 73
4
 74
0
 40
0
 40
0
 40
0
 40
0
 40
1
 40
1
 40
1
 40
1
 10
320.991783
 20
830.596355
 30
0.0
 10
319.675765
 20
829.836126
 30
0.0
 10
318.865587
 20
828.431283
 30
0.0
 10
318.866692
 20
826.911464
 30
0.0
  0
SPLINE
  5
125
100
AcDbEntity
  8
0
 62
7
100
AcDbSpline
 70
8
 71
3
 72
8
 73
4
 74
0
 40
0
 40
0
 40
0
 40
0
 40
1
 40
1
 40
1
 40
1
 10
318.866692
 20
826.911464
 30
0.0
 10
318.865587
 20
825.391646
 30
0.0
 10
319.675765
 20
823.986803
 30
0.0
 10
320.991783
 20
823.226574
 30
0.0
  0
SPLINE
  5
126
100
AcDbEntity
  8
0
 62
7
100
AcDbSpline
 70
8
 71
3
 72
8
 73
4
 74
0
 40
0
 40
0
 40
0
 40
0
 40
1
 40
1
 40
1
 40
1
 10
320.991783
 20
823.226574
 30
0.0
 10
322.307800
 20
822.466345
 30
0.0
 10
323.929520
 20
822.466345
 30
0.0
 10
325.245537
 20
823.226574
 30
0.0
  0
SPLINE
  5
127
100
AcDbEntity
  8
0
 62
7
100
AcDbSpline
 70
8
 71
3
 72
8
 73
4
 74
0
 40
0
 40
0
 40
0
 40
0
 40
1
 40
1
 40
1
 40
1
 10
325.245537
 20
823.226574
 30
0.0
 10
326.561555
 20
823.986803
 30
0.0
 10
327.371733
 20
825.391646
 30
0.0
 10
327.370628
 20
826.911464
 30
0.0
  0
LWPOLYLINE
  5
128
100
AcDbEntity
  8
0
 62
7
100
AcDbPolyline
 90
1
 70
1
 10
293.354880
 20
826.911464
 30
0.0
  0
SPLINE
  5
129
100
AcDbEntity
  8
0
 62
7
100
AcDbSpline
 70
8
 71
3
 72
8
 73
4
 74
0
 40
0
 40
0
 40
0
 40
0
 40
1
 40
1
 40
1
 40
1
 10
128.605275
 20
436.013822
 30
0.0
 10
128.606381
 20
437.533641
 30
0.0
 10
127.796202
 20
438.938484
 30
0.0
 10
126.480185
 20
439.698713
 30
0.0
  0
SPLINE
  5
12a
100
AcDbEntity
  8
0
 62
7
100
AcDbSpline
 70
8
 71
3
 72
8
 73
4
 74
0
 40
0
 40
0
 40
0
 40
0
 40
1
 40
1
 40
1
 40
1
 10
126.480185
 20
439.698713
 30
0.0
 10
125.164167
 20
440.458941
 30
0.0
 10
123.542448
 20
440.458941
 30
0.0
 10
122.226430
 20
439.698713
 30
0.0
  0
SPLINE
  5
12b
100
AcDbEntity
  8
0
 62
7
100
AcDbSpline
 70
8
 71
3
 72
8
 73
4
 74
0
 40
0
 40
0
 40
0
 40
0
 40
1
 40
1
 40
1
 40
1
 10
122.226430
 20
439.698713
 30
0.0
 10
120.910413
 20
438.938484
 30
0.0
 10
120.100234
 20
437.533641
 30
0.0
 10
120.101340
 20
436.013822
 30
0.0
  0
SPLINE
  5
12c
100
AcDbEntity
  8
0
 62
7
100
AcDbSpline
 70
8
 71
3
 72
8
 73
4
 74
0
 40
0
 40
0
 40
0
 40
0
 40
1
 40
1
 40
1
 40
1
 10
120.101340
 20
436.013822
 30
0.0
 10
120.100234
 20
434.494004
 30
0.0
 10
120.910413
 20
433.089161
 30
0.0
 10
122.226430
 20
432.328932
 30
0.0
  0
SPLINE
  5
12d
100
AcDbEntity
  8
0
 62
7
100
AcDbSpline
 70
8
 71
3
 72
8
 73
4
 74
0
 40
0
 40
0
 40
0
 40
0
 40
1
 40
1
 40
1
 40
1
 10
122.226430
 20
432.328932
 30
0.0
 10
123.542448
 20
431.568703
 30
0.0
 10
125.164167
 20
431.568703
 30
0.0
 10
126.480185
 20
432.328932
 30
0.0
  0
SPLINE
  5
12e
100
AcDbEntity
  8
0
 62
7
100
AcDbSpline
 70
8
 71
3
 72
8
 73
4
 74
0
 40
0
 40
0
 40
0
 40
0
 40
1
 40
1
 40
1
 40
1
 10
126.480185
 20
432.328932
 30
0.0
 10
127.796202
 20
433.089161
 30
0.0
 10
128.606381
 20
434.494004
 30
0.0
 10
128.605275
 20
436.013822
 30
0.0
  0
LWPOLYLINE
  5
12f
100
AcDbEntity
  8
0
 62
7
100
AcDbPolyline
 90
1
 70
1
 10
327.370628
 20
826.911464
 30
0.0
  0
SPLINE
  5
130
100
AcDbEntity
  8
0
 62
7
100
AcDbSpline
 70
8
 71
3
 72
8
 73
4
 74
0
 40
0
 40
0
 40
0
 40
0
 40
1
 40
1
 40
1
 40
1
 10
128.605275
 20
470.029570
 30
0.0
 10
128.606381
 20
471.549388
 30
0.0
 10
127.796202
 20
472.954231
 30
0.0
 10
126.480185
 20
473.714460
 30
0.0
  0
SPLINE
  5
131
100
AcDbEntity
  8
0
 62
7
100
AcDbSpline
 70
8
 71
3
 72
8
 73
4
 74
0
 40
0
 40
0
 40
0
 40
0
 40
1
 40
1
 40
1
 40
1
 10
126.480185
 20
473.714460
 30
0.0
 10
125.164167
 20
474.474689
 30
0.0
 10
123.542448
 20
474.474689
 30
0.0
 10
122.226430
 20
473.714460
 30
0.0
  0
SPLINE
  5
132
100
AcDbEntity
  8
0
 62
7
100
AcDbSpline
 70
8
 71
3
 72
8
 73
4
 74
0
 40
0
 40
0
 40
0
 40
0
 40
1
 40
1
 40
1
 40
1
 10
122.226430
 20
473.714460
 30
0.0
 10
120.910413
 20
472.954231
 30
0.0
 10
120.100234
 20
471.549388
 30
0.0
 10
120.101340
 20
470.029570
 30
0.0
  0
SPLINE
  5
133
100
AcDbEntity
  8
0
 62
7
100
AcDbSpline
 70
8
 71
3
 72
8
 73
4
 74
0
 40
0
 40
0
 40
0
 40
0
 40
1
 40
1
 40
1
 40
1
 10
120.101340
 20
470.029570
 30
0.0
 10
120.100234
 20
468.509751
 30
0.0
 10
120.910413
 20
467.104908
 30
0.0
 10
122.226430
 20
466.344679
 30
0.0
  0
SPLINE
  5
134
100
AcDbEntity
  8
0
 62
7
100
AcDbSpline
 70
8
 71
3
 72
8
 73
4
 74
0
 40
0
 40
0
 40
0
 40
0
 40
1
 40
1
 40
1
 40
1
 10
122.226430
 20
466.344679
 30
0.0
 10
123.542448
 20
465.584451
 30
0.0
 10
125.164167
 20
465.584451
 30
0.0
 10
126.480185
 20
466.344679
 30
0.0
  0
SPLINE
  5
135
100
AcDbEntity
  8
0
 62
7
100
AcDbSpline
 70
8
 71
3
 72
8
 73
4
 74
0
 40
0
 40
0
 40
0
 40
0
 40
1
 40
1
 40
1
 40
1
 10
126.480185
 20
466.344679
 30
0.0
 10
127.796202
 20
467.104908
 30
0.0
 10
128.606381
 20
468.509751
 30
0.0
 10
128.605275
 20
470.029570
 30
0.0
  0
LWPOLYLINE
  5
136
100
AcDbEntity
  8
0
 62
7
100
AcDbPolyline
 90
1
 70
1
 10
128.605275
 20
436.013822
 30
0.0
  0
SPLINE
  5
137
100
AcDbEntity
  8
0
 62
7
100
AcDbSpline
 70
8
 71
3
 72
8
 73
4
 74
0
 40
0
 40
0
 40
0
 40
0
 40
1
 40
1
 40
1
 40
1
 10
128.605275
 20
165.588625
 30
0.0
 10
128.606381
 20
167.108443
 30
0.0
 10
127.796202
 20
168.513286
 30
0.0
 10
126.480185
 20
169.273515
 30
0.0
  0
SPLINE
  5
138
100
AcDbEntity
  8
0
 62
7
100
AcDbSpline
 70
8
 71
3
 72
8
 73
4
 74
0
 40
0
 40
0
 40
0
 40
0
 40
1
 40
1
 40
1
 40
1
 10
126.480185
 20
169.273515
 30
0.0
 10
125.164167
 20
170.033744
 30
0.0
 10
123.542448
 20
170.033744
 30
0.0
 10
122.226430
 20
169.273515
 30
0.0
  0
SPLINE
  5
139
100
AcDbEntity
  8
0
 62
7
100
AcDbSpline
 70
8
 71
3
 72
8
 73
4
 74
0
 40
0
 40
0
 40
0
 40
0
 40
1
 40
1
 40
1
 40
1
 10
122.226430
 20
169.273515
 30
0.0
 10
120.910413
 20
168.513286
 30
0.0
 10
120.100234
 20
167.108443
 30
0.0
 10
120.101340
 20
165.588625
 30
0.0
  0
SPLINE
  5
13a
100
AcDbEntity
  8
0
 62
7
100
AcDbSpline
 70
8
 71
3
 72
8
 73
4
 74
0
 40
0
 40
0
 40
0
 40
0
 40
1
 40
1
 40
1
 40
1
 10
120.101340
 20
165.588625
 30
0.0
 10
120.100234
 20
164.068806
 30
0.0
 10
120.910413
 20
162.663963
 30
0.0
 10
122.226430
 20
161.903734
 30
0.0
  0
SPLINE
  5
13b
100
AcDbEntity
  8
0
 62
7
100
AcDbSpline
 70
8
 71
3
 72
8
 73
4
 74
0
 40
0
 40
0
 40
0
 40
0
 40
1
 40
1
 40
1
 40
1
 10
122.226430
 20
161.903734
 30
0.0
 10
123.542448
 20
161.143506
 30
0.0
 10
125.164167
 20
161.143506
 30
0.0
 10
126.480185
 20
161.903734
 30
0.0
  0
SPLINE
  5
13c
100
AcDbEntity
  8
0
 62
7
100
AcDbSpline
 70
8
 71
3
 72
8
 73
4
 74
0
 40
0
 40
0
 40
0
 40
0
 40
1
 40
1
 40
1
 40
1
 10
126.480185
 20
161.903734
 30
0.0
 10
127.796202
 20
162.663963
 30
0.0
 10
128.606381
 20
164.068806
 30
0.0
 10
128.605275
 20
165.588625
 30
0.0
  0
LWPOLYLINE
  5
13d
100
AcDbEntity
  8
0
 62
7
100
AcDbPolyline
 90
1
 70
1
 10
128.605275
 20
470.029570
 30
0.0
  0
SPLINE
  5
13e
100
AcDbEntity
  8
0
 62
7
100
AcDbSpline
 70
8
 71
3
 72
8
 73
4
 74
0
 40
0
 40
0
 40
0
 40
0
 40
1
 40
1
 40
1
 40
1
 10
128.605275
 20
199.604372
 30
0.0
 10
128.606381
 20
201.124191
 30
0.0
 10
127.796202
 20
202.529034
 30
0.0
 10
126.480185
 20
203.289263
 30
0.0
  0
SPLINE
  5
13f
100
AcDbEntity
  8
0
 62
7
100
AcDbSpline
 70
8
 71
3
 72
8
 73
4
 74
0
 40
0
 40
0
 40
0
 40
0
 40
1
 40
1
 40
1
 40
1
 10
126.480185
 20
203.289263
 30
0.0
 10
125.164167
 20
204.049491
 30
0.0
 10
123.542448
 20
204.049491
 30
0.0
 10
122.226430
 20
203.289263
 30
0.0
  0
SPLINE
  5
140
100
AcDbEntity
  8
0
 62
7
100
AcDbSpline
 70
8
 71
3
 72
8
 73
4
 74
0
 40
0
 40
0
 40
0
 40
0
 40
1
 40
1
 40
1
 40
1
 10
122.226430
 20
203.289263
 30
0.0
 10
120.910413
 20
202.529034
 30
0.0
 10
120.100234
 20
201.124191
 30
0.0
 10
120.101340
 20
199.604372
 30
0.0
  0
SPLINE
  5
141
100
AcDbEntity
  8
0
 62
7
100
AcDbSpline
 70
8
 71
3
 72
8
 73
4
 74
0
 40
0
 40
0
 40
0
 40
0
 40
1
 40
1
 40
1
 40
1
 10
120.101340
 20
199.604372
 30
0.0
 10
120.100234
 20
198.084554
 30
0.0
 10
120.910413
 20
196.679711
 30
0.0
 10
122.226430
 20
195.919482
 30
0.0
  0
SPLINE
  5
142
100
AcDbEntity
  8
0
 62
7
100
AcDbSpline
 70
8
 71
3
 72
8
 73
4
 74
0
 40
0
 40
0
 40
0
 40
0
 40
1
 40
1
 40
1
 40
1
 10
122.226430
 20
195.919482
 30
0.0
 10
123.542448
 20
195.159253
 30
0.0
 10
125.164167
 20
195.159253
 30
0.0
 10
126.480185
 20
195.919482
 30
0.0
  0
SPLINE
  5
143
100
AcDbEntity
  8
0
 62
7
100
AcDbSpline
 70
8
 71
3
 72
8
 73
4
 74
0
 40
0
 40
0
 40
0
 40
0
 40
1
 40
1
 40
1
 40
1
 10
126.480185
 20
195.919482
 30
0.0
 10
127.796202
 20
196.679711
 30
0.0
 10
128.606381
 20
198.084554
 30
0.0
 10
128.605275
 20
199.604372
 30
0.0
  0
LWPOLYLINE
  5
144
100
AcDbEntity
  8
0
 62
7
100
AcDbPolyline
 90
1
 70
1
 10
128.605275
 20
165.588625
 30
0.0
  0
SPLINE
  5
145
100
AcDbEntity
  8
0
 62
7
100
AcDbSpline
 70
8
 71
3
 72
8
 73
4
 74
0
 40
0
 40
0
 40
0
 40
0
 40
1
 40
1
 40
1
 40
1
 10
74.309902
 20
662.830630
 30
0.0
 10
74.309902
 20
664.197804
 30
0.0
 10
73.580523
 20
665.461125
 30
0.0
 10
72.396516
 20
666.144712
 30
0.0
  0
SPLINE
  5
146
100
AcDbEntity
  8
0
 62
7
100
AcDbSpline
 70
8
 71
3
 72
8
 73
4
 74
0
 40
0
 40
0
 40
0
 40
0
 40
1
 40
1
 40
1
 40
1
 10
72.396516
 20
666.144712
 30
0.0
 10
71.212509
 20
666.828299
 30
0.0
 10
69.753751
 20
666.828299
 30
0.0
 10
68.569744
 20
666.144712
 30
0.0
  0
SPLINE
  5
147
100
AcDbEntity
  8
0
 62
7
100
AcDbSpline
 70
8
 71
3
 72
8
 73
4
 74
0
 40
0
 40
0
 40
0
 40
0
 40
1
 40
1
 40
1
 40
1
 10
68.569744
 20
666.144712
 30
0.0
 10
67.385736
 20
665.461125
 30
0.0
 10
66.656358
 20
664.197804
 30
0.0
 10
66.656358
 20
662.830630
 30
0.0
  0
SPLINE
  5
148
100
AcDbEntity
  8
0
 62
7
100
AcDbSpline
 70
8
 71
3
 72
8
 73
4
 74
0
 40
0
 40
0
 40
0
 40
0
 40
1
 40
1
 40
1
 40
1
 10
66.656358
 20
662.830630
 30
0.0
 10
66.656358
 20
661.463456
 30
0.0
 10
67.385736
 20
660.200135
 30
0.0
 10
68.569744
 20
659.516548
 30
0.0
  0
SPLINE
  5
149
100
AcDbEntity
  8
0
 62
7
100
AcDbSpline
 70
8
 71
3
 72
8
 73
4
 74
0
 40
0
 40
0
 40
0
 40
0
 40
1
 40
1
 40
1
 40
1
 10
68.569744
 20
659.516548
 30
0.0
 10
69.753751
 20
658.832961
 30
0.0
 10
71.212509
 20
658.832961
 30
0.0
 10
72.396516
 20
659.516548
 30
0.0
  0
SPLINE
  5
14a
100
AcDbEntity
  8
0
 62
7
100
AcDbSpline
 70
8
 71
3
 72
8
 73
4
 74
0
 40
0
 40
0
 40
0
 40
0
 40
1
 40
1
 40
1
 40
1
 10
72.396516
 20
659.516548
 30
0.0
 10
73.580523
 20
660.200135
 30
0.0
 10
74.309902
 20
661.463456
 30
0.0
 10
74.309902
 20
662.830630
 30
0.0
  0
LWPOLYLINE
  5
14b
100
AcDbEntity
  8
0
 62
7
100
AcDbPolyline
 90
1
 70
1
 10
128.605275
 20
199.604372
 30
0.0
  0
SPLINE
  5
14c
100
AcDbEntity
  8
0
 62
7
100
AcDbSpline
 70
8
 71
3
 72
8
 73
4
 74
0
 40
0
 40
0
 40
0
 40
0
 40
1
 40
1
 40
1
 40
1
 10
74.309902
 20
523.932992
 30
0.0
 10
74.309902
 20
525.300166
 30
0.0
 10
73.580523
 20
526.563487
 30
0.0
 10
72.396516
 20
527.247074
 30
0.0
  0
SPLINE
  5
14d
100
AcDbEntity
  8
0
 62
7
100
AcDbSpline
 70
8
 71
3
 72
8
 73
4
 74
0
 40
0
 40
0
 40
0
 40
0
 40
1
 40
1
 40
1
 40
1
 10
72.396516
 20
527.247074
 30
0.0
 10
71.212509
 20
527.930661
 30
0.0
 10
69.753751
 20
527.930661
 30
0.0
 10
68.569744
 20
527.247074
 30
0.0
  0
SPLINE
  5
14e
100
AcDbEntity
  8
0
 62
7
100
AcDbSpline
 70
8
 71
3
 72
8
 73
4
 74
0
 40
0
 40
0
 40
0
 40
0
 40
1
 40
1
 40
1
 40
1
 10
68.569744
 20
527.247074
 30
0.0
 10
67.385736
 20
526.563487
 30
0.0
 10
66.656358
 20
525.300166
 30
0.0
 10
66.656358
 20
523.932992
 30
0.0
  0
SPLINE
  5
14f
100
AcDbEntity
  8
0
 62
7
100
AcDbSpline
 70
8
 71
3
 72
8
 73
4
 74
0
 40
0
 40
0
 40
0
 40
0
 40
1
 40
1
 40
1
 40
1
 10
66.656358
 20
523.932992
 30
0.0
 10
66.656358
 20
522.565818
 30
0.0
 10
67.385736
 20
521.302497
 30
0.0
 10
68.569744
 20
520.618910
 30
0.0
  0
SPLINE
  5
150
100
AcDbEntity
  8
0
 62
7
100
AcDbSpline
 70
8
 71
3
 72
8
 73
4
 74
0
 40
0
 40
0
 40
0
 40
0
 40
1
 40
1
 40
1
 40
1
 10
68.569744
 20
520.618910
 30
0.0
 10
69.753751
 20
519.935323
 30
0.0
 10
71.212509
 20
519.935323
 30
0.0
 10
72.396516
 20
520.618910
 30
0.0
  0
SPLINE
  5
151
100
AcDbEntity
  8
0
 62
7
100
AcDbSpline
 70
8
 71
3
 72
8
 73
4
 74
0
 40
0
 40
0
 40
0
 40
0
 40
1
 40
1
 40
1
 40
1
 10
72.396516
 20
520.618910
 30
0.0
 10
73.580523
 20
521.302497
 30
0.0
 10
74.309902
 20
522.565818
 30
0.0
 10
74.309902
 20
523.932992
 30
0.0
  0
LWPOLYLINE
  5
152
100
AcDbEntity
  8
0
 62
7
100
AcDbPolyline
 90
1
 70
1
 10
74.309902
 20
662.830630
 30
0.0
  0
SPLINE
  5
153
100
AcDbEntity
  8
0
 62
7
100
AcDbSpline
 70
8
 71
3
 72
8
 73
4
 74
0
 40
0
 40
0
 40
0
 40
0
 40
1
 40
1
 40
1
 40
1
 10
149.379315
 20
394.194295
 30
0.0
 10
149.381004
 20
395.967682
 30
0.0
 10
148.435883
 20
397.607082
 30
0.0
 10
146.900366
 20
398.494263
 30
0.0
  0
SPLINE
  5
154
100
AcDbEntity
  8
0
 62
7
100
AcDbSpline
 70
8
 71
3
 72
8
 73
4
 74
0
 40
0
 40
0
 40
0
 40
0
 40
1
 40
1
 40
1
 40
1
 10
146.900366
 20
398.494263
 30
0.0
 10
145.364849
 20
399.381445
 30
0.0
 10
143.472526
 20
399.381445
 30
0.0
 10
141.937009
 20
398.494263
 30
0.0
  0
SPLINE
  5
155
100
AcDbEntity
  8
0
 62
7
100
AcDbSpline
 70
8
 71
3
 72
8
 73
4
 74
0
 40
0
 40
0
 40
0
 40
0
 40
1
 40
1
 40
1
 40
1
 10
141.937009
 20
398.494263
 30
0.0
 10
140.401492
 20
397.607082
 30
0.0
 10
139.456371
 20
395.967682
 30
0.0
 10
139.458060
 20
394.194295
 30
0.0
  0
SPLINE
  5
156
100
AcDbEntity
  8
0
 62
7
100
AcDbSpline
 70
8
 71
3
 72
8
 73
4
 74
0
 40
0
 40
0
 40
0
 40
0
 40
1
 40
1
 40
1
 40
1
 10
139.458060
 20
394.194295
 30
0.0
 10
139.456371
 20
392.420908
 30
0.0
 10
140.401492
 20
390.781508
 30
0.0
 10
141.937009
 20
389.894326
 30
0.0
  0
SPLINE
  5
157
100
AcDbEntity
  8
0
 62
7
100
AcDbSpline
 70
8
 71
3
 72
8
 73
4
 74
0
 40
0
 40
0
 40
0
 40
0
 40
1
 40
1
 40
1
 40
1
 10
141.937009
 20
389.894326
 30
0.0
 10
143.472526
 20
389.007145
 30
0.0
 10
145.364849
 20
389.007145
 30
0.0
 10
146.900366
 20
389.894326
 30
0.0
  0
SPLINE
  5
158
100
AcDbEntity
  8
0
 62
7
100
AcDbSpline
 70
8
 71
3
 72
8
 73
4
 74
0
 40
0
 40
0
 40
0
 40
0
 40
1
 40
1
 40
1
 40
1
 10
146.900366
 20
389.894326
 30
0.0
 10
148.435883
 20
390.781508
 30
0.0
 10
149.381004
 20
392.420908
 30
0.0
 10
149.379315
 20
394.194295
 30
0.0
  0
LWPOLYLINE
  5
159
100
AcDbEntity
  8
0
 62
7
100
AcDbPolyline
 90
1
 70
1
 10
74.309902
 20
523.932992
 30
0.0
  0
SPLINE
  5
15a
100
AcDbEntity
  8
0
 62
7
100
AcDbSpline
 70
8
 71
3
 72
8
 73
4
 74
0
 40
0
 40
0
 40
0
 40
0
 40
1
 40
1
 40
1
 40
1
 10
149.684640
 20
122.351972
 30
0.0
 10
149.684640
 20
124.124235
 30
0.0
 10
148.739149
 20
125.761874
 30
0.0
 10
147.204324
 20
126.648005
 30
0.0
  0
SPLINE
  5
15b
100
AcDbEntity
  8
0
 62
7
100
AcDbSpline
 70
8
 71
3
 72
8
 73
4
 74
0
 40
0
 40
0
 40
0
 40
0
 40
1
 40
1
 40
1
 40
1
 10
147.204324
 20
126.648005
 30
0.0
 10
145.669500
 20
127.534136
 30
0.0
 10
143.778518
 20
127.534136
 30
0.0
 10
142.243693
 20
126.648005
 30
0.0
  0
SPLINE
  5
15c
100
AcDbEntity
  8
0
 62
7
100
AcDbSpline
 70
8
 71
3
 72
8
 73
4
 74
0
 40
0
 40
0
 40
0
 40
0
 40
1
 40
1
 40
1
 40
1
 10
142.243693
 20
126.648005
 30
0.0
 10
140.708868
 20
125.761874
 30
0.0
 10
139.763377
 20
124.124235
 30
0.0
 10
139.763377
 20
122.351972
 30
0.0
  0
SPLINE
  5
15d
100
AcDbEntity
  8
0
 62
7
100
AcDbSpline
 70
8
 71
3
 72
8
 73
4
 74
0
 40
0
 40
0
 40
0
 40
0
 40
1
 40
1
 40
1
 40
1
 10
139.763377
 20
122.351972
 30
0.0
 10
139.763377
 20
120.579709
 30
0.0
 10
140.708868
 20
118.942071
 30
0.0
 10
142.243693
 20
118.055940
 30
0.0
  0
SPLINE
  5
15e
100
AcDbEntity
  8
0
 62
7
100
AcDbSpline
 70
8
 71
3
 72
8
 73
4
 74
0
 40
0
 40
0
 40
0
 40
0
 40
1
 40
1
 40
1
 40
1
 10
142.243693
 20
118.055940
 30
0.0
 10
143.778518
 20
117.169808
 30
0.0
 10
145.669500
 20
117.169808
 30
0.0
 10
147.204324
 20
118.055940
 30
0.0
  0
SPLINE
  5
15f
100
AcDbEntity
  8
0
 62
7
100
AcDbSpline
 70
8
 71
3
 72
8
 73
4
 74
0
 40
0
 40
0
 40
0
 40
0
 40
1
 40
1
 40
1
 40
1
 10
147.204324
 20
118.055940
 30
0.0
 10
148.739149
 20
118.942071
 30
0.0
 10
149.684640
 20
120.579709
 30
0.0
 10
149.684640
 20
122.351972
 30
0.0
  0
LWPOLYLINE
  5
160
100
AcDbEntity
  8
0
 62
7
100
AcDbPolyline
 90
1
 70
1
 10
149.379315
 20
394.194295
 30
0.0
  0
SPLINE
  5
161
100
AcDbEntity
  8
0
 62
7
100
AcDbSpline
 70
8
 71
3
 72
8
 73
4
 74
0
 40
0
 40
0
 40
0
 40
0
 40
1
 40
1
 40
1
 40
1
 10
328.871730
 20
106.475147
 30
0.0
 10
328.873293
 20
108.754812
 30
0.0
 10
327.658005
 20
110.861978
 30
0.0
 10
325.684018
 20
112.002261
 30
0.0
  0
SPLINE
  5
162
100
AcDbEntity
  8
0
 62
7
100
AcDbSpline
 70
8
 71
3
 72
8
 73
4
 74
0
 40
0
 40
0
 40
0
 40
0
 40
1
 40
1
 40
1
 40
1
 10
325.684018
 20
112.002261
 30
0.0
 10
323.710031
 20
113.142545
 30
0.0
 10
321.277527
 20
113.142545
 30
0.0
 10
319.303540
 20
112.002261
 30
0.0
  0
SPLINE
  5
163
100
AcDbEntity
  8
0
 62
7
100
AcDbSpline
 70
8
 71
3
 72
8
 73
4
 74
0
 40
0
 40
0
 40
0
 40
0
 40
1
 40
1
 40
1
 40
1
 10
319.303540
 20
112.002261
 30
0.0
 10
317.329553
 20
110.861978
 30
0.0
 10
316.114264
 20
108.754812
 30
0.0
 10
316.115827
 20
106.475147
 30
0.0
  0
SPLINE
  5
164
100
AcDbEntity
  8
0
 62
7
100
AcDbSpline
 70
8
 71
3
 72
8
 73
4
 74
0
 40
0
 40
0
 40
0
 40
0
 40
1
 40
1
 40
1
 40
1
 10
316.115827
 20
106.475147
 30
0.0
 10
316.114264
 20
104.195483
 30
0.0
 10
317.329553
 20
102.088317
 30
0.0
 10
319.303540
 20
100.948033
 30
0.0
  0
SPLINE
  5
165
100
AcDbEntity
  8
0
 62
7
100
AcDbSpline
 70
8
 71
3
 72
8
 73
4
 74
0
 40
0
 40
0
 40
0
 40
0
 40
1
 40
1
 40
1
 40
1
 10
319.303540
 20
100.948033
 30
0.0
 10
321.277527
 20
99.807749
 30
0.0
 10
323.710031
 20
99.807749
 30
0.0
 10
325.684018
 20
100.948033
 30
0.0
  0
SPLINE
  5
166
100
AcDbEntity
  8
0
 62
7
100
AcDbSpline
 70
8
 71
3
 72
8
 73
4
 74
0
 40
0
 40
0
 40
0
 40
0
 40
1
 40
1
 40
1
 40
1
 10
325.684018
 20
100.948033
 30
0.0
 10
327.658005
 20
102.088317
 30
0.0
 10
328.873293
 20
104.195483
 30
0.0
 10
328.871730
 20
106.475147
 30
0.0
  0
LWPOLYLINE
  5
167
100
AcDbEntity
  8
0
 62
7
100
AcDbPolyline
 90
1
 70
1
 10
149.684640
 20
122.351972
 30
0.0
  0
SPLINE
  5
168
100
AcDbEntity
  8
0
 62
7
100
AcDbSpline
 70
8
 71
3
 72
8
 73
4
 74
0
 40
0
 40
0
 40
0
 40
0
 40
1
 40
1
 40
1
 40
1
 10
328.871730
 20
193.640462
 30
0.0
 10
328.873293
 20
195.920127
 30
0.0
 10
327.658005
 20
198.027293
 30
0.0
 10
325.684018
 20
199.167576
 30
0.0
  0
SPLINE
  5
169
100
AcDbEntity
  8
0
 62
7
100
AcDbSpline
 70
8
 71
3
 72
8
 73
4
 74
0
 40
0
 40
0
 40
0
 40
0
 40
1
 40
1
 40
1
 40
1
 10
325.684018
 20
199.167576
 30
0.0
 10
323.710031
 20
200.307860
 30
0.0
 10
321.277527
 20
200.307860
 30
0.0
 10
319.303540
 20
199.167576
 30
0.0
  0
SPLINE
  5
16a
100
AcDbEntity
  8
0
 62
7
100
AcDbSpline
 70
8
 71
3
 72
8
 73
4
 74
0
 40
0
 40
0
 40
0
 40
0
 40
1
 40
1
 40
1
 40
1
 10
319.303540
 20
199.167576
 30
0.0
 10
317.329553
 20
198.027293
 30
0.0
 10
316.114264
 20
195.920127
 30
0.0
 10
316.115827
 20
193.640462
 30
0.0
  0
SPLINE
  5
16b
100
AcDbEntity
  8
0
 62
7
100
AcDbSpline
 70
8
 71
3
 72
8
 73
4
 74
0
 40
0
 40
0
 40
0
 40
0
 40
1
 40
1
 40
1
 40
1
 10
316.115827
 20
193.640462
 30
0.0
 10
316.114264
 20
191.360798
 30
0.0
 10
317.329553
 20
189.253632
 30
0.0
 10
319.303540
 20
188.113348
 30
0.0
  0
SPLINE
  5
16c
100
AcDbEntity
  8
0
 62
7
100
AcDbSpline
 70
8
 71
3
 72
8
 73
4
 74
0
 40
0
 40
0
 40
0
 40
0
 40
1
 40
1
 40
1
 40
1
 10
319.303540
 20
188.113348
 30
0.0
 10
321.277527
 20
186.973064
 30
0.0
 10
323.710031
 20
186.973064
 30
0.0
 10
325.684018
 20
188.113348
 30
0.0
  0
SPLINE
  5
16d
100
AcDbEntity
  8
0
 62
7
100
AcDbSpline
 70
8
 71
3
 72
8
 73
4
 74
0
 40
0
 40
0
 40
0
 40
0
 40
1
 40
1
 40
1
 40
1
 10
325.684018
 20
188.113348
 30
0.0
 10
327.658005
 20
189.253632
 30
0.0
 10
328.873293
 20
191.360798
 30
0.0
 10
328.871730
 20
193.640462
 30
0.0
  0
LWPOLYLINE
  5
16e
100
AcDbEntity
  8
0
 62
7
100
AcDbPolyline
 90
1
 70
1
 10
328.871730
 20
106.475147
 30
0.0
  0
SPLINE
  5
16f
100
AcDbEntity
  8
0
 62
7
100
AcDbSpline
 70
8
 71
3
 72
8
 73
4
 74
0
 40
0
 40
0
 40
0
 40
0
 40
1
 40
1
 40
1
 40
1
 10
276.317790
 20
551.561942
 30
0.0
 10
276.317790
 20
552.929117
 30
0.0
 10
275.588411
 20
554.192439
 30
0.0
 10
274.404403
 20
554.876026
 30
0.0
  0
SPLINE
  5
170
100
AcDbEntity
  8
0
 62
7
100
AcDbSpline
 70
8
 71
3
 72
8
 73
4
 74
0
 40
0
 40
0
 40
0
 40
0
 40
1
 40
1
 40
1
 40
1
 10
274.404403
 20
554.876026
 30
0.0
 10
273.220395
 20
555.559613
 30
0.0
 10
271.761637
 20
555.559613
 30
0.0
 10
270.577629
 20
554.876026
 30
0.0
  0
SPLINE
  5
171
100
AcDbEntity
  8
0
 62
7
100
AcDbSpline
 70
8
 71
3
 72
8
 73
4
 74
0
 40
0
 40
0
 40
0
 40
0
 40
1
 40
1
 40
1
 40
1
 10
270.577629
 20
554.876026
 30
0.0
 10
269.393621
 20
554.192439
 30
0.0
 10
268.664242
 20
552.929117
 30
0.0
 10
268.664243
 20
551.561942
 30
0.0
  0
SPLINE
  5
172
100
AcDbEntity
  8
0
 62
7
100
AcDbSpline
 70
8
 71
3
 72
8
 73
4
 74
0
 40
0
 40
0
 40
0
 40
0
 40
1
 40
1
 40
1
 40
1
 10
268.664243
 20
551.561942
 30
0.0
 10
268.664243
 20
550.194768
 30
0.0
 10
269.393621
 20
548.931446
 30
0.0
 10
270.577629
 20
548.247859
 30
0.0
  0
SPLINE
  5
173
100
AcDbEntity
  8
0
 62
7
100
AcDbSpline
 70
8
 71
3
 72
8
 73
4
 74
0
 40
0
 40
0
 40
0
 40
0
 40
1
 40
1
 40
1
 40
1
 10
270.577629
 20
548.247859
 30
0.0
 10
271.761637
 20
547.564272
 30
0.0
 10
273.220395
 20
547.564272
 30
0.0
 10
274.404403
 20
548.247859
 30
0.0
  0
SPLINE
  5
174
100
AcDbEntity
  8
0
 62
7
100
AcDbSpline
 70
8
 71
3
 72
8
 73
4
 74
0
 40
0
 40
0
 40
0
 40
0
 40
1
 40
1
 40
1
 40
1
 10
274.404403
 20
548.247859
 30
0.0
 10
275.588411
 20
548.931446
 30
0.0
 10
276.317790
 20
550.194768
 30
0.0
 10
276.317790
 20
551.561942
 30
0.0
  0
LWPOLYLINE
  5
175
100
AcDbEntity
  8
0
 62
7
100
AcDbPolyline
 90
1
 70
1
 10
328.871730
 20
193.640462
 30
0.0
  0
SPLINE
  5
176
100
AcDbEntity
  8
0
 62
7
100
AcDbSpline
 70
8
 71
3
 72
8
 73
4
 74
0
 40
0
 40
0
 40
0
 40
0
 40
1
 40
1
 40
1
 40
1
 10
440.727240
 20
551.561942
 30
0.0
 10
440.727240
 20
552.929117
 30
0.0
 10
439.997861
 20
554.192438
 30
0.0
 10
438.813853
 20
554.876026
 30
0.0
  0
SPLINE
  5
177
100
AcDbEntity
  8
0
 62
7
100
AcDbSpline
 70
8
 71
3
 72
8
 73
4
 74
0
 40
0
 40
0
 40
0
 40
0
 40
1
 40
1
 40
1
 40
1
 10
438.813853
 20
554.876026
 30
0.0
 10
437.629845
 20
555.559613
 30
0.0
 10
436.171087
 20
555.559613
 30
0.0
 10
434.987079
 20
554.876026
 30
0.0
  0
SPLINE
  5
178
100
AcDbEntity
  8
0
 62
7
100
AcDbSpline
 70
8
 71
3
 72
8
 73
4
 74
0
 40
0
 40
0
 40
0
 40
0
 40
1
 40
1
 40
1
 40
1
 10
434.987079
 20
554.876026
 30
0.0
 10
433.803071
 20
554.192438
 30
0.0
 10
433.073692
 20
552.929117
 30
0.0
 10
433.073692
 20
551.561942
 30
0.0
  0
SPLINE
  5
179
100
AcDbEntity
  8
0
 62
7
100
AcDbSpline
 70
8
 71
3
 72
8
 73
4
 74
0
 40
0
 40
0
 40
0
 40
0
 40
1
 40
1
 40
1
 40
1
 10
433.073692
 20
551.561942
 30
0.0
 10
433.073692
 20
550.194768
 30
0.0
 10
433.803071
 20
548.931446
 30
0.0
 10
434.987079
 20
548.247859
 30
0.0
  0
SPLINE
  5
17a
100
AcDbEntity
  8
0
 62
7
100
AcDbSpline
 70
8
 71
3
 72
8
 73
4
 74
0
 40
0
 40
0
 40
0
 40
0
 40
1
 40
1
 40
1
 40
1
 10
434.987079
 20
548.247859
 30
0.0
 10
436.171087
 20
547.564272
 30
0.0
 10
437.629845
 20
547.564272
 30
0.0
 10
438.813853
 20
548.247859
 30
0.0
  0
SPLINE
  5
17b
100
AcDbEntity
  8
0
 62
7
100
AcDbSpline
 70
8
 71
3
 72
8
 73
4
 74
0
 40
0
 40
0
 40
0
 40
0
 40
1
 40
1
 40
1
 40
1
 10
438.813853
 20
548.247859
 30
0.0
 10
439.997861
 20
548.931446
 30
0.0
 10
440.727240
 20
550.194768
 30
0.0
 10
440.727240
 20
551.561942
 30
0.0
  0
LWPOLYLINE
  5
17c
100
AcDbEntity
  8
0
 62
7
100
AcDbPolyline
 90
1
 70
1
 10
276.317790
 20
551.561942
 30
0.0
  0
SPLINE
  5
17d
100
AcDbEntity
  8
0
 62
7
100
AcDbSpline
 70
8
 71
3
 72
8
 73
4
 74
0
 40
0
 40
0
 40
0
 40
0
 40
1
 40
1
 40
1
 40
1
 10
440.727240
 20
412.664305
 30
0.0
 10
440.727240
 20
414.031479
 30
0.0
 10
439.997861
 20
415.294801
 30
0.0
 10
438.813853
 20
415.978388
 30
0.0
  0
SPLINE
  5
17e
100
AcDbEntity
  8
0
 62
7
100
AcDbSpline
 70
8
 71
3
 72
8
 73
4
 74
0
 40
0
 40
0
 40
0
 40
0
 40
1
 40
1
 40
1
 40
1
 10
438.813853
 20
415.978388
 30
0.0
 10
437.629845
 20
416.661975
 30
0.0
 10
436.171087
 20
416.661975
 30
0.0
 10
434.987079
 20
415.978388
 30
0.0
  0
SPLINE
  5
17f
100
AcDbEntity
  8
0
 62
7
100
AcDbSpline
 70
8
 71
3
 72
8
 73
4
 74
0
 40
0
 40
0
 40
0
 40
0
 40
1
 40
1
 40
1
 40
1
 10
434.987079
 20
415.978388
 30
0.0
 10
433.803071
 20
415.294801
 30
0.0
 10
433.073692
 20
414.031479
 30
0.0
 10
433.073692
 20
412.664305
 30
0.0
  0
SPLINE
  5
180
100
AcDbEntity
  8
0
 62
7
100
AcDbSpline
 70
8
 71
3
 72
8
 73
4
 74
0
 40
0
 40
0
 40
0
 40
0
 40
1
 40
1
 40
1
 40
1
 10
433.073692
 20
412.664305
 30
0.0
 10
433.073692
 20
411.297130
 30
0.0
 10
433.803071
 20
410.033809
 30
0.0
 10
434.987079
 20
409.350221
 30
0.0
  0
SPLINE
  5
181
100
AcDbEntity
  8
0
 62
7
100
AcDbSpline
 70
8
 71
3
 72
8
 73
4
 74
0
 40
0
 40
0
 40
0
 40
0
 40
1
 40
1
 40
1
 40
1
 10
434.987079
 20
409.350221
 30
0.0
 10
436.171087
 20
408.666634
 30
0.0
 10
437.629845
 20
408.666634
 30
0.0
 10
438.813853
 20
409.350221
 30
0.0
  0
SPLINE
  5
182
100
AcDbEntity
  8
0
 62
7
100
AcDbSpline
 70
8
 71
3
 72
8
 73
4
 74
0
 40
0
 40
0
 40
0
 40
0
 40
1
 40
1
 40
1
 40
1
 10
438.813853
 20
409.350221
 30
0.0
 10
439.997861
 20
410.033809
 30
0.0
 10
440.727240
 20
411.297130
 30
0.0
 10
440.727240
 20
412.664305
 30
0.0
  0
LWPOLYLINE
  5
183
100
AcDbEntity
  8
0
 62
7
100
AcDbPolyline
 90
1
 70
1
 10
440.727240
 20
551.561942
 30
0.0
  0
SPLINE
  5
184
100
AcDbEntity
  8
0
 62
7
100
AcDbSpline
 70
8
 71
3
 72
8
 73
4
 74
0
 40
0
 40
0
 40
0
 40
0
 40
1
 40
1
 40
1
 40
1
 10
276.317790
 20
412.664305
 30
0.0
 10
276.317790
 20
414.031479
 30
0.0
 10
275.588411
 20
415.294801
 30
0.0
 10
274.404403
 20
415.978388
 30
0.0
  0
SPLINE
  5
185
100
AcDbEntity
  8
0
 62
7
100
AcDbSpline
 70
8
 71
3
 72
8
 73
4
 74
0
 40
0
 40
0
 40
0
 40
0
 40
1
 40
1
 40
1
 40
1
 10
274.404403
 20
415.978388
 30
0.0
 10
273.220395
 20
416.661976
 30
0.0
 10
271.761637
 20
416.661976
 30
0.0
 10
270.577629
 20
415.978388
 30
0.0
  0
SPLINE
  5
186
100
AcDbEntity
  8
0
 62
7
100
AcDbSpline
 70
8
 71
3
 72
8
 73
4
 74
0
 40
0
 40
0
 40
0
 40
0
 40
1
 40
1
 40
1
 40
1
 10
270.577629
 20
415.978388
 30
0.0
 10
269.393621
 20
415.294801
 30
0.0
 10
268.664242
 20
414.031479
 30
0.0
 10
268.664243
 20
412.664305
 30
0.0
  0
SPLINE
  5
187
100
AcDbEntity
  8
0
 62
7
100
AcDbSpline
 70
8
 71
3
 72
8
 73
4
 74
0
 40
0
 40
0
 40
0
 40
0
 40
1
 40
1
 40
1
 40
1
 10
268.664243
 20
412.664305
 30
0.0
 10
268.664243
 20
411.297130
 30
0.0
 10
269.393621
 20
410.033809
 30
0.0
 10
270.577629
 20
409.350221
 30
0.0
  0
SPLINE
  5
188
100
AcDbEntity
  8
0
 62
7
100
AcDbSpline
 70
8
 71
3
 72
8
 73
4
 74
0
 40
0
 40
0
 40
0
 40
0
 40
1
 40
1
 40
1
 40
1
 10
270.577629
 20
409.350221
 30
0.0
 10
271.761637
 20
408.666634
 30
0.0
 10
273.220395
 20
408.666634
 30
0.0
 10
274.404403
 20
409.350221
 30
0.0
  0
SPLINE
  5
189
100
AcDbEntity
  8
0
 62
7
100
AcDbSpline
 70
8
 71
3
 72
8
 73
4
 74
0
 40
0
 40
0
 40
0
 40
0
 40
1
 40
1
 40
1
 40
1
 10
274.404403
 20
409.350221
 30
0.0
 10
275.588411
 20
410.033809
 30
0.0
 10
276.317790
 20
411.297130
 30
0.0
 10
276.317790
 20
412.664305
 30
0.0
  0
LWPOLYLINE
  5
18a
100
AcDbEntity
  8
0
 62
7
100
AcDbPolyline
 90
1
 70
1
 10
440.727240
 20
412.664305
 30
0.0
  0
SPLINE
  5
18b
100
AcDbEntity
  8
0
 62
7
100
AcDbSpline
 70
8
 71
3
 72
8
 73
4
 74
0
 40
0
 40
0
 40
0
 40
0
 40
1
 40
1
 40
1
 40
1
 10
442.926398
 20
241.380550
 30
0.0
 10
442.927503
 20
242.900368
 30
0.0
 10
442.117325
 20
244.305211
 30
0.0
 10
440.801307
 20
245.065440
 30
0.0
  0
SPLINE
  5
18c
100
AcDbEntity
  8
0
 62
7
100
AcDbSpline
 70
8
 71
3
 72
8
 73
4
 74
0
 40
0
 40
0
 40
0
 40
0
 40
1
 40
1
 40
1
 40
1
 10
440.801307
 20
245.065440
 30
0.0
 10
439.485290
 20
245.825669
 30
0.0
 10
437.863570
 20
245.825669
 30
0.0
 10
436.547553
 20
245.065440
 30
0.0
  0
SPLINE
  5
18d
100
AcDbEntity
  8
0
 62
7
100
AcDbSpline
 70
8
 71
3
 72
8
 73
4
 74
0
 40
0
 40
0
 40
0
 40
0
 40
1
 40
1
 40
1
 40
1
 10
436.547553
 20
245.065440
 30
0.0
 10
435.231535
 20
244.305211
 30
0.0
 10
434.421357
 20
242.900368
 30
0.0
 10
434.422463
 20
241.380550
 30
0.0
  0
SPLINE
  5
18e
100
AcDbEntity
  8
0
 62
7
100
AcDbSpline
 70
8
 71
3
 72
8
 73
4
 74
0
 40
0
 40
0
 40
0
 40
0
 40
1
 40
1
 40
1
 40
1
 10
434.422463
 20
241.380550
 30
0.0
 10
434.421357
 20
239.860731
 30
0.0
 10
435.231535
 20
238.455888
 30
0.0
 10
436.547553
 20
237.695659
 30
0.0
  0
SPLINE
  5
18f
100
AcDbEntity
  8
0
 62
7
100
AcDbSpline
 70
8
 71
3
 72
8
 73
4
 74
0
 40
0
 40
0
 40
0
 40
0
 40
1
 40
1
 40
1
 40
1
 10
436.547553
 20
237.695659
 30
0.0
 10
437.863570
 20
236.935431
 30
0.0
 10
439.485290
 20
236.935431
 30
0.0
 10
440.801307
 20
237.695659
 30
0.0
  0
SPLINE
  5
190
100
AcDbEntity
  8
0
 62
7
100
AcDbSpline
 70
8
 71
3
 72
8
 73
4
 74
0
 40
0
 40
0
 40
0
 40
0
 40
1
 40
1
 40
1
 40
1
 10
440.801307
 20
237.695659
 30
0.0
 10
442.117325
 20
238.455888
 30
0.0
 10
442.927503
 20
239.860731
 30
0.0
 10
442.926398
 20
241.380550
 30
0.0
  0
LWPOLYLINE
  5
191
100
AcDbEntity
  8
0
 62
7
100
AcDbPolyline
 90
1
 70
1
 10
276.317790
 20
412.664305
 30
0.0
  0
SPLINE
  5
192
100
AcDbEntity
  8
0
 62
7
100
AcDbSpline
 70
8
 71
3
 72
8
 73
4
 74
0
 40
0
 40
0
 40
0
 40
0
 40
1
 40
1
 40
1
 40
1
 10
569.918528
 20
241.380550
 30
0.0
 10
569.918528
 20
242.899633
 30
0.0
 10
569.108106
 20
244.303323
 30
0.0
 10
567.792542
 20
245.062865
 30
0.0
  0
SPLINE
  5
193
100
AcDbEntity
  8
0
 62
7
100
AcDbSpline
 70
8
 71
3
 72
8
 73
4
 74
0
 40
0
 40
0
 40
0
 40
0
 40
1
 40
1
 40
1
 40
1
 10
567.792542
 20
245.062865
 30
0.0
 10
566.476977
 20
245.822406
 30
0.0
 10
564.856135
 20
245.822406
 30
0.0
 10
563.540571
 20
245.062865
 30
0.0
  0
SPLINE
  5
194
100
AcDbEntity
  8
0
 62
7
100
AcDbSpline
 70
8
 71
3
 72
8
 73
4
 74
0
 40
0
 40
0
 40
0
 40
0
 40
1
 40
1
 40
1
 40
1
 10
563.540571
 20
245.062865
 30
0.0
 10
562.225006
 20
244.303323
 30
0.0
 10
561.414585
 20
242.899633
 30
0.0
 10
561.414585
 20
241.380550
 30
0.0
  0
SPLINE
  5
195
100
AcDbEntity
  8
0
 62
7
100
AcDbSpline
 70
8
 71
3
 72
8
 73
4
 74
0
 40
0
 40
0
 40
0
 40
0
 40
1
 40
1
 40
1
 40
1
 10
561.414585
 20
241.380550
 30
0.0
 10
561.414585
 20
239.861467
 30
0.0
 10
562.225006
 20
238.457776
 30
0.0
 10
563.540571
 20
237.698235
 30
0.0
  0
SPLINE
  5
196
100
AcDbEntity
  8
0
 62
7
100
AcDbSpline
 70
8
 71
3
 72
8
 73
4
 74
0
 40
0
 40
0
 40
0
 40
0
 40
1
 40
1
 40
1
 40
1
 10
563.540571
 20
237.698235
 30
0.0
 10
564.856135
 20
236.938693
 30
0.0
 10
566.476977
 20
236.938693
 30
0.0
 10
567.792542
 20
237.698235
 30
0.0
  0
SPLINE
  5
197
100
AcDbEntity
  8
0
 62
7
100
AcDbSpline
 70
8
 71
3
 72
8
 73
4
 74
0
 40
0
 40
0
 40
0
 40
0
 40
1
 40
1
 40
1
 40
1
 10
567.792542
 20
237.698235
 30
0.0
 10
569.108106
 20
238.457776
 30
0.0
 10
569.918528
 20
239.861467
 30
0.0
 10
569.918528
 20
241.380550
 30
0.0
  0
LWPOLYLINE
  5
198
100
AcDbEntity
  8
0
 62
7
100
AcDbPolyline
 90
1
 70
1
 10
442.926398
 20
241.380550
 30
0.0
  0
SPLINE
  5
199
100
AcDbEntity
  8
0
 62
7
100
AcDbSpline
 70
8
 71
3
 72
8
 73
4
 74
0
 40
0
 40
0
 40
0
 40
0
 40
1
 40
1
 40
1
 40
1
 10
569.918528
 20
114.388397
 30
0.0
 10
569.918528
 20
115.907480
 30
0.0
 10
569.108106
 20
117.311171
 30
0.0
 10
567.792542
 20
118.070712
 30
0.0
  0
SPLINE
  5
19a
100
AcDbEntity
  8
0
 62
7
100
AcDbSpline
 70
8
 71
3
 72
8
 73
4
 74
0
 40
0
 40
0
 40
0
 40
0
 40
1
 40
1
 40
1
 40
1
 10
567.792542
 20
118.070712
 30
0.0
 10
566.476977
 20
118.830254
 30
0.0
 10
564.856135
 20
118.830254
 30
0.0
 10
563.540571
 20
118.070712
 30
0.0
  0
SPLINE
  5
19b
100
AcDbEntity
  8
0
 62
7
100
AcDbSpline
 70
8
 71
3
 72
8
 73
4
 74
0
 40
0
 40
0
 40
0
 40
0
 40
1
 40
1
 40
1
 40
1
 10
563.540571
 20
118.070712
 30
0.0
 10
562.225006
 20
117.311171
 30
0.0
 10
561.414585
 20
115.907480
 30
0.0
 10
561.414585
 20
114.388397
 30
0.0
  0
SPLINE
  5
19c
100
AcDbEntity
  8
0
 62
7
100
AcDbSpline
 70
8
 71
3
 72
8
 73
4
 74
0
 40
0
 40
0
 40
0
 40
0
 40
1
 40
1
 40
1
 40
1
 10
561.414585
 20
114.388397
 30
0.0
 10
561.414585
 20
112.869314
 30
0.0
 10
562.225006
 20
111.465624
 30
0.0
 10
563.540571
 20
110.706082
 30
0.0
  0
SPLINE
  5
19d
100
AcDbEntity
  8
0
 62
7
100
AcDbSpline
 70
8
 71
3
 72
8
 73
4
 74
0
 40
0
 40
0
 40
0
 40
0
 40
1
 40
1
 40
1
 40
1
 10
563.540571
 20
110.706082
 30
0.0
 10
564.856135
 20
109.946541
 30
0.0
 10
566.476977
 20
109.946541
 30
0.0
 10
567.792542
 20
110.706082
 30
0.0
  0
SPLINE
  5
19e
100
AcDbEntity
  8
0
 62
7
100
AcDbSpline
 70
8
 71
3
 72
8
 73
4
 74
0
 40
0
 40
0
 40
0
 40
0
 40
1
 40
1
 40
1
 40
1
 10
567.792542
 20
110.706082
 30
0.0
 10
569.108106
 20
111.465624
 30
0.0
 10
569.918528
 20
112.869314
 30
0.0
 10
569.918528
 20
114.388397
 30
0.0
  0
LWPOLYLINE
  5
19f
100
AcDbEntity
  8
0
 62
7
100
AcDbPolyline
 90
1
 70
1
 10
569.918528
 20
241.380550
 30
0.0
  0
SPLINE
  5
1a0
100
AcDbEntity
  8
0
 62
7
100
AcDbSpline
 70
8
 71
3
 72
8
 73
4
 74
0
 40
0
 40
0
 40
0
 40
0
 40
1
 40
1
 40
1
 40
1
 10
442.926398
 20
114.388397
 30
0.0
 10
442.927503
 20
115.908216
 30
0.0
 10
442.117325
 20
117.313059
 30
0.0
 10
440.801307
 20
118.073288
 30
0.0
  0
SPLINE
  5
1a1
100
AcDbEntity
  8
0
 62
7
100
AcDbSpline
 70
8
 71
3
 72
8
 73
4
 74
0
 40
0
 40
0
 40
0
 40
0
 40
1
 40
1
 40
1
 40
1
 10
440.801307
 20
118.073288
 30
0.0
 10
439.485290
 20
118.833516
 30
0.0
 10
437.863570
 20
118.833516
 30
0.0
 10
436.547553
 20
118.073288
 30
0.0
  0
SPLINE
  5
1a2
100
AcDbEntity
  8
0
 62
7
100
AcDbSpline
 70
8
 71
3
 72
8
 73
4
 74
0
 40
0
 40
0
 40
0
 40
0
 40
1
 40
1
 40
1
 40
1
 10
436.547553
 20
118.073288
 30
0.0
 10
435.231535
 20
117.313059
 30
0.0
 10
434.421357
 20
115.908216
 30
0.0
 10
434.422463
 20
114.388397
 30
0.0
  0
SPLINE
  5
1a3
100
AcDbEntity
  8
0
 62
7
100
AcDbSpline
 70
8
 71
3
 72
8
 73
4
 74
0
 40
0
 40
0
 40
0
 40
0
 40
1
 40
1
 40
1
 40
1
 10
434.422463
 20
114.388397
 30
0.0
 10
434.421357
 20
112.868579
 30
0.0
 10
435.231535
 20
111.463736
 30
0.0
 10
436.547553
 20
110.703507
 30
0.0
  0
SPLINE
  5
1a4
100
AcDbEntity
  8
0
 62
7
100
AcDbSpline
 70
8
 71
3
 72
8
 73
4
 74
0
 40
0
 40
0
 40
0
 40
0
 40
1
 40
1
 40
1
 40
1
 10
436.547553
 20
110.703507
 30
0.0
 10
437.863570
 20
109.943278
 30
0.0
 10
439.485290
 20
109.943278
 30
0.0
 10
440.801307
 20
110.703507
 30
0.0
  0
SPLINE
  5
1a5
100
AcDbEntity
  8
0
 62
7
100
AcDbSpline
 70
8
 71
3
 72
8
 73
4
 74
0
 40
0
 40
0
 40
0
 40
0
 40
1
 40
1
 40
1
 40
1
 10
440.801307
 20
110.703507
 30
0.0
 10
442.117325
 20
111.463736
 30
0.0
 10
442.927503
 20
112.868579
 30
0.0
 10
442.926398
 20
114.388397
 30
0.0
  0
LWPOLYLINE
  5
1a6
100
AcDbEntity
  8
0
 62
7
100
AcDbPolyline
 90
1
 70
1
 10
569.918528
 20
114.388397
 30
0.0
  0
SPLINE
  5
1a7
100
AcDbEntity
  8
0
 62
7
100
AcDbSpline
 70
8
 71
3
 72
8
 73
4
 74
0
 40
0
 40
0
 40
0
 40
0
 40
1
 40
1
 40
1
 40
1
 10
535.619310
 20
177.884492
 30
0.0
 10
535.619310
 20
189.834604
 30
0.0
 10
529.244001
 20
200.876963
 30
0.0
 10
518.894901
 20
206.852019
 30
0.0
  0
SPLINE
  5
1a8
100
AcDbEntity
  8
0
 62
7
100
AcDbSpline
 70
8
 71
3
 72
8
 73
4
 74
0
 40
0
 40
0
 40
0
 40
0
 40
1
 40
1
 40
1
 40
1
 10
518.894901
 20
206.852019
 30
0.0
 10
508.545800
 20
212.827075
 30
0.0
 10
495.795182
 20
212.827075
 30
0.0
 10
485.446082
 20
206.852019
 30
0.0
  0
SPLINE
  5
1a9
100
AcDbEntity
  8
0
 62
7
100
AcDbSpline
 70
8
 71
3
 72
8
 73
4
 74
0
 40
0
 40
0
 40
0
 40
0
 40
1
 40
1
 40
1
 40
1
 10
485.446082
 20
206.852019
 30
0.0
 10
475.096981
 20
200.876963
 30
0.0
 10
468.721672
 20
189.834604
 30
0.0
 10
468.721672
 20
177.884492
 30
0.0
  0
SPLINE
  5
1aa
100
AcDbEntity
  8
0
 62
7
100
AcDbSpline
 70
8
 71
3
 72
8
 73
4
 74
0
 40
0
 40
0
 40
0
 40
0
 40
1
 40
1
 40
1
 40
1
 10
468.721672
 20
177.884492
 30
0.0
 10
468.721672
 20
165.934380
 30
0.0
 10
475.096981
 20
154.892021
 30
0.0
 10
485.446082
 20
148.916965
 30
0.0
  0
SPLINE
  5
1ab
100
AcDbEntity
  8
0
 62
7
100
AcDbSpline
 70
8
 71
3
 72
8
 73
4
 74
0
 40
0
 40
0
 40
0
 40
0
 40
1
 40
1
 40
1
 40
1
 10
485.446082
 20
148.916965
 30
0.0
 10
495.795182
 20
142.941910
 30
0.0
 10
508.545800
 20
142.941910
 30
0.0
 10
518.894901
 20
148.916965
 30
0.0
  0
SPLINE
  5
1ac
100
AcDbEntity
  8
0
 62
7
100
AcDbSpline
 70
8
 71
3
 72
8
 73
4
 74
0
 40
0
 40
0
 40
0
 40
0
 40
1
 40
1
 40
1
 40
1
 10
518.894901
 20
148.916965
 30
0.0
 10
529.244001
 20
154.892021
 30
0.0
 10
535.619310
 20
165.934380
 30
0.0
 10
535.619310
 20
177.884492
 30
0.0
  0
LWPOLYLINE
  5
1ad
100
AcDbEntity
  8
0
 62
7
100
AcDbPolyline
 90
1
 70
1
 10
442.926398
 20
114.388397
 30
0.0
  0
SPLINE
  5
1ae
100
AcDbEntity
  8
0
 62
7
100
AcDbSpline
 70
8
 71
3
 72
8
 73
4
 74
0
 40
0
 40
0
 40
0
 40
0
 40
1
 40
1
 40
1
 40
1
 10
533.493330
 20
211.900240
 30
0.0
 10
533.493330
 20
213.469958
 30
0.0
 10
532.655895
 20
214.920438
 30
0.0
 10
531.296479
 20
215.705298
 30
0.0
  0
SPLINE
  5
1af
100
AcDbEntity
  8
0
 62
7
100
AcDbSpline
 70
8
 71
3
 72
8
 73
4
 74
0
 40
0
 40
0
 40
0
 40
0
 40
1
 40
1
 40
1
 40
1
 10
531.296479
 20
215.705298
 30
0.0
 10
529.937062
 20
216.490157
 30
0.0
 10
528.262193
 20
216.490157
 30
0.0
 10
526.902776
 20
215.705298
 30
0.0
  0
SPLINE
  5
1b0
100
AcDbEntity
  8
0
 62
7
100
AcDbSpline
 70
8
 71
3
 72
8
 73
4
 74
0
 40
0
 40
0
 40
0
 40
0
 40
1
 40
1
 40
1
 40
1
 10
526.902776
 20
215.705298
 30
0.0
 10
525.543360
 20
214.920438
 30
0.0
 10
524.705925
 20
213.469958
 30
0.0
 10
524.705925
 20
211.900240
 30
0.0
  0
SPLINE
  5
1b1
100
AcDbEntity
  8
0
 62
7
100
AcDbSpline
 70
8
 71
3
 72
8
 73
4
 74
0
 40
0
 40
0
 40
0
 40
0
 40
1
 40
1
 40
1
 40
1
 10
524.705925
 20
211.900240
 30
0.0
 10
524.705925
 20
210.330521
 30
0.0
 10
525.543360
 20
208.880041
 30
0.0
 10
526.902776
 20
208.095182
 30
0.0
  0
SPLINE
  5
1b2
100
AcDbEntity
  8
0
 62
7
100
AcDbSpline
 70
8
 71
3
 72
8
 73
4
 74
0
 40
0
 40
0
 40
0
 40
0
 40
1
 40
1
 40
1
 40
1
 10
526.902776
 20
208.095182
 30
0.0
 10
528.262193
 20
207.310322
 30
0.0
 10
529.937062
 20
207.310322
 30
0.0
 10
531.296479
 20
208.095182
 30
0.0
  0
SPLINE
  5
1b3
100
AcDbEntity
  8
0
 62
7
100
AcDbSpline
 70
8
 71
3
 72
8
 73
4
 74
0
 40
0
 40
0
 40
0
 40
0
 40
1
 40
1
 40
1
 40
1
 10
531.296479
 20
208.095182
 30
0.0
 10
532.655895
 20
208.880041
 30
0.0
 10
533.493330
 20
210.330521
 30
0.0
 10
533.493330
 20
211.900240
 30
0.0
  0
LWPOLYLINE
  5
1b4
100
AcDbEntity
  8
0
 62
7
100
AcDbPolyline
 90
1
 70
1
 10
535.619310
 20
177.884492
 30
0.0
  0
SPLINE
  5
1b5
100
AcDbEntity
  8
0
 62
7
100
AcDbSpline
 70
8
 71
3
 72
8
 73
4
 74
0
 40
0
 40
0
 40
0
 40
0
 40
1
 40
1
 40
1
 40
1
 10
479.635058
 20
143.868737
 30
0.0
 10
479.636647
 20
145.439514
 30
0.0
 10
478.799561
 20
146.891652
 30
0.0
 10
477.439493
 20
147.677499
 30
0.0
  0
SPLINE
  5
1b6
100
AcDbEntity
  8
0
 62
7
100
AcDbSpline
 70
8
 71
3
 72
8
 73
4
 74
0
 40
0
 40
0
 40
0
 40
0
 40
1
 40
1
 40
1
 40
1
 10
477.439493
 20
147.677499
 30
0.0
 10
476.079425
 20
148.463347
 30
0.0
 10
474.403293
 20
148.463347
 30
0.0
 10
473.043225
 20
147.677499
 30
0.0
  0
SPLINE
  5
1b7
100
AcDbEntity
  8
0
 62
7
100
AcDbSpline
 70
8
 71
3
 72
8
 73
4
 74
0
 40
0
 40
0
 40
0
 40
0
 40
1
 40
1
 40
1
 40
1
 10
473.043225
 20
147.677499
 30
0.0
 10
471.683157
 20
146.891652
 30
0.0
 10
470.846070
 20
145.439514
 30
0.0
 10
470.847660
 20
143.868737
 30
0.0
  0
SPLINE
  5
1b8
100
AcDbEntity
  8
0
 62
7
100
AcDbSpline
 70
8
 71
3
 72
8
 73
4
 74
0
 40
0
 40
0
 40
0
 40
0
 40
1
 40
1
 40
1
 40
1
 10
470.847660
 20
143.868737
 30
0.0
 10
470.846070
 20
142.297961
 30
0.0
 10
471.683157
 20
140.845823
 30
0.0
 10
473.043225
 20
140.059975
 30
0.0
  0
SPLINE
  5
1b9
100
AcDbEntity
  8
0
 62
7
100
AcDbSpline
 70
8
 71
3
 72
8
 73
4
 74
0
 40
0
 40
0
 40
0
 40
0
 40
1
 40
1
 40
1
 40
1
 10
473.043225
 20
140.059975
 30
0.0
 10
474.403293
 20
139.274128
 30
0.0
 10
476.079425
 20
139.274128
 30
0.0
 10
477.439493
 20
140.059975
 30
0.0
  0
SPLINE
  5
1ba
100
AcDbEntity
  8
0
 62
7
100
AcDbSpline
 70
8
 71
3
 72
8
 73
4
 74
0
 40
0
 40
0
 40
0
 40
0
 40
1
 40
1
 40
1
 40
1
 10
477.439493
 20
140.059975
 30
0.0
 10
478.799561
 20
140.845823
 30
0.0
 10
479.636647
 20
142.297961
 30
0.0
 10
479.635058
 20
143.868737
 30
0.0
  0
LWPOLYLINE
  5
1bb
100
AcDbEntity
  8
0
 62
7
100
AcDbPolyline
 90
1
 70
1
 10
533.493330
 20
211.900240
 30
0.0
  0
SPLINE
  5
1bc
100
AcDbEntity
  8
0
 62
7
100
AcDbSpline
 70
8
 71
3
 72
8
 73
4
 74
0
 40
0
 40
0
 40
0
 40
0
 40
1
 40
1
 40
1
 40
1
 10
602.472990
 20
75.730390
 30
0.0
 10
602.474553
 20
78.010054
 30
0.0
 10
601.259265
 20
80.117220
 30
0.0
 10
599.285278
 20
81.257504
 30
0.0
  0
SPLINE
  5
1bd
100
AcDbEntity
  8
0
 62
7
100
AcDbSpline
 70
8
 71
3
 72
8
 73
4
 74
0
 40
0
 40
0
 40
0
 40
0
 40
1
 40
1
 40
1
 40
1
 10
599.285278
 20
81.257504
 30
0.0
 10
597.311291
 20
82.397788
 30
0.0
 10
594.878787
 20
82.397788
 30
0.0
 10
592.904800
 20
81.257504
 30
0.0
  0
SPLINE
  5
1be
100
AcDbEntity
  8
0
 62
7
100
AcDbSpline
 70
8
 71
3
 72
8
 73
4
 74
0
 40
0
 40
0
 40
0
 40
0
 40
1
 40
1
 40
1
 40
1
 10
592.904800
 20
81.257504
 30
0.0
 10
590.930813
 20
80.117220
 30
0.0
 10
589.715524
 20
78.010054
 30
0.0
 10
589.717087
 20
75.730390
 30
0.0
  0
SPLINE
  5
1bf
100
AcDbEntity
  8
0
 62
7
100
AcDbSpline
 70
8
 71
3
 72
8
 73
4
 74
0
 40
0
 40
0
 40
0
 40
0
 40
1
 40
1
 40
1
 40
1
 10
589.717087
 20
75.730390
 30
0.0
 10
589.715524
 20
73.450725
 30
0.0
 10
590.930813
 20
71.343559
 30
0.0
 10
592.904800
 20
70.203276
 30
0.0
  0
SPLINE
  5
1c0
100
AcDbEntity
  8
0
 62
7
100
AcDbSpline
 70
8
 71
3
 72
8
 73
4
 74
0
 40
0
 40
0
 40
0
 40
0
 40
1
 40
1
 40
1
 40
1
 10
592.904800
 20
70.203276
 30
0.0
 10
594.878787
 20
69.062992
 30
0.0
 10
597.311291
 20
69.062992
 30
0.0
 10
599.285278
 20
70.203276
 30
0.0
  0
SPLINE
  5
1c1
100
AcDbEntity
  8
0
 62
7
100
AcDbSpline
 70
8
 71
3
 72
8
 73
4
 74
0
 40
0
 40
0
 40
0
 40
0
 40
1
 40
1
 40
1
 40
1
 10
599.285278
 20
70.203276
 30
0.0
 10
601.259265
 20
71.343559
 30
0.0
 10
602.474553
 20
73.450725
 30
0.0
 10
602.472990
 20
75.730390
 30
0.0
  0
LWPOLYLINE
  5
1c2
100
AcDbEntity
  8
0
 62
7
100
AcDbPolyline
 90
1
 70
1
 10
479.635058
 20
143.868737
 30
0.0
  0
SPLINE
  5
1c3
100
AcDbEntity
  8
0
 62
7
100
AcDbSpline
 70
8
 71
3
 72
8
 73
4
 74
0
 40
0
 40
0
 40
0
 40
0
 40
1
 40
1
 40
1
 40
1
 10
602.472990
 20
855.257921
 30
0.0
 10
602.474553
 20
857.537586
 30
0.0
 10
601.259265
 20
859.644752
 30
0.0
 10
599.285278
 20
860.785035
 30
0.0
  0
SPLINE
  5
1c4
100
AcDbEntity
  8
0
 62
7
100
AcDbSpline
 70
8
 71
3
 72
8
 73
4
 74
0
 40
0
 40
0
 40
0
 40
0
 40
1
 40
1
 40
1
 40
1
 10
599.285278
 20
860.785035
 30
0.0
 10
597.311291
 20
861.925319
 30
0.0
 10
594.878787
 20
861.925319
 30
0.0
 10
592.904800
 20
860.785035
 30
0.0
  0
SPLINE
  5
1c5
100
AcDbEntity
  8
0
 62
7
100
AcDbSpline
 70
8
 71
3
 72
8
 73
4
 74
0
 40
0
 40
0
 40
0
 40
0
 40
1
 40
1
 40
1
 40
1
 10
592.904800
 20
860.785035
 30
0.0
 10
590.930813
 20
859.644752
 30
0.0
 10
589.715524
 20
857.537586
 30
0.0
 10
589.717087
 20
855.257921
 30
0.0
  0
SPLINE
  5
1c6
100
AcDbEntity
  8
0
 62
7
100
AcDbSpline
 70
8
 71
3
 72
8
 73
4
 74
0
 40
0
 40
0
 40
0
 40
0
 40
1
 40
1
 40
1
 40
1
 10
589.717087
 20
855.257921
 30
0.0
 10
589.715524
 20
852.978257
 30
0.0
 10
590.930813
 20
850.871091
 30
0.0
 10
592.904800
 20
849.730807
 30
0.0
  0
SPLINE
  5
1c7
100
AcDbEntity
  8
0
 62
7
100
AcDbSpline
 70
8
 71
3
 72
8
 73
4
 74
0
 40
0
 40
0
 40
0
 40
0
 40
1
 40
1
 40
1
 40
1
 10
592.904800
 20
849.730807
 30
0.0
 10
594.878787
 20
848.590523
 30
0.0
 10
597.311291
 20
848.590523
 30
0.0
 10
599.285278
 20
849.730807
 30
0.0
  0
SPLINE
  5
1c8
100
AcDbEntity
  8
0
 62
7
100
AcDbSpline
 70
8
 71
3
 72
8
 73
4
 74
0
 40
0
 40
0
 40
0
 40
0
 40
1
 40
1
 40
1
 40
1
 10
599.285278
 20
849.730807
 30
0.0
 10
601.259265
 20
850.871091
 30
0.0
 10
602.474553
 20
852.978257
 30
0.0
 10
602.472990
 20
855.257921
 30
0.0
  0
LWPOLYLINE
  5
1c9
100
AcDbEntity
  8
0
 62
7
100
AcDbPolyline
 90
1
 70
1
 10
602.472990
 20
75.730390
 30
0.0
  0
SPLINE
  5
1ca
100
AcDbEntity
  8
0
 62
7
100
AcDbSpline
 70
8
 71
3
 72
8
 73
4
 74
0
 40
0
 40
0
 40
0
 40
0
 40
1
 40
1
 40
1
 40
1
 10
602.472990
 20
465.494140
 30
0.0
 10
602.474553
 20
467.773804
 30
0.0
 10
601.259265
 20
469.880970
 30
0.0
 10
599.285278
 20
471.021254
 30
0.0
  0
SPLINE
  5
1cb
100
AcDbEntity
  8
0
 62
7
100
AcDbSpline
 70
8
 71
3
 72
8
 73
4
 74
0
 40
0
 40
0
 40
0
 40
0
 40
1
 40
1
 40
1
 40
1
 10
599.285278
 20
471.021254
 30
0.0
 10
597.311291
 20
472.161538
 30
0.0
 10
594.878787
 20
472.161538
 30
0.0
 10
592.904800
 20
471.021254
 30
0.0
  0
SPLINE
  5
1cc
100
AcDbEntity
  8
0
 62
7
100
AcDbSpline
 70
8
 71
3
 72
8
 73
4
 74
0
 40
0
 40
0
 40
0
 40
0
 40
1
 40
1
 40
1
 40
1
 10
592.904800
 20
471.021254
 30
0.0
 10
590.930813
 20
469.880970
 30
0.0
 10
589.715524
 20
467.773804
 30
0.0
 10
589.717087
 20
465.494140
 30
0.0
  0
SPLINE
  5
1cd
100
AcDbEntity
  8
0
 62
7
100
AcDbSpline
 70
8
 71
3
 72
8
 73
4
 74
0
 40
0
 40
0
 40
0
 40
0
 40
1
 40
1
 40
1
 40
1
 10
589.717087
 20
465.494140
 30
0.0
 10
589.715524
 20
463.214475
 30
0.0
 10
590.930813
 20
461.107309
 30
0.0
 10
592.904800
 20
459.967026
 30
0.0
  0
SPLINE
  5
1ce
100
AcDbEntity
  8
0
 62
7
100
AcDbSpline
 70
8
 71
3
 72
8
 73
4
 74
0
 40
0
 40
0
 40
0
 40
0
 40
1
 40
1
 40
1
 40
1
 10
592.904800
 20
459.967026
 30
0.0
 10
594.878787
 20
458.826742
 30
0.0
 10
597.311291
 20
458.826742
 30
0.0
 10
599.285278
 20
459.967026
 30
0.0
  0
SPLINE
  5
1cf
100
AcDbEntity
  8
0
 62
7
100
AcDbSpline
 70
8
 71
3
 72
8
 73
4
 74
0
 40
0
 40
0
 40
0
 40
0
 40
1
 40
1
 40
1
 40
1
 10
599.285278
 20
459.967026
 30
0.0
 10
601.259265
 20
461.107309
 30
0.0
 10
602.474553
 20
463.214475
 30
0.0
 10
602.472990
 20
465.494140
 30
0.0
  0
LWPOLYLINE
  5
1d0
100
AcDbEntity
  8
0
 62
7
100
AcDbPolyline
 90
1
 70
1
 10
602.472990
 20
855.257921
 30
0.0
  0
SPLINE
  5
1d1
100
AcDbEntity
  8
0
 62
7
100
AcDbSpline
 70
8
 71
3
 72
8
 73
4
 74
0
 40
0
 40
0
 40
0
 40
0
 40
1
 40
1
 40
1
 40
1
 10
49.717088
 20
703.352552
 30
0.0
 10
49.717088
 20
705.631175
 30
0.0
 10
48.501457
 20
707.736710
 30
0.0
 10
46.528112
 20
708.876021
 30
0.0
  0
SPLINE
  5
1d2
100
AcDbEntity
  8
0
 62
7
100
AcDbSpline
 70
8
 71
3
 72
8
 73
4
 74
0
 40
0
 40
0
 40
0
 40
0
 40
1
 40
1
 40
1
 40
1
 10
46.528112
 20
708.876021
 30
0.0
 10
44.554766
 20
710.015333
 30
0.0
 10
42.123505
 20
710.015333
 30
0.0
 10
40.150159
 20
708.876021
 30
0.0
  0
SPLINE
  5
1d3
100
AcDbEntity
  8
0
 62
7
100
AcDbSpline
 70
8
 71
3
 72
8
 73
4
 74
0
 40
0
 40
0
 40
0
 40
0
 40
1
 40
1
 40
1
 40
1
 10
40.150159
 20
708.876021
 30
0.0
 10
38.176814
 20
707.736710
 30
0.0
 10
36.961183
 20
705.631175
 30
0.0
 10
36.961183
 20
703.352552
 30
0.0
  0
SPLINE
  5
1d4
100
AcDbEntity
  8
0
 62
7
100
AcDbSpline
 70
8
 71
3
 72
8
 73
4
 74
0
 40
0
 40
0
 40
0
 40
0
 40
1
 40
1
 40
1
 40
1
 10
36.961183
 20
703.352552
 30
0.0
 10
36.961183
 20
701.073929
 30
0.0
 10
38.176814
 20
698.968395
 30
0.0
 10
40.150159
 20
697.829083
 30
0.0
  0
SPLINE
  5
1d5
100
AcDbEntity
  8
0
 62
7
100
AcDbSpline
 70
8
 71
3
 72
8
 73
4
 74
0
 40
0
 40
0
 40
0
 40
0
 40
1
 40
1
 40
1
 40
1
 10
40.150159
 20
697.829083
 30
0.0
 10
42.123505
 20
696.689772
 30
0.0
 10
44.554766
 20
696.689772
 30
0.0
 10
46.528112
 20
697.829083
 30
0.0
  0
SPLINE
  5
1d6
100
AcDbEntity
  8
0
 62
7
100
AcDbSpline
 70
8
 71
3
 72
8
 73
4
 74
0
 40
0
 40
0
 40
0
 40
0
 40
1
 40
1
 40
1
 40
1
 10
46.528112
 20
697.829083
 30
0.0
 10
48.501457
 20
698.968395
 30
0.0
 10
49.717088
 20
701.073929
 30
0.0
 10
49.717088
 20
703.352552
 30
0.0
  0
LWPOLYLINE
  5
1d7
100
AcDbEntity
  8
0
 62
7
100
AcDbPolyline
 90
1
 70
1
 10
602.472990
 20
465.494140
 30
0.0
  0
SPLINE
  5
1d8
100
AcDbEntity
  8
0
 62
7
100
AcDbSpline
 70
8
 71
3
 72
8
 73
4
 74
0
 40
0
 40
0
 40
0
 40
0
 40
1
 40
1
 40
1
 40
1
 10
49.717088
 20
75.730390
 30
0.0
 10
49.717088
 20
78.009013
 30
0.0
 10
48.501457
 20
80.114547
 30
0.0
 10
46.528112
 20
81.253859
 30
0.0
  0
SPLINE
  5
1d9
100
AcDbEntity
  8
0
 62
7
100
AcDbSpline
 70
8
 71
3
 72
8
 73
4
 74
0
 40
0
 40
0
 40
0
 40
0
 40
1
 40
1
 40
1
 40
1
 10
46.528112
 20
81.253859
 30
0.0
 10
44.554766
 20
82.393170
 30
0.0
 10
42.123505
 20
82.393170
 30
0.0
 10
40.150159
 20
81.253859
 30
0.0
  0
SPLINE
  5
1da
100
AcDbEntity
  8
0
 62
7
100
AcDbSpline
 70
8
 71
3
 72
8
 73
4
 74
0
 40
0
 40
0
 40
0
 40
0
 40
1
 40
1
 40
1
 40
1
 10
40.150159
 20
81.253859
 30
0.0
 10
38.176814
 20
80.114547
 30
0.0
 10
36.961183
 20
78.009013
 30
0.0
 10
36.961183
 20
75.730390
 30
0.0
  0
SPLINE
  5
1db
100
AcDbEntity
  8
0
 62
7
100
AcDbSpline
 70
8
 71
3
 72
8
 73
4
 74
0
 40
0
 40
0
 40
0
 40
0
 40
1
 40
1
 40
1
 40
1
 10
36.961183
 20
75.730390
 30
0.0
 10
36.961183
 20
73.451767
 30
0.0
 10
38.176814
 20
71.346232
 30
0.0
 10
40.150159
 20
70.206921
 30
0.0
  0
SPLINE
  5
1dc
100
AcDbEntity
  8
0
 62
7
100
AcDbSpline
 70
8
 71
3
 72
8
 73
4
 74
0
 40
0
 40
0
 40
0
 40
0
 40
1
 40
1
 40
1
 40
1
 10
40.150159
 20
70.206921
 30
0.0
 10
42.123505
 20
69.067609
 30
0.0
 10
44.554766
 20
69.067609
 30
0.0
 10
46.528112
 20
70.206921
 30
0.0
  0
SPLINE
  5
1dd
100
AcDbEntity
  8
0
 62
7
100
AcDbSpline
 70
8
 71
3
 72
8
 73
4
 74
0
 40
0
 40
0
 40
0
 40
0
 40
1
 40
1
 40
1
 40
1
 10
46.528112
 20
70.206921
 30
0.0
 10
48.501457
 20
71.346232
 30
0.0
 10
49.717088
 20
73.451767
 30
0.0
 10
49.717088
 20
75.730390
 30
0.0
  0
LWPOLYLINE
  5
1de
100
AcDbEntity
  8
0
 62
7
100
AcDbPolyline
 90
1
 70
1
 10
49.717088
 20
703.352552
 30
0.0
  0
SPLINE
  5
1df
100
AcDbEntity
  8
0
 62
7
100
AcDbSpline
 70
8
 71
3
 72
8
 73
4
 74
0
 40
0
 40
0
 40
0
 40
0
 40
1
 40
1
 40
1
 40
1
 10
376.835197
 20
855.257921
 30
0.0
 10
376.835197
 20
857.536545
 30
0.0
 10
375.619566
 20
859.642080
 30
0.0
 10
373.646220
 20
860.781392
 30
0.0
  0
SPLINE
  5
1e0
100
AcDbEntity
  8
0
 62
7
100
AcDbSpline
 70
8
 71
3
 72
8
 73
4
 74
0
 40
0
 40
0
 40
0
 40
0
 40
1
 40
1
 40
1
 40
1
 10
373.646220
 20
860.781392
 30
0.0
 10
371.672874
 20
861.920704
 30
0.0
 10
369.241611
 20
861.920704
 30
0.0
 10
367.268265
 20
860.781392
 30
0.0
  0
SPLINE
  5
1e1
100
AcDbEntity
  8
0
 62
7
100
AcDbSpline
 70
8
 71
3
 72
8
 73
4
 74
0
 40
0
 40
0
 40
0
 40
0
 40
1
 40
1
 40
1
 40
1
 10
367.268265
 20
860.781392
 30
0.0
 10
365.294919
 20
859.642080
 30
0.0
 10
364.079288
 20
857.536545
 30
0.0
 10
364.079288
 20
855.257921
 30
0.0
  0
SPLINE
  5
1e2
100
AcDbEntity
  8
0
 62
7
100
AcDbSpline
 70
8
 71
3
 72
8
 73
4
 74
0
 40
0
 40
0
 40
0
 40
0
 40
1
 40
1
 40
1
 40
1
 10
364.079288
 20
855.257921
 30
0.0
 10
364.079288
 20
852.979297
 30
0.0
 10
365.294919
 20
850.873762
 30
0.0
 10
367.268265
 20
849.734450
 30
0.0
  0
SPLINE
  5
1e3
100
AcDbEntity
  8
0
 62
7
100
AcDbSpline
 70
8
 71
3
 72
8
 73
4
 74
0
 40
0
 40
0
 40
0
 40
0
 40
1
 40
1
 40
1
 40
1
 10
367.268265
 20
849.734450
 30
0.0
 10
369.241611
 20
848.595138
 30
0.0
 10
371.672874
 20
848.595138
 30
0.0
 10
373.646220
 20
849.734450
 30
0.0
  0
SPLINE
  5
1e4
100
AcDbEntity
  8
0
 62
7
100
AcDbSpline
 70
8
 71
3
 72
8
 73
4
 74
0
 40
0
 40
0
 40
0
 40
0
 40
1
 40
1
 40
1
 40
1
 10
373.646220
 20
849.734450
 30
0.0
 10
375.619566
 20
850.873762
 30
0.0
 10
376.835197
 20
852.979297
 30
0.0
 10
376.835197
 20
855.257921
 30
0.0
  0
LWPOLYLINE
  5
1e5
100
AcDbEntity
  8
0
 62
7
100
AcDbPolyline
 90
1
 70
1
 10
49.717088
 20
75.730390
 30
0.0
  0
LWPOLYLINE
  5
1e6
100
AcDbEntity
  8
0
 62
7
100
AcDbPolyline
 90
1
 70
1
 10
376.835197
 20
855.257921
 30
0.0
  0
LWPOLYLINE
  5
1e7
100
AcDbEntity
  8
0
 62
7
100
AcDbPolyline
 90
2
 70
0
 10
14.992679
 20
883.604377
 30
0.0
 10
14.992679
 20
47.383915
 30
0.0
  0
LWPOLYLINE
  5
1e8
100
AcDbEntity
  8
0
 62
7
100
AcDbPolyline
 90
2
 70
0
 10
624.441495
 20
883.604377
 30
0.0
 10
624.441495
 20
47.383915
 30
0.0
  0
LWPOLYLINE
  5
1e9
100
AcDbEntity
  8
0
 62
7
100
AcDbPolyline
 90
2
 70
0
 10
14.992679
 20
883.604377
 30
0.0
 10
624.441495
 20
883.604377
 30
0.0
  0
SPLINE
  5
1ea
100
AcDbEntity
  8
0
 62
7
100
AcDbSpline
 70
8
 71
3
 72
8
 73
4
 74
0
 40
0
 40
0
 40
0
 40
0
 40
1
 40
1
 40
1
 40
1
 10
322.681275
 20
150.057790
 30
0.0
 10
322.681275
 20
150.124777
 30
0.0
 10
322.645538
 20
150.186676
 30
0.0
 10
322.587525
 20
150.220170
 30
0.0
  0
SPLINE
  5
1eb
100
AcDbEntity
  8
0
 62
7
100
AcDbSpline
 70
8
 71
3
 72
8
 73
4
 74
0
 40
0
 40
0
 40
0
 40
0
 40
1
 40
1
 40
1
 40
1
 10
322.587525
 20
150.220170
 30
0.0
 10
322.529512
 20
150.253663
 30
0.0
 10
322.458038
 20
150.253663
 30
0.0
 10
322.400025
 20
150.220170
 30
0.0
  0
SPLINE
  5
1ec
100
AcDbEntity
  8
0
 62
7
100
AcDbSpline
 70
8
 71
3
 72
8
 73
4
 74
0
 40
0
 40
0
 40
0
 40
0
 40
1
 40
1
 40
1
 40
1
 10
322.400025
 20
150.220170
 30
0.0
 10
322.342012
 20
150.186676
 30
0.0
 10
322.306275
 20
150.124777
 30
0.0
 10
322.306275
 20
150.057790
 30
0.0
  0
SPLINE
  5
1ed
100
AcDbEntity
  8
0
 62
7
100
AcDbSpline
 70
8
 71
3
 72
8
 73
4
 74
0
 40
0
 40
0
 40
0
 40
0
 40
1
 40
1
 40
1
 40
1
 10
322.306275
 20
150.057790
 30
0.0
 10
322.306275
 20
149.990802
 30
0.0
 10
322.342012
 20
149.928904
 30
0.0
 10
322.400025
 20
149.895410
 30
0.0
  0
SPLINE
  5
1ee
100
AcDbEntity
  8
0
 62
7
100
AcDbSpline
 70
8
 71
3
 72
8
 73
4
 74
0
 40
0
 40
0
 40
0
 40
0
 40
1
 40
1
 40
1
 40
1
 10
322.400025
 20
149.895410
 30
0.0
 10
322.458038
 20
149.861916
 30
0.0
 10
322.529512
 20
149.861916
 30
0.0
 10
322.587525
 20
149.895410
 30
0.0
  0
SPLINE
  5
1ef
100
AcDbEntity
  8
0
 62
7
100
AcDbSpline
 70
8
 71
3
 72
8
 73
4
 74
0
 40
0
 40
0
 40
0
 40
0
 40
1
 40
1
 40
1
 40
1
 10
322.587525
 20
149.895410
 30
0.0
 10
322.645538
 20
149.928904
 30
0.0
 10
322.681275
 20
149.990802
 30
0.0
 10
322.681275
 20
150.057790
 30
0.0
  0
LWPOLYLINE
  5
1f0
100
AcDbEntity
  8
0
 62
7
100
AcDbPolyline
 90
2
 70
0
 10
14.992679
 20
47.383915
 30
0.0
 10
624.441495
 20
47.383915
 30
0.0
  0
LWPOLYLINE
  5
1f1
100
AcDbEntity
  8
0
 62
7
100
AcDbPolyline
 90
1
 70
1
 10
322.681275
 20
150.057790
 30
0.0
  0
ENDSEC
  0
SECTION
  2
OBJECTS
  0
DICTIONARY
  5
C
330
0
100
AcDbDictionary
  3
ACAD_GROUP
350
D
  3
ACAD_MLINESTYLE
350
17
  0
DICTIONARY
  5
D
330
C
100
AcDbDictionary
  0
DICTIONARY
  5
1A
330
C
100
AcDbDictionary
  0
DICTIONARY
  5
17
330
C
100
AcDbDictionary
  3
STANDARD
350
18
  0
DICTIONARY
  5
19
330
C
100
AcDbDictionary
  0
ENDSEC
  0
EOF
