  0
SECTION
  2
HEADER
  9
$ACADVER
  1
AC1014
  9
$HANDSEED
  5
FFFF
  9
$MEASUREMENT
 70
     1
  0
ENDSEC
  0
SECTION
  2
TABLES
  0
TABLE
  2
VPORT
  5
8
330
0
100
AcDbSymbolTable
 70
     4
  0
VPORT
  5
2E
330
8
100
AcDbSymbolTableRecord
100
AcDbViewportTableRecord
  2
*ACTIVE
 70
     0
 10
0.0
 20
0.0
 11
1.0
 21
1.0
 12
210.0
 22
148.5
 13
0.0
 23
0.0
 14
10.0
 24
10.0
 15
10.0
 25
10.0
 16
0.0
 26
0.0
 36
1.0
 17
0.0
 27
0.0
 37
0.0
 40
341.0
 41
1.24
 42
50.0
 43
0.0
 44
0.0
 50
0.0
 51
0.0
 71
     0
 72
   100
 73
     1
 74
     3
 75
     0
 76
     0
 77
     0
 78
     0
  0
ENDTAB
  0
TABLE
  2
LTYPE
  5
5
330
0
100
AcDbSymbolTable
 70
     1
  0
LTYPE
  5
14
330
5
100
AcDbSymbolTableRecord
100
AcDbLinetypeTableRecord
  2
BYBLOCK
 70
     0
  3

 72
    65
 73
     0
 40
0.0
  0
LTYPE
  5
15
330
5
100
AcDbSymbolTableRecord
100
AcDbLinetypeTableRecord
  2
BYLAYER
 70
     0
  3

 72
    65
 73
     0
 40
0.0
  0
LTYPE
  5
16
330
5
100
AcDbSymbolTableRecord
100
AcDbLinetypeTableRecord
  2
CONTINUOUS
 70
     0
  3
Solid line
 72
    65
 73
     0
 40
0.0
  0
ENDTAB
  0
TABLE
  2
LAYER
  5
2
100
AcDbSymbolTable
 70
1
  0
LAYER
  5
50
100
AcDbSymbolTableRecord
100
AcDbLayerTableRecord
  2
0
 70
0
  6
CONTINUOUS
  0
ENDTAB
  0
TABLE
  2
STYLE
  5
3
330
0
100
AcDbSymbolTable
 70
     1
  0
STYLE
  5
11
330
3
100
AcDbSymbolTableRecord
100
AcDbTextStyleTableRecord
  2
STANDARD
 70
     0
 40
0.0
 41
1.0
 50
0.0
 71
     0
 42
2.5
  3
txt
  4

  0
ENDTAB
  0
TABLE
  2
VIEW
  5
6
330
0
100
AcDbSymbolTable
 70
     0
  0
ENDTAB
  0
TABLE
  2
UCS
  5
7
330
0
100
AcDbSymbolTable
 70
     0
  0
ENDTAB
  0
TABLE
  2
APPID
  5
9
330
0
100
AcDbSymbolTable
 70
     2
  0
APPID
  5
12
330
9
100
AcDbSymbolTableRecord
100
AcDbRegAppTableRecord
  2
ACAD
 70
     0
  0
ENDTAB
  0
TABLE
  2
DIMSTYLE
  5
A
330
0
100
AcDbSymbolTable
 70
     1
  0
DIMSTYLE
105
27
330
A
100
AcDbSymbolTableRecord
100
AcDbDimStyleTableRecord
  2
ISO-25
 70
     0
  3

  4

  5

  6

  7

 40
1.0
 41
2.5
 42
0.625
 43
3.75
 44
1.25
 45
0.0
 46
0.0
 47
0.0
 48
0.0
140
2.5
141
2.5
142
0.0
143
0.03937007874016
144
1.0
145
0.0
146
1.0
147
0.625
 71
     0
 72
     0
 73
     0
 74
     0
 75
     0
 76
     0
 77
     1
 78
     8
170
     0
171
     3
172
     1
173
     0
174
     0
175
     0
176
     0
177
     0
178
     0
270
     2
271
     2
272
     2
273
     2
274
     3
340
11
275
     0
280
     0
281
     0
282
     0
283
     0
284
     8
285
     0
286
     0
287
     3
288
     0
  0
ENDTAB
  0
TABLE
  2
BLOCK_RECORD
  5
1
330
0
100
AcDbSymbolTable
 70
     1
  0
BLOCK_RECORD
  5
1F
330
1
100
AcDbSymbolTableRecord
100
AcDbBlockTableRecord
  2
*MODEL_SPACE
  0
BLOCK_RECORD
  5
1B
330
1
100
AcDbSymbolTableRecord
100
AcDbBlockTableRecord
  2
*PAPER_SPACE
  0
ENDTAB
  0
ENDSEC
  0
SECTION
  2
BLOCKS
  0
BLOCK
  5
20
330
1F
100
AcDbEntity
  8
0
100
AcDbBlockBegin
  2
*MODEL_SPACE
 70
     0
 10
0.0
 20
0.0
 30
0.0
  3
*MODEL_SPACE
  1

  0
ENDBLK
  5
21
330
1F
100
AcDbEntity
  8
0
100
AcDbBlockEnd
  0
BLOCK
  5
1C
330
1B
100
AcDbEntity
 67
     1
  8
0
100
AcDbBlockBegin
  2
*PAPER_SPACE
  1

  0
ENDBLK
  5
1D
330
1B
100
AcDbEntity
 67
     1
  8
0
100
AcDbBlockEnd
  0
ENDSEC
  0
SECTION
  2
ENTITIES
  0
SPLINE
  5
100
100
AcDbEntity
  8
0
 62
7
100
AcDbSpline
 70
8
 71
3
 72
8
 73
4
 74
0
 40
0
 40
0
 40
0
 40
0
 40
1
 40
1
 40
1
 40
1
 10
444.532170
 20
752.285820
 30
0.0
 10
444.532170
 20
754.564444
 30
0.0
 10
443.316539
 20
756.669979
 30
0.0
 10
441.343193
 20
757.809291
 30
0.0
  0
SPLINE
  5
101
100
AcDbEntity
  8
0
 62
7
100
AcDbSpline
 70
8
 71
3
 72
8
 73
4
 74
0
 40
0
 40
0
 40
0
 40
0
 40
1
 40
1
 40
1
 40
1
 10
441.343193
 20
757.809291
 30
0.0
 10
439.369846
 20
758.948603
 30
0.0
 10
436.938584
 20
758.948603
 30
0.0
 10
434.965238
 20
757.809291
 30
0.0
  0
SPLINE
  5
102
100
AcDbEntity
  8
0
 62
7
100
AcDbSpline
 70
8
 71
3
 72
8
 73
4
 74
0
 40
0
 40
0
 40
0
 40
0
 40
1
 40
1
 40
1
 40
1
 10
434.965238
 20
757.809291
 30
0.0
 10
432.991891
 20
756.669979
 30
0.0
 10
431.776260
 20
754.564444
 30
0.0
 10
431.776260
 20
752.285820
 30
0.0
  0
SPLINE
  5
103
100
AcDbEntity
  8
0
 62
7
100
AcDbSpline
 70
8
 71
3
 72
8
 73
4
 74
0
 40
0
 40
0
 40
0
 40
0
 40
1
 40
1
 40
1
 40
1
 10
431.776260
 20
752.285820
 30
0.0
 10
431.776260
 20
750.007196
 30
0.0
 10
432.991891
 20
747.901661
 30
0.0
 10
434.965238
 20
746.762349
 30
0.0
  0
SPLINE
  5
104
100
AcDbEntity
  8
0
 62
7
100
AcDbSpline
 70
8
 71
3
 72
8
 73
4
 74
0
 40
0
 40
0
 40
0
 40
0
 40
1
 40
1
 40
1
 40
1
 10
434.965238
 20
746.762349
 30
0.0
 10
436.938584
 20
745.623037
 30
0.0
 10
439.369846
 20
745.623037
 30
0.0
 10
441.343193
 20
746.762349
 30
0.0
  0
SPLINE
  5
105
100
AcDbEntity
  8
0
 62
7
100
AcDbSpline
 70
8
 71
3
 72
8
 73
4
 74
0
 40
0
 40
0
 40
0
 40
0
 40
1
 40
1
 40
1
 40
1
 10
441.343193
 20
746.762349
 30
0.0
 10
443.316539
 20
747.901661
 30
0.0
 10
444.532170
 20
750.007196
 30
0.0
 10
444.532170
 20
752.285820
 30
0.0
  0
SPLINE
  5
106
100
AcDbEntity
  8
0
 62
7
100
AcDbSpline
 70
8
 71
3
 72
8
 73
4
 74
0
 40
0
 40
0
 40
0
 40
0
 40
1
 40
1
 40
1
 40
1
 10
444.532170
 20
653.073225
 30
0.0
 10
444.532170
 20
655.351849
 30
0.0
 10
443.316539
 20
657.457384
 30
0.0
 10
441.343193
 20
658.596696
 30
0.0
  0
SPLINE
  5
107
100
AcDbEntity
  8
0
 62
7
100
AcDbSpline
 70
8
 71
3
 72
8
 73
4
 74
0
 40
0
 40
0
 40
0
 40
0
 40
1
 40
1
 40
1
 40
1
 10
441.343193
 20
658.596696
 30
0.0
 10
439.369846
 20
659.736008
 30
0.0
 10
436.938584
 20
659.736008
 30
0.0
 10
434.965238
 20
658.596696
 30
0.0
  0
SPLINE
  5
108
100
AcDbEntity
  8
0
 62
7
100
AcDbSpline
 70
8
 71
3
 72
8
 73
4
 74
0
 40
0
 40
0
 40
0
 40
0
 40
1
 40
1
 40
1
 40
1
 10
434.965238
 20
658.596696
 30
0.0
 10
432.991891
 20
657.457384
 30
0.0
 10
431.776260
 20
655.351849
 30
0.0
 10
431.776260
 20
653.073225
 30
0.0
  0
SPLINE
  5
109
100
AcDbEntity
  8
0
 62
7
100
AcDbSpline
 70
8
 71
3
 72
8
 73
4
 74
0
 40
0
 40
0
 40
0
 40
0
 40
1
 40
1
 40
1
 40
1
 10
431.776260
 20
653.073225
 30
0.0
 10
431.776260
 20
650.794601
 30
0.0
 10
432.991891
 20
648.689066
 30
0.0
 10
434.965238
 20
647.549754
 30
0.0
  0
SPLINE
  5
10a
100
AcDbEntity
  8
0
 62
7
100
AcDbSpline
 70
8
 71
3
 72
8
 73
4
 74
0
 40
0
 40
0
 40
0
 40
0
 40
1
 40
1
 40
1
 40
1
 10
434.965238
 20
647.549754
 30
0.0
 10
436.938584
 20
646.410442
 30
0.0
 10
439.369846
 20
646.410442
 30
0.0
 10
441.343193
 20
647.549754
 30
0.0
  0
SPLINE
  5
10b
100
AcDbEntity
  8
0
 62
7
100
AcDbSpline
 70
8
 71
3
 72
8
 73
4
 74
0
 40
0
 40
0
 40
0
 40
0
 40
1
 40
1
 40
1
 40
1
 10
441.343193
 20
647.549754
 30
0.0
 10
443.316539
 20
648.689066
 30
0.0
 10
444.532170
 20
650.794601
 30
0.0
 10
444.532170
 20
653.073225
 30
0.0
  0
LWPOLYLINE
  5
10c
100
AcDbEntity
  8
0
 62
7
100
AcDbPolyline
 90
1
 70
1
 10
444.532170
 20
752.285820
 30
0.0
  0
SPLINE
  5
10d
100
AcDbEntity
  8
0
 62
7
100
AcDbSpline
 70
8
 71
3
 72
8
 73
4
 74
0
 40
0
 40
0
 40
0
 40
0
 40
1
 40
1
 40
1
 40
1
 10
313.146345
 20
794.805505
 30
0.0
 10
313.146345
 20
796.324588
 30
0.0
 10
312.335924
 20
797.728278
 30
0.0
 10
311.020359
 20
798.487820
 30
0.0
  0
SPLINE
  5
10e
100
AcDbEntity
  8
0
 62
7
100
AcDbSpline
 70
8
 71
3
 72
8
 73
4
 74
0
 40
0
 40
0
 40
0
 40
0
 40
1
 40
1
 40
1
 40
1
 10
311.020359
 20
798.487820
 30
0.0
 10
309.704795
 20
799.247361
 30
0.0
 10
308.083953
 20
799.247361
 30
0.0
 10
306.768388
 20
798.487820
 30
0.0
  0
SPLINE
  5
10f
100
AcDbEntity
  8
0
 62
7
100
AcDbSpline
 70
8
 71
3
 72
8
 73
4
 74
0
 40
0
 40
0
 40
0
 40
0
 40
1
 40
1
 40
1
 40
1
 10
306.768388
 20
798.487820
 30
0.0
 10
305.452824
 20
797.728278
 30
0.0
 10
304.642403
 20
796.324588
 30
0.0
 10
304.642403
 20
794.805505
 30
0.0
  0
SPLINE
  5
110
100
AcDbEntity
  8
0
 62
7
100
AcDbSpline
 70
8
 71
3
 72
8
 73
4
 74
0
 40
0
 40
0
 40
0
 40
0
 40
1
 40
1
 40
1
 40
1
 10
304.642403
 20
794.805505
 30
0.0
 10
304.642403
 20
793.286422
 30
0.0
 10
305.452824
 20
791.882731
 30
0.0
 10
306.768388
 20
791.123190
 30
0.0
  0
SPLINE
  5
111
100
AcDbEntity
  8
0
 62
7
100
AcDbSpline
 70
8
 71
3
 72
8
 73
4
 74
0
 40
0
 40
0
 40
0
 40
0
 40
1
 40
1
 40
1
 40
1
 10
306.768388
 20
791.123190
 30
0.0
 10
308.083953
 20
790.363648
 30
0.0
 10
309.704795
 20
790.363648
 30
0.0
 10
311.020359
 20
791.123190
 30
0.0
  0
SPLINE
  5
112
100
AcDbEntity
  8
0
 62
7
100
AcDbSpline
 70
8
 71
3
 72
8
 73
4
 74
0
 40
0
 40
0
 40
0
 40
0
 40
1
 40
1
 40
1
 40
1
 10
311.020359
 20
791.123190
 30
0.0
 10
312.335924
 20
791.882731
 30
0.0
 10
313.146345
 20
793.286422
 30
0.0
 10
313.146345
 20
794.805505
 30
0.0
  0
LWPOLYLINE
  5
113
100
AcDbEntity
  8
0
 62
7
100
AcDbPolyline
 90
1
 70
1
 10
444.532170
 20
653.073225
 30
0.0
  0
SPLINE
  5
114
100
AcDbEntity
  8
0
 62
7
100
AcDbSpline
 70
8
 71
3
 72
8
 73
4
 74
0
 40
0
 40
0
 40
0
 40
0
 40
1
 40
1
 40
1
 40
1
 10
313.146345
 20
655.907872
 30
0.0
 10
313.146345
 20
657.426956
 30
0.0
 10
312.335924
 20
658.830646
 30
0.0
 10
311.020359
 20
659.590188
 30
0.0
  0
SPLINE
  5
115
100
AcDbEntity
  8
0
 62
7
100
AcDbSpline
 70
8
 71
3
 72
8
 73
4
 74
0
 40
0
 40
0
 40
0
 40
0
 40
1
 40
1
 40
1
 40
1
 10
311.020359
 20
659.590188
 30
0.0
 10
309.704795
 20
660.349729
 30
0.0
 10
308.083953
 20
660.349729
 30
0.0
 10
306.768388
 20
659.590188
 30
0.0
  0
SPLINE
  5
116
100
AcDbEntity
  8
0
 62
7
100
AcDbSpline
 70
8
 71
3
 72
8
 73
4
 74
0
 40
0
 40
0
 40
0
 40
0
 40
1
 40
1
 40
1
 40
1
 10
306.768388
 20
659.590188
 30
0.0
 10
305.452824
 20
658.830646
 30
0.0
 10
304.642403
 20
657.426956
 30
0.0
 10
304.642403
 20
655.907872
 30
0.0
  0
SPLINE
  5
117
100
AcDbEntity
  8
0
 62
7
100
AcDbSpline
 70
8
 71
3
 72
8
 73
4
 74
0
 40
0
 40
0
 40
0
 40
0
 40
1
 40
1
 40
1
 40
1
 10
304.642403
 20
655.907872
 30
0.0
 10
304.642403
 20
654.388789
 30
0.0
 10
305.452824
 20
652.985099
 30
0.0
 10
306.768388
 20
652.225557
 30
0.0
  0
SPLINE
  5
118
100
AcDbEntity
  8
0
 62
7
100
AcDbSpline
 70
8
 71
3
 72
8
 73
4
 74
0
 40
0
 40
0
 40
0
 40
0
 40
1
 40
1
 40
1
 40
1
 10
306.768388
 20
652.225557
 30
0.0
 10
308.083953
 20
651.466016
 30
0.0
 10
309.704795
 20
651.466016
 30
0.0
 10
311.020359
 20
652.225557
 30
0.0
  0
SPLINE
  5
119
100
AcDbEntity
  8
0
 62
7
100
AcDbSpline
 70
8
 71
3
 72
8
 73
4
 74
0
 40
0
 40
0
 40
0
 40
0
 40
1
 40
1
 40
1
 40
1
 10
311.020359
 20
652.225557
 30
0.0
 10
312.335924
 20
652.985099
 30
0.0
 10
313.146345
 20
654.388789
 30
0.0
 10
313.146345
 20
655.907872
 30
0.0
  0
LWPOLYLINE
  5
11a
100
AcDbEntity
  8
0
 62
7
100
AcDbPolyline
 90
1
 70
1
 10
313.146345
 20
794.805505
 30
0.0
  0
SPLINE
  5
11b
100
AcDbEntity
  8
0
 62
7
100
AcDbSpline
 70
8
 71
3
 72
8
 73
4
 74
0
 40
0
 40
0
 40
0
 40
0
 40
1
 40
1
 40
1
 40
1
 10
347.162092
 20
655.907872
 30
0.0
 10
347.162092
 20
657.426956
 30
0.0
 10
346.351671
 20
658.830646
 30
0.0
 10
345.036107
 20
659.590188
 30
0.0
  0
SPLINE
  5
11c
100
AcDbEntity
  8
0
 62
7
100
AcDbSpline
 70
8
 71
3
 72
8
 73
4
 74
0
 40
0
 40
0
 40
0
 40
0
 40
1
 40
1
 40
1
 40
1
 10
345.036107
 20
659.590188
 30
0.0
 10
343.720542
 20
660.349729
 30
0.0
 10
342.099700
 20
660.349729
 30
0.0
 10
340.784136
 20
659.590188
 30
0.0
  0
SPLINE
  5
11d
100
AcDbEntity
  8
0
 62
7
100
AcDbSpline
 70
8
 71
3
 72
8
 73
4
 74
0
 40
0
 40
0
 40
0
 40
0
 40
1
 40
1
 40
1
 40
1
 10
340.784136
 20
659.590188
 30
0.0
 10
339.468571
 20
658.830646
 30
0.0
 10
338.658150
 20
657.426956
 30
0.0
 10
338.658150
 20
655.907872
 30
0.0
  0
SPLINE
  5
11e
100
AcDbEntity
  8
0
 62
7
100
AcDbSpline
 70
8
 71
3
 72
8
 73
4
 74
0
 40
0
 40
0
 40
0
 40
0
 40
1
 40
1
 40
1
 40
1
 10
338.658150
 20
655.907872
 30
0.0
 10
338.658150
 20
654.388789
 30
0.0
 10
339.468571
 20
652.985099
 30
0.0
 10
340.784136
 20
652.225557
 30
0.0
  0
SPLINE
  5
11f
100
AcDbEntity
  8
0
 62
7
100
AcDbSpline
 70
8
 71
3
 72
8
 73
4
 74
0
 40
0
 40
0
 40
0
 40
0
 40
1
 40
1
 40
1
 40
1
 10
340.784136
 20
652.225557
 30
0.0
 10
342.099700
 20
651.466016
 30
0.0
 10
343.720542
 20
651.466016
 30
0.0
 10
345.036107
 20
652.225557
 30
0.0
  0
SPLINE
  5
120
100
AcDbEntity
  8
0
 62
7
100
AcDbSpline
 70
8
 71
3
 72
8
 73
4
 74
0
 40
0
 40
0
 40
0
 40
0
 40
1
 40
1
 40
1
 40
1
 10
345.036107
 20
652.225557
 30
0.0
 10
346.351671
 20
652.985099
 30
0.0
 10
347.162092
 20
654.388789
 30
0.0
 10
347.162092
 20
655.907872
 30
0.0
  0
LWPOLYLINE
  5
121
100
AcDbEntity
  8
0
 62
7
100
AcDbPolyline
 90
1
 70
1
 10
313.146345
 20
655.907872
 30
0.0
  0
SPLINE
  5
122
100
AcDbEntity
  8
0
 62
7
100
AcDbSpline
 70
8
 71
3
 72
8
 73
4
 74
0
 40
0
 40
0
 40
0
 40
0
 40
1
 40
1
 40
1
 40
1
 10
347.162092
 20
794.805505
 30
0.0
 10
347.162092
 20
796.324588
 30
0.0
 10
346.351671
 20
797.728278
 30
0.0
 10
345.036107
 20
798.487820
 30
0.0
  0
SPLINE
  5
123
100
AcDbEntity
  8
0
 62
7
100
AcDbSpline
 70
8
 71
3
 72
8
 73
4
 74
0
 40
0
 40
0
 40
0
 40
0
 40
1
 40
1
 40
1
 40
1
 10
345.036107
 20
798.487820
 30
0.0
 10
343.720542
 20
799.247361
 30
0.0
 10
342.099700
 20
799.247361
 30
0.0
 10
340.784136
 20
798.487820
 30
0.0
  0
SPLINE
  5
124
100
AcDbEntity
  8
0
 62
7
100
AcDbSpline
 70
8
 71
3
 72
8
 73
4
 74
0
 40
0
 40
0
 40
0
 40
0
 40
1
 40
1
 40
1
 40
1
 10
340.784136
 20
798.487820
 30
0.0
 10
339.468571
 20
797.728278
 30
0.0
 10
338.658150
 20
796.324588
 30
0.0
 10
338.658150
 20
794.805505
 30
0.0
  0
SPLINE
  5
125
100
AcDbEntity
  8
0
 62
7
100
AcDbSpline
 70
8
 71
3
 72
8
 73
4
 74
0
 40
0
 40
0
 40
0
 40
0
 40
1
 40
1
 40
1
 40
1
 10
338.658150
 20
794.805505
 30
0.0
 10
338.658150
 20
793.286422
 30
0.0
 10
339.468571
 20
791.882731
 30
0.0
 10
340.784136
 20
791.123190
 30
0.0
  0
SPLINE
  5
126
100
AcDbEntity
  8
0
 62
7
100
AcDbSpline
 70
8
 71
3
 72
8
 73
4
 74
0
 40
0
 40
0
 40
0
 40
0
 40
1
 40
1
 40
1
 40
1
 10
340.784136
 20
791.123190
 30
0.0
 10
342.099700
 20
790.363648
 30
0.0
 10
343.720542
 20
790.363648
 30
0.0
 10
345.036107
 20
791.123190
 30
0.0
  0
SPLINE
  5
127
100
AcDbEntity
  8
0
 62
7
100
AcDbSpline
 70
8
 71
3
 72
8
 73
4
 74
0
 40
0
 40
0
 40
0
 40
0
 40
1
 40
1
 40
1
 40
1
 10
345.036107
 20
791.123190
 30
0.0
 10
346.351671
 20
791.882731
 30
0.0
 10
347.162092
 20
793.286422
 30
0.0
 10
347.162092
 20
794.805505
 30
0.0
  0
LWPOLYLINE
  5
128
100
AcDbEntity
  8
0
 62
7
100
AcDbPolyline
 90
1
 70
1
 10
347.162092
 20
655.907872
 30
0.0
  0
SPLINE
  5
129
100
AcDbEntity
  8
0
 62
7
100
AcDbSpline
 70
8
 71
3
 72
8
 73
4
 74
0
 40
0
 40
0
 40
0
 40
0
 40
1
 40
1
 40
1
 40
1
 10
511.911698
 20
437.923620
 30
0.0
 10
511.912803
 20
439.443438
 30
0.0
 10
511.102625
 20
440.848282
 30
0.0
 10
509.786607
 20
441.608510
 30
0.0
  0
SPLINE
  5
12a
100
AcDbEntity
  8
0
 62
7
100
AcDbSpline
 70
8
 71
3
 72
8
 73
4
 74
0
 40
0
 40
0
 40
0
 40
0
 40
1
 40
1
 40
1
 40
1
 10
509.786607
 20
441.608510
 30
0.0
 10
508.470590
 20
442.368739
 30
0.0
 10
506.848870
 20
442.368739
 30
0.0
 10
505.532853
 20
441.608510
 30
0.0
  0
SPLINE
  5
12b
100
AcDbEntity
  8
0
 62
7
100
AcDbSpline
 70
8
 71
3
 72
8
 73
4
 74
0
 40
0
 40
0
 40
0
 40
0
 40
1
 40
1
 40
1
 40
1
 10
505.532853
 20
441.608510
 30
0.0
 10
504.216835
 20
440.848282
 30
0.0
 10
503.406657
 20
439.443438
 30
0.0
 10
503.407763
 20
437.923620
 30
0.0
  0
SPLINE
  5
12c
100
AcDbEntity
  8
0
 62
7
100
AcDbSpline
 70
8
 71
3
 72
8
 73
4
 74
0
 40
0
 40
0
 40
0
 40
0
 40
1
 40
1
 40
1
 40
1
 10
503.407763
 20
437.923620
 30
0.0
 10
503.406657
 20
436.403802
 30
0.0
 10
504.216835
 20
434.998958
 30
0.0
 10
505.532853
 20
434.238730
 30
0.0
  0
SPLINE
  5
12d
100
AcDbEntity
  8
0
 62
7
100
AcDbSpline
 70
8
 71
3
 72
8
 73
4
 74
0
 40
0
 40
0
 40
0
 40
0
 40
1
 40
1
 40
1
 40
1
 10
505.532853
 20
434.238730
 30
0.0
 10
506.848870
 20
433.478501
 30
0.0
 10
508.470590
 20
433.478501
 30
0.0
 10
509.786607
 20
434.238730
 30
0.0
  0
SPLINE
  5
12e
100
AcDbEntity
  8
0
 62
7
100
AcDbSpline
 70
8
 71
3
 72
8
 73
4
 74
0
 40
0
 40
0
 40
0
 40
0
 40
1
 40
1
 40
1
 40
1
 10
509.786607
 20
434.238730
 30
0.0
 10
511.102625
 20
434.998958
 30
0.0
 10
511.912803
 20
436.403802
 30
0.0
 10
511.911698
 20
437.923620
 30
0.0
  0
LWPOLYLINE
  5
12f
100
AcDbEntity
  8
0
 62
7
100
AcDbPolyline
 90
1
 70
1
 10
347.162092
 20
794.805505
 30
0.0
  0
SPLINE
  5
130
100
AcDbEntity
  8
0
 62
7
100
AcDbSpline
 70
8
 71
3
 72
8
 73
4
 74
0
 40
0
 40
0
 40
0
 40
0
 40
1
 40
1
 40
1
 40
1
 10
511.911698
 20
403.907872
 30
0.0
 10
511.912803
 20
405.427691
 30
0.0
 10
511.102625
 20
406.832534
 30
0.0
 10
509.786607
 20
407.592763
 30
0.0
  0
SPLINE
  5
131
100
AcDbEntity
  8
0
 62
7
100
AcDbSpline
 70
8
 71
3
 72
8
 73
4
 74
0
 40
0
 40
0
 40
0
 40
0
 40
1
 40
1
 40
1
 40
1
 10
509.786607
 20
407.592763
 30
0.0
 10
508.470590
 20
408.352991
 30
0.0
 10
506.848870
 20
408.352991
 30
0.0
 10
505.532853
 20
407.592763
 30
0.0
  0
SPLINE
  5
132
100
AcDbEntity
  8
0
 62
7
100
AcDbSpline
 70
8
 71
3
 72
8
 73
4
 74
0
 40
0
 40
0
 40
0
 40
0
 40
1
 40
1
 40
1
 40
1
 10
505.532853
 20
407.592763
 30
0.0
 10
504.216835
 20
406.832534
 30
0.0
 10
503.406657
 20
405.427691
 30
0.0
 10
503.407763
 20
403.907872
 30
0.0
  0
SPLINE
  5
133
100
AcDbEntity
  8
0
 62
7
100
AcDbSpline
 70
8
 71
3
 72
8
 73
4
 74
0
 40
0
 40
0
 40
0
 40
0
 40
1
 40
1
 40
1
 40
1
 10
503.407763
 20
403.907872
 30
0.0
 10
503.406657
 20
402.388054
 30
0.0
 10
504.216835
 20
400.983211
 30
0.0
 10
505.532853
 20
400.222982
 30
0.0
  0
SPLINE
  5
134
100
AcDbEntity
  8
0
 62
7
100
AcDbSpline
 70
8
 71
3
 72
8
 73
4
 74
0
 40
0
 40
0
 40
0
 40
0
 40
1
 40
1
 40
1
 40
1
 10
505.532853
 20
400.222982
 30
0.0
 10
506.848870
 20
399.462754
 30
0.0
 10
508.470590
 20
399.462754
 30
0.0
 10
509.786607
 20
400.222982
 30
0.0
  0
SPLINE
  5
135
100
AcDbEntity
  8
0
 62
7
100
AcDbSpline
 70
8
 71
3
 72
8
 73
4
 74
0
 40
0
 40
0
 40
0
 40
0
 40
1
 40
1
 40
1
 40
1
 10
509.786607
 20
400.222982
 30
0.0
 10
511.102625
 20
400.983211
 30
0.0
 10
511.912803
 20
402.388054
 30
0.0
 10
511.911698
 20
403.907872
 30
0.0
  0
LWPOLYLINE
  5
136
100
AcDbEntity
  8
0
 62
7
100
AcDbPolyline
 90
1
 70
1
 10
511.911698
 20
437.923620
 30
0.0
  0
SPLINE
  5
137
100
AcDbEntity
  8
0
 62
7
100
AcDbSpline
 70
8
 71
3
 72
8
 73
4
 74
0
 40
0
 40
0
 40
0
 40
0
 40
1
 40
1
 40
1
 40
1
 10
511.911698
 20
167.498422
 30
0.0
 10
511.912803
 20
169.018241
 30
0.0
 10
511.102625
 20
170.423084
 30
0.0
 10
509.786607
 20
171.183313
 30
0.0
  0
SPLINE
  5
138
100
AcDbEntity
  8
0
 62
7
100
AcDbSpline
 70
8
 71
3
 72
8
 73
4
 74
0
 40
0
 40
0
 40
0
 40
0
 40
1
 40
1
 40
1
 40
1
 10
509.786607
 20
171.183313
 30
0.0
 10
508.470590
 20
171.943541
 30
0.0
 10
506.848870
 20
171.943541
 30
0.0
 10
505.532853
 20
171.183313
 30
0.0
  0
SPLINE
  5
139
100
AcDbEntity
  8
0
 62
7
100
AcDbSpline
 70
8
 71
3
 72
8
 73
4
 74
0
 40
0
 40
0
 40
0
 40
0
 40
1
 40
1
 40
1
 40
1
 10
505.532853
 20
171.183313
 30
0.0
 10
504.216835
 20
170.423084
 30
0.0
 10
503.406657
 20
169.018241
 30
0.0
 10
503.407763
 20
167.498423
 30
0.0
  0
SPLINE
  5
13a
100
AcDbEntity
  8
0
 62
7
100
AcDbSpline
 70
8
 71
3
 72
8
 73
4
 74
0
 40
0
 40
0
 40
0
 40
0
 40
1
 40
1
 40
1
 40
1
 10
503.407763
 20
167.498423
 30
0.0
 10
503.406657
 20
165.978604
 30
0.0
 10
504.216835
 20
164.573761
 30
0.0
 10
505.532853
 20
163.813532
 30
0.0
  0
SPLINE
  5
13b
100
AcDbEntity
  8
0
 62
7
100
AcDbSpline
 70
8
 71
3
 72
8
 73
4
 74
0
 40
0
 40
0
 40
0
 40
0
 40
1
 40
1
 40
1
 40
1
 10
505.532853
 20
163.813532
 30
0.0
 10
506.848870
 20
163.053304
 30
0.0
 10
508.470590
 20
163.053304
 30
0.0
 10
509.786607
 20
163.813532
 30
0.0
  0
SPLINE
  5
13c
100
AcDbEntity
  8
0
 62
7
100
AcDbSpline
 70
8
 71
3
 72
8
 73
4
 74
0
 40
0
 40
0
 40
0
 40
0
 40
1
 40
1
 40
1
 40
1
 10
509.786607
 20
163.813532
 30
0.0
 10
511.102625
 20
164.573761
 30
0.0
 10
511.912803
 20
165.978604
 30
0.0
 10
511.911698
 20
167.498423
 30
0.0
  0
LWPOLYLINE
  5
13d
100
AcDbEntity
  8
0
 62
7
100
AcDbPolyline
 90
1
 70
1
 10
511.911698
 20
403.907872
 30
0.0
  0
SPLINE
  5
13e
100
AcDbEntity
  8
0
 62
7
100
AcDbSpline
 70
8
 71
3
 72
8
 73
4
 74
0
 40
0
 40
0
 40
0
 40
0
 40
1
 40
1
 40
1
 40
1
 10
511.911698
 20
133.482675
 30
0.0
 10
511.912803
 20
135.002493
 30
0.0
 10
511.102625
 20
136.407337
 30
0.0
 10
509.786607
 20
137.167565
 30
0.0
  0
SPLINE
  5
13f
100
AcDbEntity
  8
0
 62
7
100
AcDbSpline
 70
8
 71
3
 72
8
 73
4
 74
0
 40
0
 40
0
 40
0
 40
0
 40
1
 40
1
 40
1
 40
1
 10
509.786607
 20
137.167565
 30
0.0
 10
508.470590
 20
137.927794
 30
0.0
 10
506.848870
 20
137.927794
 30
0.0
 10
505.532853
 20
137.167565
 30
0.0
  0
SPLINE
  5
140
100
AcDbEntity
  8
0
 62
7
100
AcDbSpline
 70
8
 71
3
 72
8
 73
4
 74
0
 40
0
 40
0
 40
0
 40
0
 40
1
 40
1
 40
1
 40
1
 10
505.532853
 20
137.167565
 30
0.0
 10
504.216835
 20
136.407337
 30
0.0
 10
503.406657
 20
135.002493
 30
0.0
 10
503.407763
 20
133.482675
 30
0.0
  0
SPLINE
  5
141
100
AcDbEntity
  8
0
 62
7
100
AcDbSpline
 70
8
 71
3
 72
8
 73
4
 74
0
 40
0
 40
0
 40
0
 40
0
 40
1
 40
1
 40
1
 40
1
 10
503.407763
 20
133.482675
 30
0.0
 10
503.406657
 20
131.962857
 30
0.0
 10
504.216835
 20
130.558013
 30
0.0
 10
505.532853
 20
129.797785
 30
0.0
  0
SPLINE
  5
142
100
AcDbEntity
  8
0
 62
7
100
AcDbSpline
 70
8
 71
3
 72
8
 73
4
 74
0
 40
0
 40
0
 40
0
 40
0
 40
1
 40
1
 40
1
 40
1
 10
505.532853
 20
129.797785
 30
0.0
 10
506.848870
 20
129.037556
 30
0.0
 10
508.470590
 20
129.037556
 30
0.0
 10
509.786607
 20
129.797785
 30
0.0
  0
SPLINE
  5
143
100
AcDbEntity
  8
0
 62
7
100
AcDbSpline
 70
8
 71
3
 72
8
 73
4
 74
0
 40
0
 40
0
 40
0
 40
0
 40
1
 40
1
 40
1
 40
1
 10
509.786607
 20
129.797785
 30
0.0
 10
511.102625
 20
130.558013
 30
0.0
 10
511.912803
 20
131.962857
 30
0.0
 10
511.911698
 20
133.482675
 30
0.0
  0
LWPOLYLINE
  5
144
100
AcDbEntity
  8
0
 62
7
100
AcDbPolyline
 90
1
 70
1
 10
511.911698
 20
167.498423
 30
0.0
  0
SPLINE
  5
145
100
AcDbEntity
  8
0
 62
7
100
AcDbSpline
 70
8
 71
3
 72
8
 73
4
 74
0
 40
0
 40
0
 40
0
 40
0
 40
1
 40
1
 40
1
 40
1
 10
511.928130
 20
630.724672
 30
0.0
 10
511.929341
 20
632.092653
 30
0.0
 10
511.200228
 20
633.357237
 30
0.0
 10
510.015724
 20
634.041577
 30
0.0
  0
SPLINE
  5
146
100
AcDbEntity
  8
0
 62
7
100
AcDbSpline
 70
8
 71
3
 72
8
 73
4
 74
0
 40
0
 40
0
 40
0
 40
0
 40
1
 40
1
 40
1
 40
1
 10
510.015724
 20
634.041577
 30
0.0
 10
508.831220
 20
634.725917
 30
0.0
 10
507.371500
 20
634.725917
 30
0.0
 10
506.186996
 20
634.041577
 30
0.0
  0
SPLINE
  5
147
100
AcDbEntity
  8
0
 62
7
100
AcDbSpline
 70
8
 71
3
 72
8
 73
4
 74
0
 40
0
 40
0
 40
0
 40
0
 40
1
 40
1
 40
1
 40
1
 10
506.186996
 20
634.041577
 30
0.0
 10
505.002492
 20
633.357237
 30
0.0
 10
504.273379
 20
632.092653
 30
0.0
 10
504.274590
 20
630.724672
 30
0.0
  0
SPLINE
  5
148
100
AcDbEntity
  8
0
 62
7
100
AcDbSpline
 70
8
 71
3
 72
8
 73
4
 74
0
 40
0
 40
0
 40
0
 40
0
 40
1
 40
1
 40
1
 40
1
 10
504.274590
 20
630.724672
 30
0.0
 10
504.273379
 20
629.356692
 30
0.0
 10
505.002492
 20
628.092108
 30
0.0
 10
506.186996
 20
627.407768
 30
0.0
  0
SPLINE
  5
149
100
AcDbEntity
  8
0
 62
7
100
AcDbSpline
 70
8
 71
3
 72
8
 73
4
 74
0
 40
0
 40
0
 40
0
 40
0
 40
1
 40
1
 40
1
 40
1
 10
506.186996
 20
627.407768
 30
0.0
 10
507.371500
 20
626.723428
 30
0.0
 10
508.831220
 20
626.723428
 30
0.0
 10
510.015724
 20
627.407768
 30
0.0
  0
SPLINE
  5
14a
100
AcDbEntity
  8
0
 62
7
100
AcDbSpline
 70
8
 71
3
 72
8
 73
4
 74
0
 40
0
 40
0
 40
0
 40
0
 40
1
 40
1
 40
1
 40
1
 10
510.015724
 20
627.407768
 30
0.0
 10
511.200228
 20
628.092108
 30
0.0
 10
511.929341
 20
629.356692
 30
0.0
 10
511.928130
 20
630.724672
 30
0.0
  0
LWPOLYLINE
  5
14b
100
AcDbEntity
  8
0
 62
7
100
AcDbPolyline
 90
1
 70
1
 10
511.911698
 20
133.482675
 30
0.0
  0
SPLINE
  5
14c
100
AcDbEntity
  8
0
 62
7
100
AcDbSpline
 70
8
 71
3
 72
8
 73
4
 74
0
 40
0
 40
0
 40
0
 40
0
 40
1
 40
1
 40
1
 40
1
 10
511.928130
 20
491.827035
 30
0.0
 10
511.929341
 20
493.195015
 30
0.0
 10
511.200228
 20
494.459600
 30
0.0
 10
510.015724
 20
495.143940
 30
0.0
  0
SPLINE
  5
14d
100
AcDbEntity
  8
0
 62
7
100
AcDbSpline
 70
8
 71
3
 72
8
 73
4
 74
0
 40
0
 40
0
 40
0
 40
0
 40
1
 40
1
 40
1
 40
1
 10
510.015724
 20
495.143940
 30
0.0
 10
508.831220
 20
495.828280
 30
0.0
 10
507.371500
 20
495.828280
 30
0.0
 10
506.186996
 20
495.143940
 30
0.0
  0
SPLINE
  5
14e
100
AcDbEntity
  8
0
 62
7
100
AcDbSpline
 70
8
 71
3
 72
8
 73
4
 74
0
 40
0
 40
0
 40
0
 40
0
 40
1
 40
1
 40
1
 40
1
 10
506.186996
 20
495.143940
 30
0.0
 10
505.002492
 20
494.459600
 30
0.0
 10
504.273379
 20
493.195015
 30
0.0
 10
504.274590
 20
491.827035
 30
0.0
  0
SPLINE
  5
14f
100
AcDbEntity
  8
0
 62
7
100
AcDbSpline
 70
8
 71
3
 72
8
 73
4
 74
0
 40
0
 40
0
 40
0
 40
0
 40
1
 40
1
 40
1
 40
1
 10
504.274590
 20
491.827035
 30
0.0
 10
504.273379
 20
490.459055
 30
0.0
 10
505.002492
 20
489.194470
 30
0.0
 10
506.186996
 20
488.510130
 30
0.0
  0
SPLINE
  5
150
100
AcDbEntity
  8
0
 62
7
100
AcDbSpline
 70
8
 71
3
 72
8
 73
4
 74
0
 40
0
 40
0
 40
0
 40
0
 40
1
 40
1
 40
1
 40
1
 10
506.186996
 20
488.510130
 30
0.0
 10
507.371500
 20
487.825790
 30
0.0
 10
508.831220
 20
487.825790
 30
0.0
 10
510.015724
 20
488.510130
 30
0.0
  0
SPLINE
  5
151
100
AcDbEntity
  8
0
 62
7
100
AcDbSpline
 70
8
 71
3
 72
8
 73
4
 74
0
 40
0
 40
0
 40
0
 40
0
 40
1
 40
1
 40
1
 40
1
 10
510.015724
 20
488.510130
 30
0.0
 10
511.200228
 20
489.194470
 30
0.0
 10
511.929341
 20
490.459055
 30
0.0
 10
511.928130
 20
491.827035
 30
0.0
  0
LWPOLYLINE
  5
152
100
AcDbEntity
  8
0
 62
7
100
AcDbPolyline
 90
1
 70
1
 10
511.928130
 20
630.724672
 30
0.0
  0
SPLINE
  5
153
100
AcDbEntity
  8
0
 62
7
100
AcDbSpline
 70
8
 71
3
 72
8
 73
4
 74
0
 40
0
 40
0
 40
0
 40
0
 40
1
 40
1
 40
1
 40
1
 10
492.909337
 20
89.955270
 30
0.0
 10
492.909337
 20
91.727533
 30
0.0
 10
491.963847
 20
93.365171
 30
0.0
 10
490.429022
 20
94.251303
 30
0.0
  0
SPLINE
  5
154
100
AcDbEntity
  8
0
 62
7
100
AcDbSpline
 70
8
 71
3
 72
8
 73
4
 74
0
 40
0
 40
0
 40
0
 40
0
 40
1
 40
1
 40
1
 40
1
 10
490.429022
 20
94.251303
 30
0.0
 10
488.894197
 20
95.137434
 30
0.0
 10
487.003215
 20
95.137434
 30
0.0
 10
485.468391
 20
94.251303
 30
0.0
  0
SPLINE
  5
155
100
AcDbEntity
  8
0
 62
7
100
AcDbSpline
 70
8
 71
3
 72
8
 73
4
 74
0
 40
0
 40
0
 40
0
 40
0
 40
1
 40
1
 40
1
 40
1
 10
485.468391
 20
94.251303
 30
0.0
 10
483.933566
 20
93.365171
 30
0.0
 10
482.988075
 20
91.727533
 30
0.0
 10
482.988075
 20
89.955270
 30
0.0
  0
SPLINE
  5
156
100
AcDbEntity
  8
0
 62
7
100
AcDbSpline
 70
8
 71
3
 72
8
 73
4
 74
0
 40
0
 40
0
 40
0
 40
0
 40
1
 40
1
 40
1
 40
1
 10
482.988075
 20
89.955270
 30
0.0
 10
482.988075
 20
88.183007
 30
0.0
 10
483.933566
 20
86.545369
 30
0.0
 10
485.468391
 20
85.659237
 30
0.0
  0
SPLINE
  5
157
100
AcDbEntity
  8
0
 62
7
100
AcDbSpline
 70
8
 71
3
 72
8
 73
4
 74
0
 40
0
 40
0
 40
0
 40
0
 40
1
 40
1
 40
1
 40
1
 10
485.468391
 20
85.659237
 30
0.0
 10
487.003215
 20
84.773106
 30
0.0
 10
488.894197
 20
84.773106
 30
0.0
 10
490.429022
 20
85.659237
 30
0.0
  0
SPLINE
  5
158
100
AcDbEntity
  8
0
 62
7
100
AcDbSpline
 70
8
 71
3
 72
8
 73
4
 74
0
 40
0
 40
0
 40
0
 40
0
 40
1
 40
1
 40
1
 40
1
 10
490.429022
 20
85.659237
 30
0.0
 10
491.963847
 20
86.545369
 30
0.0
 10
492.909337
 20
88.183007
 30
0.0
 10
492.909337
 20
89.955270
 30
0.0
  0
LWPOLYLINE
  5
159
100
AcDbEntity
  8
0
 62
7
100
AcDbPolyline
 90
1
 70
1
 10
511.928130
 20
491.827035
 30
0.0
  0
SPLINE
  5
15a
100
AcDbEntity
  8
0
 62
7
100
AcDbSpline
 70
8
 71
3
 72
8
 73
4
 74
0
 40
0
 40
0
 40
0
 40
0
 40
1
 40
1
 40
1
 40
1
 10
492.604013
 20
361.797667
 30
0.0
 10
492.604013
 20
363.569930
 30
0.0
 10
491.658522
 20
365.207569
 30
0.0
 10
490.123697
 20
366.093700
 30
0.0
  0
SPLINE
  5
15b
100
AcDbEntity
  8
0
 62
7
100
AcDbSpline
 70
8
 71
3
 72
8
 73
4
 74
0
 40
0
 40
0
 40
0
 40
0
 40
1
 40
1
 40
1
 40
1
 10
490.123697
 20
366.093700
 30
0.0
 10
488.588872
 20
366.979832
 30
0.0
 10
486.697890
 20
366.979832
 30
0.0
 10
485.163066
 20
366.093700
 30
0.0
  0
SPLINE
  5
15c
100
AcDbEntity
  8
0
 62
7
100
AcDbSpline
 70
8
 71
3
 72
8
 73
4
 74
0
 40
0
 40
0
 40
0
 40
0
 40
1
 40
1
 40
1
 40
1
 10
485.163066
 20
366.093700
 30
0.0
 10
483.628241
 20
365.207569
 30
0.0
 10
482.682750
 20
363.569930
 30
0.0
 10
482.682750
 20
361.797667
 30
0.0
  0
SPLINE
  5
15d
100
AcDbEntity
  8
0
 62
7
100
AcDbSpline
 70
8
 71
3
 72
8
 73
4
 74
0
 40
0
 40
0
 40
0
 40
0
 40
1
 40
1
 40
1
 40
1
 10
482.682750
 20
361.797667
 30
0.0
 10
482.682750
 20
360.025405
 30
0.0
 10
483.628241
 20
358.387766
 30
0.0
 10
485.163066
 20
357.501635
 30
0.0
  0
SPLINE
  5
15e
100
AcDbEntity
  8
0
 62
7
100
AcDbSpline
 70
8
 71
3
 72
8
 73
4
 74
0
 40
0
 40
0
 40
0
 40
0
 40
1
 40
1
 40
1
 40
1
 10
485.163066
 20
357.501635
 30
0.0
 10
486.697890
 20
356.615503
 30
0.0
 10
488.588872
 20
356.615503
 30
0.0
 10
490.123697
 20
357.501635
 30
0.0
  0
SPLINE
  5
15f
100
AcDbEntity
  8
0
 62
7
100
AcDbSpline
 70
8
 71
3
 72
8
 73
4
 74
0
 40
0
 40
0
 40
0
 40
0
 40
1
 40
1
 40
1
 40
1
 10
490.123697
 20
357.501635
 30
0.0
 10
491.658522
 20
358.387766
 30
0.0
 10
492.604013
 20
360.025405
 30
0.0
 10
492.604013
 20
361.797667
 30
0.0
  0
LWPOLYLINE
  5
160
100
AcDbEntity
  8
0
 62
7
100
AcDbPolyline
 90
1
 70
1
 10
492.909337
 20
89.955270
 30
0.0
  0
SPLINE
  5
161
100
AcDbEntity
  8
0
 62
7
100
AcDbSpline
 70
8
 71
3
 72
8
 73
4
 74
0
 40
0
 40
0
 40
0
 40
0
 40
1
 40
1
 40
1
 40
1
 10
221.572020
 20
119.916630
 30
0.0
 10
221.573583
 20
122.196294
 30
0.0
 10
220.358295
 20
124.303460
 30
0.0
 10
218.384308
 20
125.443744
 30
0.0
  0
SPLINE
  5
162
100
AcDbEntity
  8
0
 62
7
100
AcDbSpline
 70
8
 71
3
 72
8
 73
4
 74
0
 40
0
 40
0
 40
0
 40
0
 40
1
 40
1
 40
1
 40
1
 10
218.384308
 20
125.443744
 30
0.0
 10
216.410321
 20
126.584028
 30
0.0
 10
213.977817
 20
126.584028
 30
0.0
 10
212.003830
 20
125.443744
 30
0.0
  0
SPLINE
  5
163
100
AcDbEntity
  8
0
 62
7
100
AcDbSpline
 70
8
 71
3
 72
8
 73
4
 74
0
 40
0
 40
0
 40
0
 40
0
 40
1
 40
1
 40
1
 40
1
 10
212.003830
 20
125.443744
 30
0.0
 10
210.029843
 20
124.303460
 30
0.0
 10
208.814554
 20
122.196294
 30
0.0
 10
208.816117
 20
119.916630
 30
0.0
  0
SPLINE
  5
164
100
AcDbEntity
  8
0
 62
7
100
AcDbSpline
 70
8
 71
3
 72
8
 73
4
 74
0
 40
0
 40
0
 40
0
 40
0
 40
1
 40
1
 40
1
 40
1
 10
208.816117
 20
119.916630
 30
0.0
 10
208.814554
 20
117.636966
 30
0.0
 10
210.029843
 20
115.529800
 30
0.0
 10
212.003830
 20
114.389516
 30
0.0
  0
SPLINE
  5
165
100
AcDbEntity
  8
0
 62
7
100
AcDbSpline
 70
8
 71
3
 72
8
 73
4
 74
0
 40
0
 40
0
 40
0
 40
0
 40
1
 40
1
 40
1
 40
1
 10
212.003830
 20
114.389516
 30
0.0
 10
213.977817
 20
113.249232
 30
0.0
 10
216.410321
 20
113.249232
 30
0.0
 10
218.384308
 20
114.389516
 30
0.0
  0
SPLINE
  5
166
100
AcDbEntity
  8
0
 62
7
100
AcDbSpline
 70
8
 71
3
 72
8
 73
4
 74
0
 40
0
 40
0
 40
0
 40
0
 40
1
 40
1
 40
1
 40
1
 10
218.384308
 20
114.389516
 30
0.0
 10
220.358295
 20
115.529800
 30
0.0
 10
221.573583
 20
117.636966
 30
0.0
 10
221.572020
 20
119.916630
 30
0.0
  0
LWPOLYLINE
  5
167
100
AcDbEntity
  8
0
 62
7
100
AcDbPolyline
 90
1
 70
1
 10
492.604013
 20
361.797667
 30
0.0
  0
SPLINE
  5
168
100
AcDbEntity
  8
0
 62
7
100
AcDbSpline
 70
8
 71
3
 72
8
 73
4
 74
0
 40
0
 40
0
 40
0
 40
0
 40
1
 40
1
 40
1
 40
1
 10
333.823988
 20
70.310295
 30
0.0
 10
333.825551
 20
72.589959
 30
0.0
 10
332.610262
 20
74.697125
 30
0.0
 10
330.636275
 20
75.837409
 30
0.0
  0
SPLINE
  5
169
100
AcDbEntity
  8
0
 62
7
100
AcDbSpline
 70
8
 71
3
 72
8
 73
4
 74
0
 40
0
 40
0
 40
0
 40
0
 40
1
 40
1
 40
1
 40
1
 10
330.636275
 20
75.837409
 30
0.0
 10
328.662288
 20
76.977693
 30
0.0
 10
326.229784
 20
76.977693
 30
0.0
 10
324.255797
 20
75.837409
 30
0.0
  0
SPLINE
  5
16a
100
AcDbEntity
  8
0
 62
7
100
AcDbSpline
 70
8
 71
3
 72
8
 73
4
 74
0
 40
0
 40
0
 40
0
 40
0
 40
1
 40
1
 40
1
 40
1
 10
324.255797
 20
75.837409
 30
0.0
 10
322.281810
 20
74.697125
 30
0.0
 10
321.066522
 20
72.589959
 30
0.0
 10
321.068085
 20
70.310295
 30
0.0
  0
SPLINE
  5
16b
100
AcDbEntity
  8
0
 62
7
100
AcDbSpline
 70
8
 71
3
 72
8
 73
4
 74
0
 40
0
 40
0
 40
0
 40
0
 40
1
 40
1
 40
1
 40
1
 10
321.068085
 20
70.310295
 30
0.0
 10
321.066522
 20
68.030631
 30
0.0
 10
322.281810
 20
65.923465
 30
0.0
 10
324.255797
 20
64.783181
 30
0.0
  0
SPLINE
  5
16c
100
AcDbEntity
  8
0
 62
7
100
AcDbSpline
 70
8
 71
3
 72
8
 73
4
 74
0
 40
0
 40
0
 40
0
 40
0
 40
1
 40
1
 40
1
 40
1
 10
324.255797
 20
64.783181
 30
0.0
 10
326.229784
 20
63.642897
 30
0.0
 10
328.662288
 20
63.642897
 30
0.0
 10
330.636275
 20
64.783181
 30
0.0
  0
SPLINE
  5
16d
100
AcDbEntity
  8
0
 62
7
100
AcDbSpline
 70
8
 71
3
 72
8
 73
4
 74
0
 40
0
 40
0
 40
0
 40
0
 40
1
 40
1
 40
1
 40
1
 10
330.636275
 20
64.783181
 30
0.0
 10
332.610262
 20
65.923465
 30
0.0
 10
333.825551
 20
68.030631
 30
0.0
 10
333.823988
 20
70.310295
 30
0.0
  0
LWPOLYLINE
  5
16e
100
AcDbEntity
  8
0
 62
7
100
AcDbPolyline
 90
1
 70
1
 10
221.572020
 20
119.916630
 30
0.0
  0
SPLINE
  5
16f
100
AcDbEntity
  8
0
 62
7
100
AcDbSpline
 70
8
 71
3
 72
8
 73
4
 74
0
 40
0
 40
0
 40
0
 40
0
 40
1
 40
1
 40
1
 40
1
 10
320.562795
 20
416.155852
 30
0.0
 10
320.562795
 20
417.674936
 30
0.0
 10
319.752374
 20
419.078626
 30
0.0
 10
318.436809
 20
419.838168
 30
0.0
  0
SPLINE
  5
170
100
AcDbEntity
  8
0
 62
7
100
AcDbSpline
 70
8
 71
3
 72
8
 73
4
 74
0
 40
0
 40
0
 40
0
 40
0
 40
1
 40
1
 40
1
 40
1
 10
318.436809
 20
419.838168
 30
0.0
 10
317.121245
 20
420.597709
 30
0.0
 10
315.500403
 20
420.597709
 30
0.0
 10
314.184838
 20
419.838168
 30
0.0
  0
SPLINE
  5
171
100
AcDbEntity
  8
0
 62
7
100
AcDbSpline
 70
8
 71
3
 72
8
 73
4
 74
0
 40
0
 40
0
 40
0
 40
0
 40
1
 40
1
 40
1
 40
1
 10
314.184838
 20
419.838168
 30
0.0
 10
312.869274
 20
419.078626
 30
0.0
 10
312.058853
 20
417.674936
 30
0.0
 10
312.058853
 20
416.155852
 30
0.0
  0
SPLINE
  5
172
100
AcDbEntity
  8
0
 62
7
100
AcDbSpline
 70
8
 71
3
 72
8
 73
4
 74
0
 40
0
 40
0
 40
0
 40
0
 40
1
 40
1
 40
1
 40
1
 10
312.058853
 20
416.155852
 30
0.0
 10
312.058853
 20
414.636769
 30
0.0
 10
312.869274
 20
413.233079
 30
0.0
 10
314.184838
 20
412.473537
 30
0.0
  0
SPLINE
  5
173
100
AcDbEntity
  8
0
 62
7
100
AcDbSpline
 70
8
 71
3
 72
8
 73
4
 74
0
 40
0
 40
0
 40
0
 40
0
 40
1
 40
1
 40
1
 40
1
 10
314.184838
 20
412.473537
 30
0.0
 10
315.500403
 20
411.713996
 30
0.0
 10
317.121245
 20
411.713996
 30
0.0
 10
318.436809
 20
412.473537
 30
0.0
  0
SPLINE
  5
174
100
AcDbEntity
  8
0
 62
7
100
AcDbSpline
 70
8
 71
3
 72
8
 73
4
 74
0
 40
0
 40
0
 40
0
 40
0
 40
1
 40
1
 40
1
 40
1
 10
318.436809
 20
412.473537
 30
0.0
 10
319.752374
 20
413.233079
 30
0.0
 10
320.562795
 20
414.636769
 30
0.0
 10
320.562795
 20
416.155852
 30
0.0
  0
LWPOLYLINE
  5
175
100
AcDbEntity
  8
0
 62
7
100
AcDbPolyline
 90
1
 70
1
 10
333.823988
 20
70.310295
 30
0.0
  0
SPLINE
  5
176
100
AcDbEntity
  8
0
 62
7
100
AcDbSpline
 70
8
 71
3
 72
8
 73
4
 74
0
 40
0
 40
0
 40
0
 40
0
 40
1
 40
1
 40
1
 40
1
 10
378.162795
 20
416.155852
 30
0.0
 10
378.162795
 20
417.674936
 30
0.0
 10
377.352374
 20
419.078626
 30
0.0
 10
376.036809
 20
419.838168
 30
0.0
  0
SPLINE
  5
177
100
AcDbEntity
  8
0
 62
7
100
AcDbSpline
 70
8
 71
3
 72
8
 73
4
 74
0
 40
0
 40
0
 40
0
 40
0
 40
1
 40
1
 40
1
 40
1
 10
376.036809
 20
419.838168
 30
0.0
 10
374.721245
 20
420.597709
 30
0.0
 10
373.100403
 20
420.597709
 30
0.0
 10
371.784838
 20
419.838168
 30
0.0
  0
SPLINE
  5
178
100
AcDbEntity
  8
0
 62
7
100
AcDbSpline
 70
8
 71
3
 72
8
 73
4
 74
0
 40
0
 40
0
 40
0
 40
0
 40
1
 40
1
 40
1
 40
1
 10
371.784838
 20
419.838168
 30
0.0
 10
370.469274
 20
419.078626
 30
0.0
 10
369.658852
 20
417.674936
 30
0.0
 10
369.658852
 20
416.155852
 30
0.0
  0
SPLINE
  5
179
100
AcDbEntity
  8
0
 62
7
100
AcDbSpline
 70
8
 71
3
 72
8
 73
4
 74
0
 40
0
 40
0
 40
0
 40
0
 40
1
 40
1
 40
1
 40
1
 10
369.658852
 20
416.155852
 30
0.0
 10
369.658852
 20
414.636769
 30
0.0
 10
370.469274
 20
413.233079
 30
0.0
 10
371.784838
 20
412.473537
 30
0.0
  0
SPLINE
  5
17a
100
AcDbEntity
  8
0
 62
7
100
AcDbSpline
 70
8
 71
3
 72
8
 73
4
 74
0
 40
0
 40
0
 40
0
 40
0
 40
1
 40
1
 40
1
 40
1
 10
371.784838
 20
412.473537
 30
0.0
 10
373.100403
 20
411.713996
 30
0.0
 10
374.721245
 20
411.713996
 30
0.0
 10
376.036809
 20
412.473537
 30
0.0
  0
SPLINE
  5
17b
100
AcDbEntity
  8
0
 62
7
100
AcDbSpline
 70
8
 71
3
 72
8
 73
4
 74
0
 40
0
 40
0
 40
0
 40
0
 40
1
 40
1
 40
1
 40
1
 10
376.036809
 20
412.473537
 30
0.0
 10
377.352374
 20
413.233079
 30
0.0
 10
378.162795
 20
414.636769
 30
0.0
 10
378.162795
 20
416.155852
 30
0.0
  0
LWPOLYLINE
  5
17c
100
AcDbEntity
  8
0
 62
7
100
AcDbPolyline
 90
1
 70
1
 10
320.562795
 20
416.155852
 30
0.0
  0
SPLINE
  5
17d
100
AcDbEntity
  8
0
 62
7
100
AcDbSpline
 70
8
 71
3
 72
8
 73
4
 74
0
 40
0
 40
0
 40
0
 40
0
 40
1
 40
1
 40
1
 40
1
 10
378.162795
 20
365.755852
 30
0.0
 10
378.162795
 20
367.274936
 30
0.0
 10
377.352374
 20
368.678626
 30
0.0
 10
376.036809
 20
369.438168
 30
0.0
  0
SPLINE
  5
17e
100
AcDbEntity
  8
0
 62
7
100
AcDbSpline
 70
8
 71
3
 72
8
 73
4
 74
0
 40
0
 40
0
 40
0
 40
0
 40
1
 40
1
 40
1
 40
1
 10
376.036809
 20
369.438168
 30
0.0
 10
374.721245
 20
370.197709
 30
0.0
 10
373.100403
 20
370.197709
 30
0.0
 10
371.784838
 20
369.438168
 30
0.0
  0
SPLINE
  5
17f
100
AcDbEntity
  8
0
 62
7
100
AcDbSpline
 70
8
 71
3
 72
8
 73
4
 74
0
 40
0
 40
0
 40
0
 40
0
 40
1
 40
1
 40
1
 40
1
 10
371.784838
 20
369.438168
 30
0.0
 10
370.469274
 20
368.678626
 30
0.0
 10
369.658852
 20
367.274936
 30
0.0
 10
369.658852
 20
365.755852
 30
0.0
  0
SPLINE
  5
180
100
AcDbEntity
  8
0
 62
7
100
AcDbSpline
 70
8
 71
3
 72
8
 73
4
 74
0
 40
0
 40
0
 40
0
 40
0
 40
1
 40
1
 40
1
 40
1
 10
369.658852
 20
365.755852
 30
0.0
 10
369.658852
 20
364.236769
 30
0.0
 10
370.469274
 20
362.833079
 30
0.0
 10
371.784838
 20
362.073537
 30
0.0
  0
SPLINE
  5
181
100
AcDbEntity
  8
0
 62
7
100
AcDbSpline
 70
8
 71
3
 72
8
 73
4
 74
0
 40
0
 40
0
 40
0
 40
0
 40
1
 40
1
 40
1
 40
1
 10
371.784838
 20
362.073537
 30
0.0
 10
373.100403
 20
361.313996
 30
0.0
 10
374.721245
 20
361.313996
 30
0.0
 10
376.036809
 20
362.073537
 30
0.0
  0
SPLINE
  5
182
100
AcDbEntity
  8
0
 62
7
100
AcDbSpline
 70
8
 71
3
 72
8
 73
4
 74
0
 40
0
 40
0
 40
0
 40
0
 40
1
 40
1
 40
1
 40
1
 10
376.036809
 20
362.073537
 30
0.0
 10
377.352374
 20
362.833079
 30
0.0
 10
378.162795
 20
364.236769
 30
0.0
 10
378.162795
 20
365.755852
 30
0.0
  0
LWPOLYLINE
  5
183
100
AcDbEntity
  8
0
 62
7
100
AcDbPolyline
 90
1
 70
1
 10
378.162795
 20
416.155852
 30
0.0
  0
SPLINE
  5
184
100
AcDbEntity
  8
0
 62
7
100
AcDbSpline
 70
8
 71
3
 72
8
 73
4
 74
0
 40
0
 40
0
 40
0
 40
0
 40
1
 40
1
 40
1
 40
1
 10
320.562795
 20
365.755852
 30
0.0
 10
320.562795
 20
367.274936
 30
0.0
 10
319.752374
 20
368.678626
 30
0.0
 10
318.436809
 20
369.438168
 30
0.0
  0
SPLINE
  5
185
100
AcDbEntity
  8
0
 62
7
100
AcDbSpline
 70
8
 71
3
 72
8
 73
4
 74
0
 40
0
 40
0
 40
0
 40
0
 40
1
 40
1
 40
1
 40
1
 10
318.436809
 20
369.438168
 30
0.0
 10
317.121245
 20
370.197709
 30
0.0
 10
315.500403
 20
370.197709
 30
0.0
 10
314.184838
 20
369.438168
 30
0.0
  0
SPLINE
  5
186
100
AcDbEntity
  8
0
 62
7
100
AcDbSpline
 70
8
 71
3
 72
8
 73
4
 74
0
 40
0
 40
0
 40
0
 40
0
 40
1
 40
1
 40
1
 40
1
 10
314.184838
 20
369.438168
 30
0.0
 10
312.869274
 20
368.678626
 30
0.0
 10
312.058853
 20
367.274936
 30
0.0
 10
312.058853
 20
365.755852
 30
0.0
  0
SPLINE
  5
187
100
AcDbEntity
  8
0
 62
7
100
AcDbSpline
 70
8
 71
3
 72
8
 73
4
 74
0
 40
0
 40
0
 40
0
 40
0
 40
1
 40
1
 40
1
 40
1
 10
312.058853
 20
365.755852
 30
0.0
 10
312.058853
 20
364.236769
 30
0.0
 10
312.869274
 20
362.833079
 30
0.0
 10
314.184838
 20
362.073537
 30
0.0
  0
SPLINE
  5
188
100
AcDbEntity
  8
0
 62
7
100
AcDbSpline
 70
8
 71
3
 72
8
 73
4
 74
0
 40
0
 40
0
 40
0
 40
0
 40
1
 40
1
 40
1
 40
1
 10
314.184838
 20
362.073537
 30
0.0
 10
315.500403
 20
361.313996
 30
0.0
 10
317.121245
 20
361.313996
 30
0.0
 10
318.436809
 20
362.073537
 30
0.0
  0
SPLINE
  5
189
100
AcDbEntity
  8
0
 62
7
100
AcDbSpline
 70
8
 71
3
 72
8
 73
4
 74
0
 40
0
 40
0
 40
0
 40
0
 40
1
 40
1
 40
1
 40
1
 10
318.436809
 20
362.073537
 30
0.0
 10
319.752374
 20
362.833079
 30
0.0
 10
320.562795
 20
364.236769
 30
0.0
 10
320.562795
 20
365.755852
 30
0.0
  0
LWPOLYLINE
  5
18a
100
AcDbEntity
  8
0
 62
7
100
AcDbPolyline
 90
1
 70
1
 10
378.162795
 20
365.755852
 30
0.0
  0
SPLINE
  5
18b
100
AcDbEntity
  8
0
 62
7
100
AcDbSpline
 70
8
 71
3
 72
8
 73
4
 74
0
 40
0
 40
0
 40
0
 40
0
 40
1
 40
1
 40
1
 40
1
 10
300.701513
 20
552.182527
 30
0.0
 10
300.701513
 20
554.207970
 30
0.0
 10
299.620952
 20
556.079556
 30
0.0
 10
297.866867
 20
557.092278
 30
0.0
  0
SPLINE
  5
18c
100
AcDbEntity
  8
0
 62
7
100
AcDbSpline
 70
8
 71
3
 72
8
 73
4
 74
0
 40
0
 40
0
 40
0
 40
0
 40
1
 40
1
 40
1
 40
1
 10
297.866867
 20
557.092278
 30
0.0
 10
296.112782
 20
558.104999
 30
0.0
 10
293.951660
 20
558.104999
 30
0.0
 10
292.197576
 20
557.092278
 30
0.0
  0
SPLINE
  5
18d
100
AcDbEntity
  8
0
 62
7
100
AcDbSpline
 70
8
 71
3
 72
8
 73
4
 74
0
 40
0
 40
0
 40
0
 40
0
 40
1
 40
1
 40
1
 40
1
 10
292.197576
 20
557.092278
 30
0.0
 10
290.443491
 20
556.079556
 30
0.0
 10
289.362930
 20
554.207970
 30
0.0
 10
289.362930
 20
552.182527
 30
0.0
  0
SPLINE
  5
18e
100
AcDbEntity
  8
0
 62
7
100
AcDbSpline
 70
8
 71
3
 72
8
 73
4
 74
0
 40
0
 40
0
 40
0
 40
0
 40
1
 40
1
 40
1
 40
1
 10
289.362930
 20
552.182527
 30
0.0
 10
289.362930
 20
550.157085
 30
0.0
 10
290.443491
 20
548.285499
 30
0.0
 10
292.197576
 20
547.272777
 30
0.0
  0
SPLINE
  5
18f
100
AcDbEntity
  8
0
 62
7
100
AcDbSpline
 70
8
 71
3
 72
8
 73
4
 74
0
 40
0
 40
0
 40
0
 40
0
 40
1
 40
1
 40
1
 40
1
 10
292.197576
 20
547.272777
 30
0.0
 10
293.951660
 20
546.260056
 30
0.0
 10
296.112782
 20
546.260056
 30
0.0
 10
297.866867
 20
547.272777
 30
0.0
  0
SPLINE
  5
190
100
AcDbEntity
  8
0
 62
7
100
AcDbSpline
 70
8
 71
3
 72
8
 73
4
 74
0
 40
0
 40
0
 40
0
 40
0
 40
1
 40
1
 40
1
 40
1
 10
297.866867
 20
547.272777
 30
0.0
 10
299.620952
 20
548.285499
 30
0.0
 10
300.701513
 20
550.157085
 30
0.0
 10
300.701513
 20
552.182527
 30
0.0
  0
LWPOLYLINE
  5
191
100
AcDbEntity
  8
0
 62
7
100
AcDbPolyline
 90
1
 70
1
 10
320.562795
 20
365.755852
 30
0.0
  0
SPLINE
  5
192
100
AcDbEntity
  8
0
 62
7
100
AcDbSpline
 70
8
 71
3
 72
8
 73
4
 74
0
 40
0
 40
0
 40
0
 40
0
 40
1
 40
1
 40
1
 40
1
 10
300.701513
 20
462.182527
 30
0.0
 10
300.701513
 20
464.207970
 30
0.0
 10
299.620952
 20
466.079556
 30
0.0
 10
297.866867
 20
467.092278
 30
0.0
  0
SPLINE
  5
193
100
AcDbEntity
  8
0
 62
7
100
AcDbSpline
 70
8
 71
3
 72
8
 73
4
 74
0
 40
0
 40
0
 40
0
 40
0
 40
1
 40
1
 40
1
 40
1
 10
297.866867
 20
467.092278
 30
0.0
 10
296.112782
 20
468.104999
 30
0.0
 10
293.951660
 20
468.104999
 30
0.0
 10
292.197576
 20
467.092278
 30
0.0
  0
SPLINE
  5
194
100
AcDbEntity
  8
0
 62
7
100
AcDbSpline
 70
8
 71
3
 72
8
 73
4
 74
0
 40
0
 40
0
 40
0
 40
0
 40
1
 40
1
 40
1
 40
1
 10
292.197576
 20
467.092278
 30
0.0
 10
290.443491
 20
466.079556
 30
0.0
 10
289.362930
 20
464.207970
 30
0.0
 10
289.362930
 20
462.182527
 30
0.0
  0
SPLINE
  5
195
100
AcDbEntity
  8
0
 62
7
100
AcDbSpline
 70
8
 71
3
 72
8
 73
4
 74
0
 40
0
 40
0
 40
0
 40
0
 40
1
 40
1
 40
1
 40
1
 10
289.362930
 20
462.182527
 30
0.0
 10
289.362930
 20
460.157085
 30
0.0
 10
290.443491
 20
458.285499
 30
0.0
 10
292.197576
 20
457.272777
 30
0.0
  0
SPLINE
  5
196
100
AcDbEntity
  8
0
 62
7
100
AcDbSpline
 70
8
 71
3
 72
8
 73
4
 74
0
 40
0
 40
0
 40
0
 40
0
 40
1
 40
1
 40
1
 40
1
 10
292.197576
 20
457.272777
 30
0.0
 10
293.951660
 20
456.260056
 30
0.0
 10
296.112782
 20
456.260056
 30
0.0
 10
297.866867
 20
457.272777
 30
0.0
  0
SPLINE
  5
197
100
AcDbEntity
  8
0
 62
7
100
AcDbSpline
 70
8
 71
3
 72
8
 73
4
 74
0
 40
0
 40
0
 40
0
 40
0
 40
1
 40
1
 40
1
 40
1
 10
297.866867
 20
457.272777
 30
0.0
 10
299.620952
 20
458.285499
 30
0.0
 10
300.701513
 20
460.157085
 30
0.0
 10
300.701513
 20
462.182527
 30
0.0
  0
LWPOLYLINE
  5
198
100
AcDbEntity
  8
0
 62
7
100
AcDbPolyline
 90
1
 70
1
 10
300.701513
 20
552.182527
 30
0.0
  0
SPLINE
  5
199
100
AcDbEntity
  8
0
 62
7
100
AcDbSpline
 70
8
 71
3
 72
8
 73
4
 74
0
 40
0
 40
0
 40
0
 40
0
 40
1
 40
1
 40
1
 40
1
 10
401.501512
 20
462.182527
 30
0.0
 10
401.501512
 20
464.207970
 30
0.0
 10
400.420952
 20
466.079556
 30
0.0
 10
398.666867
 20
467.092278
 30
0.0
  0
SPLINE
  5
19a
100
AcDbEntity
  8
0
 62
7
100
AcDbSpline
 70
8
 71
3
 72
8
 73
4
 74
0
 40
0
 40
0
 40
0
 40
0
 40
1
 40
1
 40
1
 40
1
 10
398.666867
 20
467.092278
 30
0.0
 10
396.912782
 20
468.104999
 30
0.0
 10
394.751660
 20
468.104999
 30
0.0
 10
392.997576
 20
467.092278
 30
0.0
  0
SPLINE
  5
19b
100
AcDbEntity
  8
0
 62
7
100
AcDbSpline
 70
8
 71
3
 72
8
 73
4
 74
0
 40
0
 40
0
 40
0
 40
0
 40
1
 40
1
 40
1
 40
1
 10
392.997576
 20
467.092278
 30
0.0
 10
391.243491
 20
466.079556
 30
0.0
 10
390.162930
 20
464.207970
 30
0.0
 10
390.162930
 20
462.182527
 30
0.0
  0
SPLINE
  5
19c
100
AcDbEntity
  8
0
 62
7
100
AcDbSpline
 70
8
 71
3
 72
8
 73
4
 74
0
 40
0
 40
0
 40
0
 40
0
 40
1
 40
1
 40
1
 40
1
 10
390.162930
 20
462.182527
 30
0.0
 10
390.162930
 20
460.157085
 30
0.0
 10
391.243491
 20
458.285499
 30
0.0
 10
392.997576
 20
457.272777
 30
0.0
  0
SPLINE
  5
19d
100
AcDbEntity
  8
0
 62
7
100
AcDbSpline
 70
8
 71
3
 72
8
 73
4
 74
0
 40
0
 40
0
 40
0
 40
0
 40
1
 40
1
 40
1
 40
1
 10
392.997576
 20
457.272777
 30
0.0
 10
394.751660
 20
456.260056
 30
0.0
 10
396.912782
 20
456.260056
 30
0.0
 10
398.666867
 20
457.272777
 30
0.0
  0
SPLINE
  5
19e
100
AcDbEntity
  8
0
 62
7
100
AcDbSpline
 70
8
 71
3
 72
8
 73
4
 74
0
 40
0
 40
0
 40
0
 40
0
 40
1
 40
1
 40
1
 40
1
 10
398.666867
 20
457.272777
 30
0.0
 10
400.420952
 20
458.285499
 30
0.0
 10
401.501512
 20
460.157085
 30
0.0
 10
401.501512
 20
462.182527
 30
0.0
  0
LWPOLYLINE
  5
19f
100
AcDbEntity
  8
0
 62
7
100
AcDbPolyline
 90
1
 70
1
 10
300.701513
 20
462.182527
 30
0.0
  0
SPLINE
  5
1a0
100
AcDbEntity
  8
0
 62
7
100
AcDbSpline
 70
8
 71
3
 72
8
 73
4
 74
0
 40
0
 40
0
 40
0
 40
0
 40
1
 40
1
 40
1
 40
1
 10
401.501512
 20
552.182527
 30
0.0
 10
401.501512
 20
554.207970
 30
0.0
 10
400.420952
 20
556.079556
 30
0.0
 10
398.666867
 20
557.092278
 30
0.0
  0
SPLINE
  5
1a1
100
AcDbEntity
  8
0
 62
7
100
AcDbSpline
 70
8
 71
3
 72
8
 73
4
 74
0
 40
0
 40
0
 40
0
 40
0
 40
1
 40
1
 40
1
 40
1
 10
398.666867
 20
557.092278
 30
0.0
 10
396.912782
 20
558.104999
 30
0.0
 10
394.751660
 20
558.104999
 30
0.0
 10
392.997576
 20
557.092278
 30
0.0
  0
SPLINE
  5
1a2
100
AcDbEntity
  8
0
 62
7
100
AcDbSpline
 70
8
 71
3
 72
8
 73
4
 74
0
 40
0
 40
0
 40
0
 40
0
 40
1
 40
1
 40
1
 40
1
 10
392.997576
 20
557.092278
 30
0.0
 10
391.243491
 20
556.079556
 30
0.0
 10
390.162930
 20
554.207970
 30
0.0
 10
390.162930
 20
552.182527
 30
0.0
  0
SPLINE
  5
1a3
100
AcDbEntity
  8
0
 62
7
100
AcDbSpline
 70
8
 71
3
 72
8
 73
4
 74
0
 40
0
 40
0
 40
0
 40
0
 40
1
 40
1
 40
1
 40
1
 10
390.162930
 20
552.182527
 30
0.0
 10
390.162930
 20
550.157085
 30
0.0
 10
391.243491
 20
548.285499
 30
0.0
 10
392.997576
 20
547.272777
 30
0.0
  0
SPLINE
  5
1a4
100
AcDbEntity
  8
0
 62
7
100
AcDbSpline
 70
8
 71
3
 72
8
 73
4
 74
0
 40
0
 40
0
 40
0
 40
0
 40
1
 40
1
 40
1
 40
1
 10
392.997576
 20
547.272777
 30
0.0
 10
394.751660
 20
546.260056
 30
0.0
 10
396.912782
 20
546.260056
 30
0.0
 10
398.666867
 20
547.272777
 30
0.0
  0
SPLINE
  5
1a5
100
AcDbEntity
  8
0
 62
7
100
AcDbSpline
 70
8
 71
3
 72
8
 73
4
 74
0
 40
0
 40
0
 40
0
 40
0
 40
1
 40
1
 40
1
 40
1
 10
398.666867
 20
547.272777
 30
0.0
 10
400.420952
 20
548.285499
 30
0.0
 10
401.501512
 20
550.157085
 30
0.0
 10
401.501512
 20
552.182527
 30
0.0
  0
LWPOLYLINE
  5
1a6
100
AcDbEntity
  8
0
 62
7
100
AcDbPolyline
 90
1
 70
1
 10
401.501512
 20
462.182527
 30
0.0
  0
SPLINE
  5
1a7
100
AcDbEntity
  8
0
 62
7
100
AcDbSpline
 70
8
 71
3
 72
8
 73
4
 74
0
 40
0
 40
0
 40
0
 40
0
 40
1
 40
1
 40
1
 40
1
 10
42.295946
 20
43.624395
 30
0.0
 10
42.295946
 20
45.903018
 30
0.0
 10
41.080315
 20
48.008553
 30
0.0
 10
39.106969
 20
49.147864
 30
0.0
  0
SPLINE
  5
1a8
100
AcDbEntity
  8
0
 62
7
100
AcDbSpline
 70
8
 71
3
 72
8
 73
4
 74
0
 40
0
 40
0
 40
0
 40
0
 40
1
 40
1
 40
1
 40
1
 10
39.106969
 20
49.147864
 30
0.0
 10
37.133624
 20
50.287176
 30
0.0
 10
34.702362
 20
50.287176
 30
0.0
 10
32.729016
 20
49.147864
 30
0.0
  0
SPLINE
  5
1a9
100
AcDbEntity
  8
0
 62
7
100
AcDbSpline
 70
8
 71
3
 72
8
 73
4
 74
0
 40
0
 40
0
 40
0
 40
0
 40
1
 40
1
 40
1
 40
1
 10
32.729016
 20
49.147864
 30
0.0
 10
30.755671
 20
48.008553
 30
0.0
 10
29.540040
 20
45.903018
 30
0.0
 10
29.540040
 20
43.624395
 30
0.0
  0
SPLINE
  5
1aa
100
AcDbEntity
  8
0
 62
7
100
AcDbSpline
 70
8
 71
3
 72
8
 73
4
 74
0
 40
0
 40
0
 40
0
 40
0
 40
1
 40
1
 40
1
 40
1
 10
29.540040
 20
43.624395
 30
0.0
 10
29.540040
 20
41.345772
 30
0.0
 10
30.755671
 20
39.240237
 30
0.0
 10
32.729016
 20
38.100926
 30
0.0
  0
SPLINE
  5
1ab
100
AcDbEntity
  8
0
 62
7
100
AcDbSpline
 70
8
 71
3
 72
8
 73
4
 74
0
 40
0
 40
0
 40
0
 40
0
 40
1
 40
1
 40
1
 40
1
 10
32.729016
 20
38.100926
 30
0.0
 10
34.702362
 20
36.961614
 30
0.0
 10
37.133624
 20
36.961614
 30
0.0
 10
39.106969
 20
38.100926
 30
0.0
  0
SPLINE
  5
1ac
100
AcDbEntity
  8
0
 62
7
100
AcDbSpline
 70
8
 71
3
 72
8
 73
4
 74
0
 40
0
 40
0
 40
0
 40
0
 40
1
 40
1
 40
1
 40
1
 10
39.106969
 20
38.100926
 30
0.0
 10
41.080315
 20
39.240237
 30
0.0
 10
42.295946
 20
41.345772
 30
0.0
 10
42.295946
 20
43.624395
 30
0.0
  0
LWPOLYLINE
  5
1ad
100
AcDbEntity
  8
0
 62
7
100
AcDbPolyline
 90
1
 70
1
 10
401.501512
 20
552.182527
 30
0.0
  0
SPLINE
  5
1ae
100
AcDbEntity
  8
0
 62
7
100
AcDbSpline
 70
8
 71
3
 72
8
 73
4
 74
0
 40
0
 40
0
 40
0
 40
0
 40
1
 40
1
 40
1
 40
1
 10
42.295946
 20
823.151962
 30
0.0
 10
42.295946
 20
825.430585
 30
0.0
 10
41.080315
 20
827.536119
 30
0.0
 10
39.106969
 20
828.675431
 30
0.0
  0
SPLINE
  5
1af
100
AcDbEntity
  8
0
 62
7
100
AcDbSpline
 70
8
 71
3
 72
8
 73
4
 74
0
 40
0
 40
0
 40
0
 40
0
 40
1
 40
1
 40
1
 40
1
 10
39.106969
 20
828.675431
 30
0.0
 10
37.133624
 20
829.814742
 30
0.0
 10
34.702362
 20
829.814742
 30
0.0
 10
32.729016
 20
828.675431
 30
0.0
  0
SPLINE
  5
1b0
100
AcDbEntity
  8
0
 62
7
100
AcDbSpline
 70
8
 71
3
 72
8
 73
4
 74
0
 40
0
 40
0
 40
0
 40
0
 40
1
 40
1
 40
1
 40
1
 10
32.729016
 20
828.675431
 30
0.0
 10
30.755671
 20
827.536119
 30
0.0
 10
29.540040
 20
825.430585
 30
0.0
 10
29.540040
 20
823.151962
 30
0.0
  0
SPLINE
  5
1b1
100
AcDbEntity
  8
0
 62
7
100
AcDbSpline
 70
8
 71
3
 72
8
 73
4
 74
0
 40
0
 40
0
 40
0
 40
0
 40
1
 40
1
 40
1
 40
1
 10
29.540040
 20
823.151962
 30
0.0
 10
29.540040
 20
820.873339
 30
0.0
 10
30.755671
 20
818.767804
 30
0.0
 10
32.729016
 20
817.628493
 30
0.0
  0
SPLINE
  5
1b2
100
AcDbEntity
  8
0
 62
7
100
AcDbSpline
 70
8
 71
3
 72
8
 73
4
 74
0
 40
0
 40
0
 40
0
 40
0
 40
1
 40
1
 40
1
 40
1
 10
32.729016
 20
817.628493
 30
0.0
 10
34.702362
 20
816.489181
 30
0.0
 10
37.133624
 20
816.489181
 30
0.0
 10
39.106969
 20
817.628493
 30
0.0
  0
SPLINE
  5
1b3
100
AcDbEntity
  8
0
 62
7
100
AcDbSpline
 70
8
 71
3
 72
8
 73
4
 74
0
 40
0
 40
0
 40
0
 40
0
 40
1
 40
1
 40
1
 40
1
 10
39.106969
 20
817.628493
 30
0.0
 10
41.080315
 20
818.767804
 30
0.0
 10
42.295946
 20
820.873339
 30
0.0
 10
42.295946
 20
823.151962
 30
0.0
  0
LWPOLYLINE
  5
1b4
100
AcDbEntity
  8
0
 62
7
100
AcDbPolyline
 90
1
 70
1
 10
42.295946
 20
43.624395
 30
0.0
  0
SPLINE
  5
1b5
100
AcDbEntity
  8
0
 62
7
100
AcDbSpline
 70
8
 71
3
 72
8
 73
4
 74
0
 40
0
 40
0
 40
0
 40
0
 40
1
 40
1
 40
1
 40
1
 10
42.295946
 20
433.388182
 30
0.0
 10
42.295946
 20
435.666806
 30
0.0
 10
41.080315
 20
437.772340
 30
0.0
 10
39.106969
 20
438.911652
 30
0.0
  0
SPLINE
  5
1b6
100
AcDbEntity
  8
0
 62
7
100
AcDbSpline
 70
8
 71
3
 72
8
 73
4
 74
0
 40
0
 40
0
 40
0
 40
0
 40
1
 40
1
 40
1
 40
1
 10
39.106969
 20
438.911652
 30
0.0
 10
37.133624
 20
440.050963
 30
0.0
 10
34.702362
 20
440.050963
 30
0.0
 10
32.729016
 20
438.911652
 30
0.0
  0
SPLINE
  5
1b7
100
AcDbEntity
  8
0
 62
7
100
AcDbSpline
 70
8
 71
3
 72
8
 73
4
 74
0
 40
0
 40
0
 40
0
 40
0
 40
1
 40
1
 40
1
 40
1
 10
32.729016
 20
438.911652
 30
0.0
 10
30.755671
 20
437.772340
 30
0.0
 10
29.540040
 20
435.666806
 30
0.0
 10
29.540040
 20
433.388182
 30
0.0
  0
SPLINE
  5
1b8
100
AcDbEntity
  8
0
 62
7
100
AcDbSpline
 70
8
 71
3
 72
8
 73
4
 74
0
 40
0
 40
0
 40
0
 40
0
 40
1
 40
1
 40
1
 40
1
 10
29.540040
 20
433.388182
 30
0.0
 10
29.540040
 20
431.109559
 30
0.0
 10
30.755671
 20
429.004025
 30
0.0
 10
32.729016
 20
427.864713
 30
0.0
  0
SPLINE
  5
1b9
100
AcDbEntity
  8
0
 62
7
100
AcDbSpline
 70
8
 71
3
 72
8
 73
4
 74
0
 40
0
 40
0
 40
0
 40
0
 40
1
 40
1
 40
1
 40
1
 10
32.729016
 20
427.864713
 30
0.0
 10
34.702362
 20
426.725402
 30
0.0
 10
37.133624
 20
426.725402
 30
0.0
 10
39.106969
 20
427.864713
 30
0.0
  0
SPLINE
  5
1ba
100
AcDbEntity
  8
0
 62
7
100
AcDbSpline
 70
8
 71
3
 72
8
 73
4
 74
0
 40
0
 40
0
 40
0
 40
0
 40
1
 40
1
 40
1
 40
1
 10
39.106969
 20
427.864713
 30
0.0
 10
41.080315
 20
429.004025
 30
0.0
 10
42.295946
 20
431.109559
 30
0.0
 10
42.295946
 20
433.388182
 30
0.0
  0
LWPOLYLINE
  5
1bb
100
AcDbEntity
  8
0
 62
7
100
AcDbPolyline
 90
1
 70
1
 10
42.295946
 20
823.151962
 30
0.0
  0
SPLINE
  5
1bc
100
AcDbEntity
  8
0
 62
7
100
AcDbSpline
 70
8
 71
3
 72
8
 73
4
 74
0
 40
0
 40
0
 40
0
 40
0
 40
1
 40
1
 40
1
 40
1
 10
595.051852
 20
671.246595
 30
0.0
 10
595.053416
 20
673.526259
 30
0.0
 10
593.838127
 20
675.633425
 30
0.0
 10
591.864140
 20
676.773709
 30
0.0
  0
SPLINE
  5
1bd
100
AcDbEntity
  8
0
 62
7
100
AcDbSpline
 70
8
 71
3
 72
8
 73
4
 74
0
 40
0
 40
0
 40
0
 40
0
 40
1
 40
1
 40
1
 40
1
 10
591.864140
 20
676.773709
 30
0.0
 10
589.890153
 20
677.913993
 30
0.0
 10
587.457649
 20
677.913993
 30
0.0
 10
585.483662
 20
676.773709
 30
0.0
  0
SPLINE
  5
1be
100
AcDbEntity
  8
0
 62
7
100
AcDbSpline
 70
8
 71
3
 72
8
 73
4
 74
0
 40
0
 40
0
 40
0
 40
0
 40
1
 40
1
 40
1
 40
1
 10
585.483662
 20
676.773709
 30
0.0
 10
583.509675
 20
675.633425
 30
0.0
 10
582.294387
 20
673.526259
 30
0.0
 10
582.295950
 20
671.246595
 30
0.0
  0
SPLINE
  5
1bf
100
AcDbEntity
  8
0
 62
7
100
AcDbSpline
 70
8
 71
3
 72
8
 73
4
 74
0
 40
0
 40
0
 40
0
 40
0
 40
1
 40
1
 40
1
 40
1
 10
582.295950
 20
671.246595
 30
0.0
 10
582.294387
 20
668.966931
 30
0.0
 10
583.509675
 20
666.859765
 30
0.0
 10
585.483662
 20
665.719481
 30
0.0
  0
SPLINE
  5
1c0
100
AcDbEntity
  8
0
 62
7
100
AcDbSpline
 70
8
 71
3
 72
8
 73
4
 74
0
 40
0
 40
0
 40
0
 40
0
 40
1
 40
1
 40
1
 40
1
 10
585.483662
 20
665.719481
 30
0.0
 10
587.457649
 20
664.579197
 30
0.0
 10
589.890153
 20
664.579197
 30
0.0
 10
591.864140
 20
665.719481
 30
0.0
  0
SPLINE
  5
1c1
100
AcDbEntity
  8
0
 62
7
100
AcDbSpline
 70
8
 71
3
 72
8
 73
4
 74
0
 40
0
 40
0
 40
0
 40
0
 40
1
 40
1
 40
1
 40
1
 10
591.864140
 20
665.719481
 30
0.0
 10
593.838127
 20
666.859765
 30
0.0
 10
595.053416
 20
668.966931
 30
0.0
 10
595.051852
 20
671.246595
 30
0.0
  0
LWPOLYLINE
  5
1c2
100
AcDbEntity
  8
0
 62
7
100
AcDbPolyline
 90
1
 70
1
 10
42.295946
 20
433.388182
 30
0.0
  0
SPLINE
  5
1c3
100
AcDbEntity
  8
0
 62
7
100
AcDbSpline
 70
8
 71
3
 72
8
 73
4
 74
0
 40
0
 40
0
 40
0
 40
0
 40
1
 40
1
 40
1
 40
1
 10
595.051852
 20
43.624395
 30
0.0
 10
595.053416
 20
45.904059
 30
0.0
 10
593.838127
 20
48.011225
 30
0.0
 10
591.864140
 20
49.151509
 30
0.0
  0
SPLINE
  5
1c4
100
AcDbEntity
  8
0
 62
7
100
AcDbSpline
 70
8
 71
3
 72
8
 73
4
 74
0
 40
0
 40
0
 40
0
 40
0
 40
1
 40
1
 40
1
 40
1
 10
591.864140
 20
49.151509
 30
0.0
 10
589.890153
 20
50.291793
 30
0.0
 10
587.457649
 20
50.291793
 30
0.0
 10
585.483662
 20
49.151509
 30
0.0
  0
SPLINE
  5
1c5
100
AcDbEntity
  8
0
 62
7
100
AcDbSpline
 70
8
 71
3
 72
8
 73
4
 74
0
 40
0
 40
0
 40
0
 40
0
 40
1
 40
1
 40
1
 40
1
 10
585.483662
 20
49.151509
 30
0.0
 10
583.509675
 20
48.011225
 30
0.0
 10
582.294387
 20
45.904059
 30
0.0
 10
582.295950
 20
43.624395
 30
0.0
  0
SPLINE
  5
1c6
100
AcDbEntity
  8
0
 62
7
100
AcDbSpline
 70
8
 71
3
 72
8
 73
4
 74
0
 40
0
 40
0
 40
0
 40
0
 40
1
 40
1
 40
1
 40
1
 10
582.295950
 20
43.624395
 30
0.0
 10
582.294387
 20
41.344731
 30
0.0
 10
583.509675
 20
39.237565
 30
0.0
 10
585.483662
 20
38.097281
 30
0.0
  0
SPLINE
  5
1c7
100
AcDbEntity
  8
0
 62
7
100
AcDbSpline
 70
8
 71
3
 72
8
 73
4
 74
0
 40
0
 40
0
 40
0
 40
0
 40
1
 40
1
 40
1
 40
1
 10
585.483662
 20
38.097281
 30
0.0
 10
587.457649
 20
36.956997
 30
0.0
 10
589.890153
 20
36.956997
 30
0.0
 10
591.864140
 20
38.097281
 30
0.0
  0
SPLINE
  5
1c8
100
AcDbEntity
  8
0
 62
7
100
AcDbSpline
 70
8
 71
3
 72
8
 73
4
 74
0
 40
0
 40
0
 40
0
 40
0
 40
1
 40
1
 40
1
 40
1
 10
591.864140
 20
38.097281
 30
0.0
 10
593.838127
 20
39.237565
 30
0.0
 10
595.053416
 20
41.344731
 30
0.0
 10
595.051852
 20
43.624395
 30
0.0
  0
LWPOLYLINE
  5
1c9
100
AcDbEntity
  8
0
 62
7
100
AcDbPolyline
 90
1
 70
1
 10
595.051852
 20
671.246595
 30
0.0
  0
SPLINE
  5
1ca
100
AcDbEntity
  8
0
 62
7
100
AcDbSpline
 70
8
 71
3
 72
8
 73
4
 74
0
 40
0
 40
0
 40
0
 40
0
 40
1
 40
1
 40
1
 40
1
 10
267.933742
 20
823.151962
 30
0.0
 10
267.935306
 20
825.431626
 30
0.0
 10
266.720017
 20
827.538792
 30
0.0
 10
264.746030
 20
828.679076
 30
0.0
  0
SPLINE
  5
1cb
100
AcDbEntity
  8
0
 62
7
100
AcDbSpline
 70
8
 71
3
 72
8
 73
4
 74
0
 40
0
 40
0
 40
0
 40
0
 40
1
 40
1
 40
1
 40
1
 10
264.746030
 20
828.679076
 30
0.0
 10
262.772043
 20
829.819360
 30
0.0
 10
260.339539
 20
829.819360
 30
0.0
 10
258.365552
 20
828.679076
 30
0.0
  0
SPLINE
  5
1cc
100
AcDbEntity
  8
0
 62
7
100
AcDbSpline
 70
8
 71
3
 72
8
 73
4
 74
0
 40
0
 40
0
 40
0
 40
0
 40
1
 40
1
 40
1
 40
1
 10
258.365552
 20
828.679076
 30
0.0
 10
256.391565
 20
827.538792
 30
0.0
 10
255.176277
 20
825.431626
 30
0.0
 10
255.177840
 20
823.151962
 30
0.0
  0
SPLINE
  5
1cd
100
AcDbEntity
  8
0
 62
7
100
AcDbSpline
 70
8
 71
3
 72
8
 73
4
 74
0
 40
0
 40
0
 40
0
 40
0
 40
1
 40
1
 40
1
 40
1
 10
255.177840
 20
823.151962
 30
0.0
 10
255.176277
 20
820.872297
 30
0.0
 10
256.391565
 20
818.765131
 30
0.0
 10
258.365552
 20
817.624848
 30
0.0
  0
SPLINE
  5
1ce
100
AcDbEntity
  8
0
 62
7
100
AcDbSpline
 70
8
 71
3
 72
8
 73
4
 74
0
 40
0
 40
0
 40
0
 40
0
 40
1
 40
1
 40
1
 40
1
 10
258.365552
 20
817.624848
 30
0.0
 10
260.339539
 20
816.484564
 30
0.0
 10
262.772043
 20
816.484564
 30
0.0
 10
264.746030
 20
817.624848
 30
0.0
  0
SPLINE
  5
1cf
100
AcDbEntity
  8
0
 62
7
100
AcDbSpline
 70
8
 71
3
 72
8
 73
4
 74
0
 40
0
 40
0
 40
0
 40
0
 40
1
 40
1
 40
1
 40
1
 10
264.746030
 20
817.624848
 30
0.0
 10
266.720017
 20
818.765131
 30
0.0
 10
267.935306
 20
820.872297
 30
0.0
 10
267.933742
 20
823.151962
 30
0.0
  0
LWPOLYLINE
  5
1d0
100
AcDbEntity
  8
0
 62
7
100
AcDbPolyline
 90
1
 70
1
 10
595.051852
 20
43.624395
 30
0.0
  0
LWPOLYLINE
  5
1d1
100
AcDbEntity
  8
0
 62
7
100
AcDbPolyline
 90
1
 70
1
 10
267.933742
 20
823.151962
 30
0.0
  0
LWPOLYLINE
  5
1d2
100
AcDbEntity
  8
0
 62
7
100
AcDbPolyline
 90
2
 70
0
 10
7.571536
 20
851.498418
 30
0.0
 10
7.571536
 20
15.277920
 30
0.0
  0
LWPOLYLINE
  5
1d3
100
AcDbEntity
  8
0
 62
7
100
AcDbPolyline
 90
2
 70
0
 10
617.020358
 20
851.498418
 30
0.0
 10
617.020358
 20
15.277920
 30
0.0
  0
LWPOLYLINE
  5
1d4
100
AcDbEntity
  8
0
 62
7
100
AcDbPolyline
 90
2
 70
0
 10
7.571536
 20
851.498418
 30
0.0
 10
617.020358
 20
851.498418
 30
0.0
  0
LWPOLYLINE
  5
1d5
100
AcDbEntity
  8
0
 62
7
100
AcDbPolyline
 90
2
 70
0
 10
7.571536
 20
15.277920
 30
0.0
 10
617.020358
 20
15.277920
 30
0.0
  0
ENDSEC
  0
SECTION
  2
OBJECTS
  0
DICTIONARY
  5
C
330
0
100
AcDbDictionary
  3
ACAD_GROUP
350
D
  3
ACAD_MLINESTYLE
350
17
  0
DICTIONARY
  5
D
330
C
100
AcDbDictionary
  0
DICTIONARY
  5
1A
330
C
100
AcDbDictionary
  0
DICTIONARY
  5
17
330
C
100
AcDbDictionary
  3
STANDARD
350
18
  0
DICTIONARY
  5
19
330
C
100
AcDbDictionary
  0
ENDSEC
  0
EOF
